Golos Text-Bold.ufo
<glyph name="exclam" format="2">
	<advance width="320" height="0"/>
	<unicode hex="0021"/>
	<outline>
		<contour>
			<point x="83" y="240" type="line"/>
			<point x="237" y="240" type="line" name="iv01"/>
			<point x="237" y="700" type="line"/>
			<point x="83" y="700" type="line" name="sh01"/>
		</contour>
		<contour>
			<point x="160" y="-13" type="curve" smooth="yes"/>
			<point x="213" y="-13"/>
			<point x="255" y="29" name="sv01"/>
			<point x="255" y="82" type="curve" smooth="yes"/>
			<point x="255" y="135" name="ih01"/>
			<point x="213" y="177" name="ih02"/>
			<point x="160" y="177" type="curve" smooth="yes" name="ih03"/>
			<point x="107" y="177"/>
			<point x="65" y="135"/>
			<point x="65" y="82" type="curve" smooth="yes"/>
			<point x="65" y="29"/>
			<point x="107" y="-13"/>
		</contour>
	</outline>
</glyph>
<glyph name="numbersign" format="2">
	<advance width="680" height="0"/>
	<unicode hex="0023"/>
	<outline>
		<contour>
			<point x="85" y="0" type="line"/>
			<point x="219" y="0" type="line" name="ab02"/>
			<point x="253" y="182" type="line"/>
			<point x="365" y="182" type="line" name="sv08"/>
			<point x="331" y="0" type="line"/>
			<point x="465" y="0" type="line" name="ab01"/>
			<point x="499" y="182" type="line"/>
			<point x="606" y="182" type="line" name="sv07"/>
			<point x="606" y="288" type="line"/>
			<point x="518" y="288" type="line" name="sv06"/>
			<point x="541" y="412" type="line"/>
			<point x="645" y="412" type="line" name="sv05"/>
			<point x="645" y="518" type="line"/>
			<point x="561" y="518" type="line" name="sv04"/>
			<point x="595" y="700" type="line"/>
			<point x="461" y="700" type="line" name="at02"/>
			<point x="427" y="518" type="line"/>
			<point x="315" y="518" type="line" name="sv03"/>
			<point x="349" y="700" type="line" name="ih01"/>
			<point x="215" y="700" type="line" name="at01"/>
			<point x="181" y="518" type="line" name="iv02"/>
			<point x="74" y="518" type="line"/>
			<point x="74" y="412" type="line"/>
			<point x="161" y="412" type="line" name="sv02"/>
			<point x="138" y="288" type="line" name="iv01"/>
			<point x="35" y="288" type="line"/>
			<point x="35" y="182" type="line"/>
			<point x="119" y="182" type="line" name="sv01"/>
		</contour>
		<contour>
			<point x="272" y="288" type="line"/>
			<point x="295" y="412" type="line"/>
			<point x="407" y="412" type="line" name="sv09"/>
			<point x="384" y="288" type="line" name="sh01"/>
		</contour>
	</outline>
</glyph>
<glyph name="dollar" format="2">
	<advance width="670" height="0"/>
	<unicode hex="0024"/>
	<outline>
		<contour>
			<point x="265" y="-120" type="line" name="hr01"/>
			<point x="405" y="-120" type="line"/>
			<point x="405" y="-8" type="line" name="sv04"/>
			<point x="548" y="11"/>
			<point x="630" y="87" name="iv04"/>
			<point x="630" y="208" type="curve" smooth="yes"/>
			<point x="630" y="349" name="sv01"/>
			<point x="535" y="397" name="iv03"/>
			<point x="390" y="427" type="curve" smooth="yes"/>
			<point x="293" y="446" name="at01"/>
			<point x="240" y="463" name="sv03"/>
			<point x="240" y="512" type="curve" smooth="yes"/>
			<point x="240" y="548" name="sv02"/>
			<point x="264" y="573" name="hr01"/>
			<point x="335" y="573" type="curve" smooth="yes" name="iv02"/>
			<point x="399" y="573"/>
			<point x="427" y="553" name="ih01"/>
			<point x="435" y="510" type="curve" name="iv01"/>
			<point x="615" y="510" type="line"/>
			<point x="607" y="621" name="ab01"/>
			<point x="541" y="691" name="ih02"/>
			<point x="405" y="708" type="curve" name="ih03"/>
			<point x="405" y="800" type="line" name="hr03"/>
			<point x="265" y="800" type="line"/>
			<point x="265" y="708" type="line" name="hr04"/>
			<point x="136" y="689"/>
			<point x="60" y="618"/>
			<point x="60" y="506" type="curve" smooth="yes"/>
			<point x="60" y="369"/>
			<point x="144" y="317"/>
			<point x="283" y="285" type="curve" smooth="yes"/>
			<point x="391" y="261"/>
			<point x="450" y="246"/>
			<point x="450" y="191" type="curve" smooth="yes"/>
			<point x="450" y="148"/>
			<point x="412" y="127" name="hr05"/>
			<point x="335" y="127" type="curve" smooth="yes"/>
			<point x="264" y="127"/>
			<point x="231" y="149"/>
			<point x="220" y="200" type="curve"/>
			<point x="40" y="200" type="line"/>
			<point x="43" y="84"/>
			<point x="116" y="8"/>
			<point x="265" y="-9" type="curve" name="hr06"/>
		</contour>
	</outline>
</glyph>
<glyph name="ampersand" format="2">
	<advance width="710" height="0"/>
	<unicode hex="0026"/>
	<outline>
		<contour>
			<point x="300" y="-13" type="curve" smooth="yes"/>
			<point x="372" y="-13"/>
			<point x="436" y="4"/>
			<point x="491" y="39" type="curve"/>
			<point x="527" y="0" type="line" name="hr01"/>
			<point x="705" y="0" type="line"/>
			<point x="585" y="135" type="line"/>
			<point x="620" y="191"/>
			<point x="640" y="261"/>
			<point x="640" y="345" type="curve"/>
			<point x="482" y="345" type="line"/>
			<point x="482" y="315"/>
			<point x="479" y="287"/>
			<point x="473" y="261" type="curve"/>
			<point x="368" y="379" type="line"/>
			<point x="459" y="454"/>
			<point x="480" y="490"/>
			<point x="480" y="560" type="curve" smooth="yes" name="hr01"/>
			<point x="480" y="632"/>
			<point x="427" y="713"/>
			<point x="300" y="713" type="curve" smooth="yes"/>
			<point x="163" y="713"/>
			<point x="100" y="642"/>
			<point x="100" y="560" type="curve" smooth="yes"/>
			<point x="100" y="487"/>
			<point x="126" y="442"/>
			<point x="169" y="394" type="curve"/>
			<point x="68" y="309"/>
			<point x="45" y="254" name="hr02"/>
			<point x="45" y="190" type="curve" smooth="yes"/>
			<point x="45" y="75"/>
			<point x="124" y="-13"/>
		</contour>
		<contour>
			<point x="300" y="115" type="curve" smooth="yes"/>
			<point x="240" y="115"/>
			<point x="203" y="147"/>
			<point x="203" y="190" type="curve" smooth="yes"/>
			<point x="203" y="226"/>
			<point x="211" y="250"/>
			<point x="260" y="293" type="curve"/>
			<point x="399" y="140" type="line"/>
			<point x="375" y="124"/>
			<point x="336" y="115"/>
		</contour>
		<contour>
			<point x="248" y="556" type="curve" smooth="yes"/>
			<point x="248" y="579"/>
			<point x="261" y="595" name="hr03"/>
			<point x="290" y="595" type="curve" smooth="yes"/>
			<point x="317" y="595"/>
			<point x="332" y="581"/>
			<point x="332" y="560" type="curve" smooth="yes"/>
			<point x="332" y="541"/>
			<point x="328" y="523"/>
			<point x="280" y="483" type="curve"/>
			<point x="257" y="514"/>
			<point x="248" y="536"/>
		</contour>
	</outline>
</glyph>
<glyph name="parenleft" format="2">
	<advance width="380" height="0"/>
	<unicode hex="0028"/>
	<outline>
		<contour>
			<point x="60" y="240" type="line" smooth="yes"/>
			<point x="60" y="95"/>
			<point x="100" y="-14"/>
			<point x="140" y="-89" type="curve" smooth="yes"/>
			<point x="163" y="-132"/>
			<point x="190" y="-169"/>
			<point x="221" y="-200" type="curve"/>
			<point x="380" y="-200" type="line"/>
			<point x="347" y="-169"/>
			<point x="318" y="-132"/>
			<point x="292" y="-89" type="curve" smooth="yes"/>
			<point x="248" y="-14"/>
			<point x="204" y="95"/>
			<point x="204" y="240" type="curve" smooth="yes"/>
			<point x="204" y="260" type="line" smooth="yes"/>
			<point x="204" y="405"/>
			<point x="248" y="514"/>
			<point x="292" y="589" type="curve" smooth="yes"/>
			<point x="318" y="632"/>
			<point x="347" y="669"/>
			<point x="380" y="700" type="curve"/>
			<point x="223" y="700" type="line"/>
			<point x="192" y="669"/>
			<point x="165" y="632"/>
			<point x="141" y="589" type="curve" smooth="yes"/>
			<point x="100" y="514"/>
			<point x="60" y="405"/>
			<point x="60" y="260" type="curve" smooth="yes"/>
		</contour>
	</outline>
</glyph>
<glyph name="parenright" format="2">
	<advance width="380" height="0"/>
	<unicode hex="0029"/>
	<outline>
		<contour>
			<point x="320" y="260" type="line" smooth="yes"/>
			<point x="320" y="405"/>
			<point x="280" y="514"/>
			<point x="240" y="589" type="curve" smooth="yes"/>
			<point x="217" y="632"/>
			<point x="190" y="669"/>
			<point x="159" y="700" type="curve"/>
			<point x="0" y="700" type="line"/>
			<point x="33" y="669"/>
			<point x="62" y="632"/>
			<point x="88" y="589" type="curve" smooth="yes"/>
			<point x="132" y="514"/>
			<point x="176" y="405"/>
			<point x="176" y="260" type="curve" smooth="yes"/>
			<point x="176" y="240" type="line" smooth="yes"/>
			<point x="176" y="95"/>
			<point x="132" y="-14"/>
			<point x="88" y="-89" type="curve" smooth="yes"/>
			<point x="62" y="-132"/>
			<point x="33" y="-169"/>
			<point x="0" y="-200" type="curve"/>
			<point x="157" y="-200" type="line"/>
			<point x="188" y="-169"/>
			<point x="215" y="-132"/>
			<point x="239" y="-89" type="curve" smooth="yes"/>
			<point x="280" y="-14"/>
			<point x="320" y="95"/>
			<point x="320" y="240" type="curve" smooth="yes"/>
		</contour>
	</outline>
</glyph>
<glyph name="asterisk" format="2">
	<advance width="450" height="0"/>
	<unicode hex="002A"/>
	<outline>
		<contour>
			<point x="172" y="350" type="line" name="iv01"/>
			<point x="278" y="350" type="line"/>
			<point x="266" y="453" type="line"/>
			<point x="351" y="386" type="line" name="sv02"/>
			<point x="410" y="489" type="line"/>
			<point x="306" y="525" type="line"/>
			<point x="410" y="561" type="line"/>
			<point x="352" y="664" type="line" name="sv01"/>
			<point x="266" y="597" type="line"/>
			<point x="278" y="700" type="line"/>
			<point x="172" y="700" type="line" name="at01"/>
			<point x="184" y="597" type="line"/>
			<point x="99" y="664" type="line" name="iv03"/>
			<point x="40" y="561" type="line"/>
			<point x="144" y="525" type="line"/>
			<point x="40" y="489" type="line"/>
			<point x="99" y="386" type="line" name="iv02"/>
			<point x="184" y="453" type="line" name="ih01"/>
		</contour>
	</outline>
</glyph>
<glyph name="plus" format="2">
	<advance width="580" height="0"/>
	<unicode hex="002B"/>
	<outline>
		<contour>
			<point x="213" y="105" type="line" name="sv04"/>
			<point x="367" y="105" type="line"/>
			<point x="367" y="286" type="line"/>
			<point x="545" y="286" type="line" name="sv03"/>
			<point x="545" y="434" type="line"/>
			<point x="367" y="434" type="line" name="sv02"/>
			<point x="367" y="615" type="line"/>
			<point x="213" y="615" type="line" name="sv01"/>
			<point x="213" y="434" type="line" name="av01"/>
			<point x="35" y="434" type="line"/>
			<point x="35" y="286" type="line"/>
			<point x="213" y="286" type="line" name="ih01"/>
		</contour>
	</outline>
</glyph>
<glyph name="comma" format="2">
	<advance width="320" height="0"/>
	<unicode hex="002C"/>
	<outline>
		<contour>
			<point x="40" y="-165" type="line" name="sv02"/>
			<point x="118" y="-165" type="line" name="ih01"/>
			<point x="240" y="0" type="line"/>
			<point x="240" y="150" type="line"/>
			<point x="80" y="150" type="line" name="sv01"/>
			<point x="80" y="0" type="line" name="ab01"/>
		</contour>
	</outline>
</glyph>
<glyph name="period" format="2">
	<advance width="320" height="0"/>
	<unicode hex="002E"/>
	<outline>
		<contour>
			<point x="160" y="-13" type="curve" smooth="yes"/>
			<point x="213" y="-13"/>
			<point x="255" y="29" name="sv01"/>
			<point x="255" y="82" type="curve" smooth="yes"/>
			<point x="255" y="135" name="ih01"/>
			<point x="213" y="177" name="ih02"/>
			<point x="160" y="177" type="curve" smooth="yes" name="ih03"/>
			<point x="107" y="177"/>
			<point x="65" y="135"/>
			<point x="65" y="82" type="curve" smooth="yes"/>
			<point x="65" y="29"/>
			<point x="107" y="-13"/>
		</contour>
	</outline>
</glyph>
<glyph name="zero" format="2">
	<advance width="650" height="0"/>
	<unicode hex="0030"/>
	<outline>
		<contour>
			<point x="325" y="-13" type="curve" smooth="yes"/>
			<point x="482" y="-13"/>
			<point x="605" y="85"/>
			<point x="605" y="350" type="curve" smooth="yes" name="at01"/>
			<point x="605" y="370" type="line" smooth="yes"/>
			<point x="605" y="615"/>
			<point x="482" y="713" name="ih01"/>
			<point x="325" y="713" type="curve" smooth="yes"/>
			<point x="168" y="713"/>
			<point x="45" y="615"/>
			<point x="45" y="370" type="curve" smooth="yes" name="sv01"/>
			<point x="45" y="350" type="line" smooth="yes"/>
			<point x="45" y="85"/>
			<point x="168" y="-13" name="sh01"/>
		</contour>
		<contour>
			<point x="325" y="135" type="curve" smooth="yes" name="ih03"/>
			<point x="271" y="135"/>
			<point x="225" y="182"/>
			<point x="225" y="350" type="curve" smooth="yes"/>
			<point x="225" y="370" type="line" smooth="yes"/>
			<point x="225" y="518"/>
			<point x="271" y="565"/>
			<point x="325" y="565" type="curve" smooth="yes"/>
			<point x="379" y="565"/>
			<point x="425" y="518"/>
			<point x="425" y="370" type="curve" smooth="yes"/>
			<point x="425" y="350" type="line" smooth="yes"/>
			<point x="425" y="182"/>
			<point x="379" y="135"/>
		</contour>
	</outline>
</glyph>
<glyph name="two" format="2">
	<advance width="610" height="0"/>
	<unicode hex="0032"/>
	<outline>
		<contour>
			<point x="25" y="0" type="line"/>
			<point x="575" y="0" type="line" name="ab01"/>
			<point x="575" y="148" type="line"/>
			<point x="276" y="148" type="line" name="sv01"/>
			<point x="397" y="240" type="line" smooth="yes" name="iv03"/>
			<point x="494" y="315"/>
			<point x="565" y="394" name="at01"/>
			<point x="565" y="490" type="curve" smooth="yes" name="iv02"/>
			<point x="565" y="621"/>
			<point x="482" y="713" name="ih01"/>
			<point x="310" y="713" type="curve" smooth="yes"/>
			<point x="126" y="713" name="iv01"/>
			<point x="35" y="616" name="sv02"/>
			<point x="35" y="445" type="curve" name="ih02"/>
			<point x="215" y="445" type="line" name="ih03"/>
			<point x="215" y="524"/>
			<point x="247" y="563"/>
			<point x="310" y="563" type="curve" smooth="yes"/>
			<point x="358" y="563"/>
			<point x="385" y="537"/>
			<point x="385" y="490" type="curve" smooth="yes"/>
			<point x="385" y="437"/>
			<point x="347" y="394"/>
			<point x="257" y="320" type="curve" smooth="yes"/>
			<point x="25" y="128" type="line"/>
		</contour>
	</outline>
</glyph>
<glyph name="three" format="2">
	<advance width="610" height="0"/>
	<unicode hex="0033"/>
	<outline>
		<contour>
			<point x="300" y="-13" type="curve" smooth="yes"/>
			<point x="465" y="-13"/>
			<point x="570" y="73" name="iv04"/>
			<point x="570" y="200" type="curve" smooth="yes"/>
			<point x="570" y="288" name="at01"/>
			<point x="526" y="342" name="iv03"/>
			<point x="442" y="365" type="curve"/>
			<point x="514" y="388" name="sv02"/>
			<point x="560" y="443"/>
			<point x="560" y="519" type="curve" smooth="yes" name="iv02"/>
			<point x="560" y="633"/>
			<point x="465" y="713"/>
			<point x="300" y="713" type="curve" smooth="yes" name="sv01"/>
			<point x="133" y="713"/>
			<point x="40" y="624" name="ih01"/>
			<point x="40" y="475" type="curve"/>
			<point x="220" y="475" type="line" name="iv01"/>
			<point x="220" y="534" name="ab01"/>
			<point x="248" y="563" name="ih02"/>
			<point x="305" y="563" type="curve" smooth="yes" name="ih03"/>
			<point x="353" y="563"/>
			<point x="380" y="538"/>
			<point x="380" y="497" type="curve" smooth="yes"/>
			<point x="380" y="450"/>
			<point x="353" y="426"/>
			<point x="300" y="426" type="curve" smooth="yes"/>
			<point x="241" y="426" type="line"/>
			<point x="241" y="294" type="line"/>
			<point x="300" y="294" type="line" smooth="yes" name="hr01"/>
			<point x="363" y="294"/>
			<point x="390" y="267"/>
			<point x="390" y="216" type="curve" smooth="yes"/>
			<point x="390" y="167"/>
			<point x="362" y="137"/>
			<point x="305" y="137" type="curve" smooth="yes"/>
			<point x="238" y="137"/>
			<point x="210" y="170"/>
			<point x="210" y="235" type="curve" name="hr02"/>
			<point x="30" y="235" type="line"/>
			<point x="30" y="91"/>
			<point x="121" y="-13"/>
		</contour>
	</outline>
</glyph>
<glyph name="five" format="2">
	<advance width="610" height="0"/>
	<unicode hex="0035"/>
	<outline>
		<contour>
			<point x="305" y="-13" type="curve" smooth="yes"/>
			<point x="470" y="-13"/>
			<point x="575" y="86" name="iv02"/>
			<point x="575" y="241" type="curve" smooth="yes" name="iv04"/>
			<point x="575" y="403"/>
			<point x="482" y="486" name="sv03"/>
			<point x="348" y="486" type="curve" smooth="yes"/>
			<point x="299" y="486" name="at01"/>
			<point x="261" y="476"/>
			<point x="233" y="455" type="curve" name="iv03"/>
			<point x="233" y="553" type="line" name="sv02"/>
			<point x="536" y="553" type="line"/>
			<point x="536" y="700" type="line" name="sv01"/>
			<point x="60" y="700" type="line"/>
			<point x="60" y="300" type="line" name="iv01"/>
			<point x="223" y="300" type="line" name="ih01"/>
			<point x="242" y="327" name="ih02"/>
			<point x="270" y="341" name="ih03"/>
			<point x="305" y="341" type="curve" smooth="yes"/>
			<point x="356" y="341"/>
			<point x="393" y="315"/>
			<point x="393" y="239" type="curve" smooth="yes"/>
			<point x="393" y="167"/>
			<point x="368" y="126"/>
			<point x="305" y="126" type="curve" smooth="yes"/>
			<point x="254" y="126"/>
			<point x="222" y="162"/>
			<point x="219" y="215" type="curve" name="hr01"/>
			<point x="45" y="215" type="line"/>
			<point x="48" y="92"/>
			<point x="114" y="-13"/>
		</contour>
	</outline>
</glyph>
<glyph name="six" format="2">
	<advance width="635" height="0"/>
	<unicode hex="0036"/>
	<outline>
		<contour>
			<point x="330" y="-13" type="curve" smooth="yes"/>
			<point x="489" y="-13"/>
			<point x="595" y="83"/>
			<point x="595" y="229" type="curve" smooth="yes"/>
			<point x="595" y="240" type="line" smooth="yes"/>
			<point x="595" y="372"/>
			<point x="516" y="458"/>
			<point x="376" y="458" type="curve" smooth="yes"/>
			<point x="311" y="458"/>
			<point x="249" y="442"/>
			<point x="217" y="395" type="curve"/>
			<point x="220" y="535"/>
			<point x="267" y="573"/>
			<point x="335" y="573" type="curve" smooth="yes"/>
			<point x="376" y="573"/>
			<point x="401" y="557"/>
			<point x="410" y="525" type="curve" name="hr01"/>
			<point x="580" y="525" type="line"/>
			<point x="565" y="662"/>
			<point x="479" y="713"/>
			<point x="340" y="713" type="curve" smooth="yes"/>
			<point x="164" y="713"/>
			<point x="45" y="608"/>
			<point x="45" y="345" type="curve" smooth="yes"/>
			<point x="45" y="325" type="line" smooth="yes"/>
			<point x="45" y="86"/>
			<point x="145" y="-13"/>
		</contour>
		<contour>
			<point x="320" y="127" type="curve" smooth="yes"/>
			<point x="261" y="127"/>
			<point x="225" y="163"/>
			<point x="225" y="223" type="curve" smooth="yes"/>
			<point x="225" y="233" type="line" smooth="yes"/>
			<point x="225" y="292"/>
			<point x="261" y="328"/>
			<point x="320" y="328" type="curve" smooth="yes"/>
			<point x="379" y="328"/>
			<point x="415" y="292"/>
			<point x="415" y="233" type="curve" smooth="yes"/>
			<point x="415" y="223" type="line" smooth="yes"/>
			<point x="415" y="163"/>
			<point x="379" y="127"/>
		</contour>
	</outline>
</glyph>
<glyph name="seven" format="2">
	<advance width="545" height="0"/>
	<unicode hex="0037"/>
	<outline>
		<contour>
			<point x="110" y="0" type="line"/>
			<point x="300" y="0" type="line" name="ih01"/>
			<point x="520" y="573" type="line" name="sv02"/>
			<point x="520" y="700" type="line"/>
			<point x="20" y="700" type="line" name="at01"/>
			<point x="20" y="553" type="line"/>
			<point x="338" y="553" type="line" name="sv01"/>
		</contour>
	</outline>
</glyph>
<glyph name="eight" format="2">
	<advance width="640" height="0"/>
	<unicode hex="0038"/>
	<outline>
		<contour>
			<point x="320" y="-13" type="curve" smooth="yes"/>
			<point x="492" y="-13"/>
			<point x="600" y="67" name="sv03"/>
			<point x="600" y="195" type="curve" smooth="yes"/>
			<point x="600" y="278" name="at01"/>
			<point x="553" y="336"/>
			<point x="461" y="363" type="curve" name="sv02"/>
			<point x="532" y="388"/>
			<point x="580" y="443" name="ih01"/>
			<point x="580" y="519" type="curve" smooth="yes"/>
			<point x="580" y="635"/>
			<point x="485" y="713" name="iv01"/>
			<point x="320" y="713" type="curve" smooth="yes"/>
			<point x="155" y="713" name="sh01"/>
			<point x="60" y="635"/>
			<point x="60" y="519" type="curve" smooth="yes"/>
			<point x="60" y="443" name="sv01"/>
			<point x="110" y="386"/>
			<point x="179" y="363" type="curve" name="sh02"/>
			<point x="87" y="339" name="ih02"/>
			<point x="40" y="272" name="ih03"/>
			<point x="40" y="195" type="curve" smooth="yes"/>
			<point x="40" y="67"/>
			<point x="148" y="-13"/>
		</contour>
		<contour>
			<point x="320" y="125" type="curve" smooth="yes"/>
			<point x="252" y="125"/>
			<point x="210" y="155"/>
			<point x="210" y="206" type="curve" smooth="yes"/>
			<point x="210" y="261"/>
			<point x="260" y="290"/>
			<point x="320" y="301" type="curve"/>
			<point x="380" y="290"/>
			<point x="430" y="261"/>
			<point x="430" y="206" type="curve" smooth="yes"/>
			<point x="430" y="155"/>
			<point x="392" y="125"/>
		</contour>
		<contour>
			<point x="320" y="419" type="curve"/>
			<point x="271" y="430"/>
			<point x="230" y="451"/>
			<point x="230" y="502" type="curve" smooth="yes"/>
			<point x="230" y="551" name="hr03"/>
			<point x="264" y="575"/>
			<point x="320" y="575" type="curve" smooth="yes"/>
			<point x="376" y="575"/>
			<point x="410" y="550"/>
			<point x="410" y="502" type="curve" smooth="yes"/>
			<point x="410" y="451"/>
			<point x="371" y="428"/>
		</contour>
	</outline>
</glyph>
<glyph name="nine" format="2">
	<advance width="635" height="0"/>
	<unicode hex="0039"/>
	<outline>
		<contour>
			<point x="300" y="-13" type="curve" smooth="yes"/>
			<point x="471" y="-13"/>
			<point x="590" y="92"/>
			<point x="590" y="355" type="curve" smooth="yes"/>
			<point x="590" y="375" type="line" smooth="yes"/>
			<point x="590" y="619"/>
			<point x="490" y="713"/>
			<point x="305" y="713" type="curve" smooth="yes"/>
			<point x="146" y="713"/>
			<point x="40" y="617"/>
			<point x="40" y="471" type="curve" smooth="yes"/>
			<point x="40" y="461" type="line" smooth="yes"/>
			<point x="40" y="328"/>
			<point x="119" y="242"/>
			<point x="260" y="242" type="curve" smooth="yes"/>
			<point x="324" y="242"/>
			<point x="386" y="258"/>
			<point x="418" y="305" type="curve"/>
			<point x="413" y="165"/>
			<point x="370" y="127"/>
			<point x="305" y="127" type="curve" smooth="yes"/>
			<point x="258" y="127"/>
			<point x="234" y="144"/>
			<point x="225" y="175" type="curve" name="hr01"/>
			<point x="55" y="175" type="line"/>
			<point x="70" y="40"/>
			<point x="157" y="-13"/>
		</contour>
		<contour>
			<point x="315" y="372" type="curve" smooth="yes"/>
			<point x="256" y="372"/>
			<point x="220" y="408"/>
			<point x="220" y="468" type="curve" smooth="yes"/>
			<point x="220" y="478" type="line" smooth="yes"/>
			<point x="220" y="537"/>
			<point x="256" y="573"/>
			<point x="315" y="573" type="curve" smooth="yes"/>
			<point x="371" y="573"/>
			<point x="410" y="534"/>
			<point x="410" y="477" type="curve" smooth="yes"/>
			<point x="410" y="468" type="line" smooth="yes"/>
			<point x="410" y="408"/>
			<point x="374" y="372"/>
		</contour>
	</outline>
</glyph>
<glyph name="less" format="2">
	<advance width="580" height="0"/>
	<unicode hex="003C"/>
	<outline>
		<contour>
			<point x="545" y="65" type="line" name="av01"/>
			<point x="545" y="251" type="line" name="iv04"/>
			<point x="275" y="363" type="line" name="ih01"/>
			<point x="545" y="475" type="line" name="iv03"/>
			<point x="545" y="655" type="line" name="sv01"/>
			<point x="35" y="423" type="line" name="iv02"/>
			<point x="35" y="297" type="line" name="iv01"/>
		</contour>
	</outline>
</glyph>
<glyph name="equal" format="2">
	<advance width="580" height="0"/>
	<unicode hex="003D"/>
	<outline>
		<contour>
			<point x="35" y="156" type="line" name="sv01"/>
			<point x="545" y="156" type="line"/>
			<point x="545" y="304" type="line"/>
			<point x="35" y="304" type="line" name="ih01"/>
		</contour>
		<contour>
			<point x="35" y="416" type="line" name="sv02"/>
			<point x="545" y="416" type="line"/>
			<point x="545" y="564" type="line"/>
			<point x="35" y="564" type="line" name="sh01"/>
		</contour>
	</outline>
</glyph>
<glyph name="greater" format="2">
	<advance width="580" height="0"/>
	<unicode hex="003E"/>
	<outline>
		<contour>
			<point x="35" y="655" type="line" name="sv01"/>
			<point x="35" y="469" type="line" name="iv04"/>
			<point x="305" y="357" type="line" name="ih01"/>
			<point x="35" y="245" type="line" name="iv03"/>
			<point x="35" y="65" type="line" name="av01"/>
			<point x="545" y="297" type="line" name="iv02"/>
			<point x="545" y="423" type="line" name="iv01"/>
		</contour>
	</outline>
</glyph>
<glyph name="at" format="2">
	<advance width="970" height="0"/>
	<unicode hex="0040"/>
	<outline>
		<contour>
			<point x="504" y="-213" type="curve" smooth="yes"/>
			<point x="605" y="-213"/>
			<point x="672" y="-193" name="iv05"/>
			<point x="725" y="-165" type="curve" name="sv05"/>
			<point x="725" y="-53" type="line"/>
			<point x="674" y="-84" name="sv02"/>
			<point x="603" y="-109"/>
			<point x="504" y="-109" type="curve" smooth="yes" name="sv04"/>
			<point x="298" y="-109"/>
			<point x="161" y="12"/>
			<point x="161" y="257" type="curve" smooth="yes" name="sv03"/>
			<point x="161" y="493" name="iv04"/>
			<point x="300" y="610" name="iv02"/>
			<point x="485" y="610" type="curve" smooth="yes"/>
			<point x="675" y="610"/>
			<point x="810" y="518" name="iv01"/>
			<point x="810" y="290" type="curve" smooth="yes" name="iv03"/>
			<point x="810" y="164" name="sv01"/>
			<point x="780" y="128"/>
			<point x="728" y="128" type="curve" smooth="yes" name="ih01"/>
			<point x="689" y="128"/>
			<point x="679" y="147" name="ab01"/>
			<point x="679" y="211" type="curve" smooth="yes"/>
			<point x="679" y="490" type="line"/>
			<point x="556" y="490" type="line"/>
			<point x="556" y="433" type="line" name="sv06"/>
			<point x="539" y="468"/>
			<point x="506" y="498"/>
			<point x="434" y="498" type="curve" smooth="yes" name="sh01"/>
			<point x="326" y="498" name="ih02"/>
			<point x="258" y="429" name="ih03"/>
			<point x="258" y="274" type="curve" smooth="yes"/>
			<point x="258" y="235" type="line" smooth="yes"/>
			<point x="258" y="82"/>
			<point x="330" y="5"/>
			<point x="443" y="5" type="curve" smooth="yes"/>
			<point x="512" y="5"/>
			<point x="556" y="35"/>
			<point x="581" y="91" type="curve"/>
			<point x="600" y="23"/>
			<point x="649" y="6"/>
			<point x="708" y="6" type="curve" smooth="yes"/>
			<point x="832" y="6"/>
			<point x="925" y="93"/>
			<point x="925" y="290" type="curve" smooth="yes"/>
			<point x="925" y="565"/>
			<point x="760" y="714"/>
			<point x="485" y="714" type="curve" smooth="yes"/>
			<point x="239" y="714"/>
			<point x="45" y="545"/>
			<point x="45" y="257" type="curve" smooth="yes"/>
			<point x="45" y="-46"/>
			<point x="229" y="-213"/>
		</contour>
		<contour>
			<point x="471" y="127" type="curve" smooth="yes"/>
			<point x="423" y="127"/>
			<point x="396" y="159"/>
			<point x="396" y="236" type="curve" smooth="yes"/>
			<point x="396" y="267" type="line" smooth="yes"/>
			<point x="396" y="347"/>
			<point x="422" y="377"/>
			<point x="470" y="377" type="curve" smooth="yes"/>
			<point x="521" y="377"/>
			<point x="550" y="348"/>
			<point x="550" y="281" type="curve" smooth="yes"/>
			<point x="550" y="223" type="line" smooth="yes"/>
			<point x="550" y="160"/>
			<point x="520" y="127"/>
		</contour>
	</outline>
</glyph>
<glyph name="A" format="2">
	<advance width="710" height="0"/>
	<unicode hex="0041"/>
	<anchor x="355" y="0" name="bottom"/>
	<anchor x="700" y="0" name="ogonek"/>
	<anchor x="355" y="700" name="top"/>
	<outline>
		<contour>
			<point x="10" y="0" type="line"/>
			<point x="180" y="0" type="line" name="ab01"/>
			<point x="228" y="134" type="line"/>
			<point x="462" y="134" type="line" name="sv01"/>
			<point x="510" y="0" type="line"/>
			<point x="700" y="0" type="line" name="ab02"/>
			<point x="445" y="700" type="line"/>
			<point x="265" y="700" type="line" name="sh01"/>
		</contour>
		<contour>
			<point x="279" y="272" type="line"/>
			<point x="345" y="480" type="line" name="ih01"/>
			<point x="411" y="272" type="line" name="iv01"/>
		</contour>
	</outline>
</glyph>
<glyph name="E" format="2">
	<advance width="625" height="0"/>
	<unicode hex="0045"/>
	<anchor x="313" y="0" name="bottom"/>
	<anchor x="580" y="0" name="ogonek"/>
	<anchor x="325" y="700" name="top"/>
	<anchor x="20" y="700" name="topleft"/>
	<outline>
		<contour>
			<point x="70" y="0" type="line"/>
			<point x="580" y="0" type="line" name="ab01"/>
			<point x="580" y="138" type="line"/>
			<point x="250" y="138" type="line" name="sv03"/>
			<point x="250" y="295" type="line"/>
			<point x="550" y="295" type="line" name="sv02"/>
			<point x="550" y="425" type="line" name="iv01"/>
			<point x="250" y="425" type="line"/>
			<point x="250" y="562" type="line" name="ih01"/>
			<point x="580" y="562" type="line" name="sv01"/>
			<point x="580" y="700" type="line"/>
			<point x="70" y="700" type="line" name="at01"/>
		</contour>
	</outline>
</glyph>
<glyph name="G" format="2">
	<advance width="735" height="0"/>
	<unicode hex="0047"/>
	<anchor x="368" y="0" name="bottom"/>
	<anchor x="368" y="700" name="top"/>
	<outline>
		<contour>
			<point x="380" y="-13" type="curve" smooth="yes"/>
			<point x="563" y="-13"/>
			<point x="695" y="85"/>
			<point x="695" y="325" type="curve" smooth="yes" name="iv02"/>
			<point x="695" y="372" type="line" name="sv03"/>
			<point x="400" y="372" type="line"/>
			<point x="400" y="258" type="line" name="sv02"/>
			<point x="528" y="258" type="line"/>
			<point x="525" y="174"/>
			<point x="453" y="137" name="sv01"/>
			<point x="380" y="137" type="curve" smooth="yes" name="iv01"/>
			<point x="292" y="137"/>
			<point x="231" y="196" name="ih01"/>
			<point x="231" y="345" type="curve" smooth="yes"/>
			<point x="231" y="365" type="line" smooth="yes"/>
			<point x="231" y="514" name="ab01"/>
			<point x="290" y="563" name="ih02"/>
			<point x="375" y="563" type="curve" smooth="yes" name="ih03"/>
			<point x="422" y="563"/>
			<point x="475" y="545"/>
			<point x="494" y="470" type="curve" name="hr01"/>
			<point x="680" y="470" type="line"/>
			<point x="659" y="641"/>
			<point x="534" y="713"/>
			<point x="375" y="713" type="curve" smooth="yes"/>
			<point x="194" y="713"/>
			<point x="45" y="607"/>
			<point x="45" y="365" type="curve" smooth="yes"/>
			<point x="45" y="345" type="line" smooth="yes"/>
			<point x="45" y="91"/>
			<point x="189" y="-13"/>
		</contour>
	</outline>
</glyph>
<glyph name="H" format="2">
	<advance width="760" height="0"/>
	<unicode hex="0048"/>
	<anchor x="380" y="0" name="bottom"/>
	<anchor x="380" y="350" name="center"/>
	<anchor x="380" y="700" name="top"/>
	<anchor x="20" y="700" name="topleft"/>
	<outline>
		<contour>
			<point x="70" y="0" type="line"/>
			<point x="250" y="0" type="line" name="ab02"/>
			<point x="250" y="286" type="line"/>
			<point x="510" y="286" type="line" name="sv01"/>
			<point x="510" y="0" type="line"/>
			<point x="690" y="0" type="line" name="ab01"/>
			<point x="690" y="700" type="line"/>
			<point x="510" y="700" type="line" name="at02"/>
			<point x="510" y="434" type="line" name="iv01"/>
			<point x="250" y="434" type="line"/>
			<point x="250" y="700" type="line" name="ih01"/>
			<point x="70" y="700" type="line" name="at01"/>
		</contour>
	</outline>
</glyph>
<glyph name="M" format="2">
	<advance width="890" height="0"/>
	<unicode hex="004D"/>
	<anchor x="445" y="0" name="bottom"/>
	<anchor x="445" y="700" name="top"/>
	<outline>
		<contour>
			<point x="70" y="0" type="line"/>
			<point x="250" y="0" type="line" name="ab02"/>
			<point x="250" y="401" type="line" name="iv03"/>
			<point x="395" y="135" type="line"/>
			<point x="495" y="135" type="line" name="iv01"/>
			<point x="640" y="401" type="line" name="iv02"/>
			<point x="640" y="0" type="line"/>
			<point x="820" y="0" type="line" name="ab01"/>
			<point x="820" y="700" type="line"/>
			<point x="640" y="700" type="line" name="at02"/>
			<point x="448" y="345" type="line" name="ih01"/>
			<point x="254" y="700" type="line"/>
			<point x="70" y="700" type="line" name="at01"/>
		</contour>
	</outline>
</glyph>
<glyph name="O" format="2">
	<advance width="770" height="0"/>
	<unicode hex="004F"/>
	<anchor x="385" y="0" name="bottom"/>
	<anchor x="385" y="350" name="center"/>
	<anchor x="693" y="10" name="ogonek"/>
	<anchor x="385" y="700" name="top"/>
	<anchor x="20" y="700" name="topleft"/>
	<anchor x="750" y="700" name="topright"/>
	<outline>
		<contour>
			<point x="385" y="-13" type="curve" smooth="yes"/>
			<point x="570" y="-13"/>
			<point x="725" y="90"/>
			<point x="725" y="345" type="curve" smooth="yes" name="at01"/>
			<point x="725" y="365" type="line" smooth="yes"/>
			<point x="725" y="610"/>
			<point x="570" y="713" name="ih01"/>
			<point x="385" y="713" type="curve" smooth="yes"/>
			<point x="200" y="713"/>
			<point x="45" y="610"/>
			<point x="45" y="365" type="curve" smooth="yes" name="sv01"/>
			<point x="45" y="345" type="line" smooth="yes"/>
			<point x="45" y="90"/>
			<point x="200" y="-13" name="sh01"/>
		</contour>
		<contour>
			<point x="385" y="137" type="curve" smooth="yes" name="ih03"/>
			<point x="305" y="137"/>
			<point x="231" y="181"/>
			<point x="231" y="345" type="curve" smooth="yes"/>
			<point x="231" y="365" type="line" smooth="yes"/>
			<point x="231" y="521"/>
			<point x="305" y="563"/>
			<point x="385" y="563" type="curve" smooth="yes"/>
			<point x="465" y="563"/>
			<point x="539" y="521"/>
			<point x="539" y="365" type="curve" smooth="yes"/>
			<point x="539" y="345" type="line" smooth="yes"/>
			<point x="539" y="181"/>
			<point x="465" y="137"/>
		</contour>
	</outline>
</glyph>
<glyph name="R" format="2">
	<advance width="695" height="0"/>
	<unicode hex="0052"/>
	<anchor x="348" y="0" name="bottom"/>
	<anchor x="348" y="700" name="top"/>
	<outline>
		<contour>
			<point x="70" y="0" type="line"/>
			<point x="250" y="0" type="line" name="ab02"/>
			<point x="250" y="240" type="line"/>
			<point x="324" y="240" type="line" name="sh01"/>
			<point x="460" y="0" type="line"/>
			<point x="660" y="0" type="line" name="ab01"/>
			<point x="498" y="259" type="line" name="sv01"/>
			<point x="593" y="292"/>
			<point x="640" y="366"/>
			<point x="640" y="466" type="curve" smooth="yes" name="at01"/>
			<point x="640" y="610"/>
			<point x="550" y="700"/>
			<point x="375" y="700" type="curve" smooth="yes" name="sv02"/>
			<point x="70" y="700" type="line"/>
		</contour>
		<contour>
			<point x="250" y="380" type="line" name="ih01"/>
			<point x="250" y="552" type="line" name="ih02"/>
			<point x="335" y="552" type="line" smooth="yes" name="ih03"/>
			<point x="431" y="552"/>
			<point x="460" y="523"/>
			<point x="460" y="466" type="curve" smooth="yes"/>
			<point x="460" y="409"/>
			<point x="431" y="380"/>
			<point x="335" y="380" type="curve" smooth="yes"/>
		</contour>
	</outline>
</glyph>
<glyph name="S" format="2">
	<advance width="670" height="0"/>
	<unicode hex="0053"/>
	<anchor x="335" y="0" name="bottom"/>
	<anchor x="335" y="700" name="top"/>
	<outline>
		<contour>
			<point x="335" y="-13" type="curve" smooth="yes"/>
			<point x="520" y="-13"/>
			<point x="630" y="69" name="iv03"/>
			<point x="630" y="208" type="curve" smooth="yes"/>
			<point x="630" y="349" name="sv02"/>
			<point x="535" y="397" name="iv04"/>
			<point x="390" y="427" type="curve" smooth="yes"/>
			<point x="293" y="446" name="at01"/>
			<point x="240" y="463"/>
			<point x="240" y="512" type="curve" smooth="yes" name="iv01"/>
			<point x="240" y="548"/>
			<point x="264" y="573" name="sv01"/>
			<point x="335" y="573" type="curve" smooth="yes" name="iv02"/>
			<point x="399" y="573"/>
			<point x="427" y="553" name="ih01"/>
			<point x="435" y="510" type="curve" name="ih02"/>
			<point x="615" y="510" type="line" name="ih03"/>
			<point x="606" y="639"/>
			<point x="519" y="713"/>
			<point x="335" y="713" type="curve" smooth="yes"/>
			<point x="166" y="713"/>
			<point x="60" y="637"/>
			<point x="60" y="506" type="curve" smooth="yes"/>
			<point x="60" y="369"/>
			<point x="144" y="317"/>
			<point x="283" y="285" type="curve" smooth="yes"/>
			<point x="391" y="261"/>
			<point x="450" y="246"/>
			<point x="450" y="191" type="curve" smooth="yes"/>
			<point x="450" y="148"/>
			<point x="412" y="127"/>
			<point x="335" y="127" type="curve" smooth="yes"/>
			<point x="264" y="127"/>
			<point x="231" y="149"/>
			<point x="220" y="200" type="curve" name="hr02"/>
			<point x="40" y="200" type="line"/>
			<point x="44" y="68"/>
			<point x="139" y="-13"/>
		</contour>
	</outline>
</glyph>
<glyph name="T" format="2">
	<advance width="650" height="0"/>
	<unicode hex="0054"/>
	<anchor x="325" y="0" name="bottom"/>
	<anchor x="325" y="350" name="center"/>
	<anchor x="325" y="700" name="top"/>
	<outline>
		<contour>
			<point x="235" y="0" type="line"/>
			<point x="415" y="0" type="line" name="ab01"/>
			<point x="415" y="552" type="line" name="sv02"/>
			<point x="630" y="552" type="line" name="sv01"/>
			<point x="630" y="700" type="line"/>
			<point x="20" y="700" type="line" name="at01"/>
			<point x="20" y="552" type="line"/>
			<point x="235" y="552" type="line" name="ih01"/>
		</contour>
	</outline>
</glyph>
<glyph name="U" format="2">
	<advance width="730" height="0"/>
	<unicode hex="0055"/>
	<anchor x="365" y="0" name="bottom"/>
	<anchor x="474" y="0" name="ogonek"/>
	<anchor x="365" y="700" name="top"/>
	<anchor x="710" y="700" name="topright"/>
	<outline>
		<contour>
			<point x="365" y="-13" type="curve" smooth="yes"/>
			<point x="554" y="-13"/>
			<point x="670" y="85"/>
			<point x="670" y="280" type="curve" smooth="yes" name="at02"/>
			<point x="670" y="700" type="line"/>
			<point x="490" y="700" type="line" name="sv01"/>
			<point x="490" y="300" type="line" smooth="yes"/>
			<point x="490" y="193"/>
			<point x="460" y="137" name="at01"/>
			<point x="365" y="137" type="curve" smooth="yes"/>
			<point x="273" y="137" name="ih01"/>
			<point x="240" y="193" name="ih02"/>
			<point x="240" y="301" type="curve" smooth="yes" name="ih03"/>
			<point x="240" y="700" type="line"/>
			<point x="60" y="700" type="line"/>
			<point x="60" y="280" type="line" smooth="yes"/>
			<point x="60" y="85"/>
			<point x="178" y="-13"/>
		</contour>
	</outline>
</glyph>
<glyph name="V" format="2">
	<advance width="710" height="0"/>
	<unicode hex="0056"/>
	<anchor x="355" y="0" name="bottom"/>
	<anchor x="355" y="700" name="top"/>
	<outline>
		<contour>
			<point x="270" y="0" type="line"/>
			<point x="450" y="0" type="line" name="ab01"/>
			<point x="700" y="700" type="line"/>
			<point x="520" y="700" type="line" name="at02"/>
			<point x="368" y="230" type="line" name="ih01"/>
			<point x="210" y="700" type="line"/>
			<point x="10" y="700" type="line" name="at01"/>
		</contour>
	</outline>
</glyph>
<glyph name="W" format="2">
	<advance width="1000" height="0"/>
	<unicode hex="0057"/>
	<anchor x="500" y="0" name="bottom"/>
	<anchor x="500" y="700" name="top"/>
	<outline>
		<contour>
			<point x="200" y="0" type="line"/>
			<point x="380" y="0" type="line" name="ab02"/>
			<point x="495" y="452" type="line" name="ih01"/>
			<point x="620" y="0" type="line"/>
			<point x="800" y="0" type="line" name="ab01"/>
			<point x="980" y="700" type="line"/>
			<point x="810" y="700" type="line" name="at03"/>
			<point x="708" y="264" type="line" name="iv02"/>
			<point x="585" y="700" type="line"/>
			<point x="415" y="700" type="line" name="at02"/>
			<point x="305" y="266" type="line" name="iv01"/>
			<point x="210" y="700" type="line"/>
			<point x="20" y="700" type="line" name="at01"/>
		</contour>
	</outline>
</glyph>
<glyph name="X" format="2">
	<advance width="720" height="0"/>
	<unicode hex="0058"/>
	<anchor x="360" y="0" name="bottom"/>
	<anchor x="360" y="700" name="top"/>
	<outline>
		<contour>
			<point x="15" y="0" type="line"/>
			<point x="212" y="0" type="line" name="ab02"/>
			<point x="358" y="245" type="line" name="iv01"/>
			<point x="504" y="0" type="line"/>
			<point x="705" y="0" type="line" name="ab01"/>
			<point x="478" y="367" type="line"/>
			<point x="695" y="700" type="line"/>
			<point x="500" y="700" type="line" name="at02"/>
			<point x="361" y="488" type="line" name="ih01"/>
			<point x="224" y="700" type="line"/>
			<point x="25" y="700" type="line" name="at01"/>
			<point x="243" y="365" type="line"/>
		</contour>
	</outline>
</glyph>
<glyph name="Y" format="2">
	<advance width="700" height="0"/>
	<unicode hex="0059"/>
	<anchor x="350" y="0" name="bottom"/>
	<anchor x="350" y="700" name="top"/>
	<anchor x="20" y="700" name="topleft"/>
	<outline>
		<contour>
			<point x="270" y="0" type="line"/>
			<point x="450" y="0" type="line" name="ab01"/>
			<point x="450" y="262" type="line"/>
			<point x="690" y="700" type="line"/>
			<point x="502" y="700" type="line" name="at02"/>
			<point x="364" y="440" type="line" name="ih01"/>
			<point x="218" y="700" type="line"/>
			<point x="10" y="700" type="line" name="at01"/>
			<point x="270" y="262" type="line"/>
		</contour>
	</outline>
</glyph>
<glyph name="Z" format="2">
	<advance width="630" height="0"/>
	<unicode hex="005A"/>
	<anchor x="315" y="0" name="bottom"/>
	<anchor x="315" y="350" name="center"/>
	<anchor x="315" y="700" name="top"/>
	<outline>
		<contour>
			<point x="30" y="0" type="line"/>
			<point x="600" y="0" type="line" name="ab01"/>
			<point x="600" y="148" type="line"/>
			<point x="250" y="148" type="line" name="sv01"/>
			<point x="590" y="572" type="line" name="sv03"/>
			<point x="590" y="700" type="line"/>
			<point x="35" y="700" type="line" name="at01"/>
			<point x="35" y="552" type="line"/>
			<point x="370" y="552" type="line" name="ih01"/>
			<point x="30" y="128" type="line" name="sv02"/>
		</contour>
	</outline>
</glyph>
<glyph name="bracketleft" format="2">
	<advance width="380" height="0"/>
	<unicode hex="005B"/>
	<outline>
		<contour>
			<point x="100" y="-200" type="line"/>
			<point x="340" y="-200" type="line" name="ab01"/>
			<point x="340" y="-94" type="line" name="hr02"/>
			<point x="234" y="-94" type="line" name="sv02"/>
			<point x="234" y="594" type="line" name="hr01"/>
			<point x="340" y="594" type="line" name="sv01"/>
			<point x="340" y="700" type="line"/>
			<point x="100" y="700" type="line" name="at01"/>
		</contour>
	</outline>
</glyph>
<glyph name="asciicircum" format="2">
	<advance width="580" height="0"/>
	<unicode hex="005E"/>
	<outline>
		<contour>
			<point x="30" y="440" type="line"/>
			<point x="200" y="440" type="line" name="sv01"/>
			<point x="285" y="570" type="line" name="ih01"/>
			<point x="370" y="440" type="line"/>
			<point x="550" y="440" type="line" name="iv01"/>
			<point x="367" y="700" type="line"/>
			<point x="213" y="700" type="line" name="at01"/>
		</contour>
	</outline>
</glyph>
<glyph name="a" format="2">
	<advance width="580" height="0"/>
	<unicode hex="0061"/>
	<anchor x="290" y="0" name="bottom"/>
	<anchor x="543" y="0" name="ogonek"/>
	<anchor x="300" y="530" name="top"/>
	<outline>
		<contour>
			<point x="215" y="-13" type="curve" smooth="yes"/>
			<point x="306" y="-13"/>
			<point x="360" y="19"/>
			<point x="392" y="62" type="curve"/>
			<point x="392" y="37"/>
			<point x="394" y="23"/>
			<point x="397" y="0" type="curve" name="hr01"/>
			<point x="543" y="0" type="line"/>
			<point x="538" y="40"/>
			<point x="535" y="79"/>
			<point x="535" y="135" type="curve" smooth="yes"/>
			<point x="535" y="330" type="line" smooth="yes"/>
			<point x="535" y="485"/>
			<point x="440" y="543"/>
			<point x="300" y="543" type="curve" smooth="yes"/>
			<point x="151" y="543"/>
			<point x="70" y="470"/>
			<point x="65" y="375" type="curve"/>
			<point x="219" y="375" type="line"/>
			<point x="222" y="410"/>
			<point x="244" y="425" name="hr02"/>
			<point x="295" y="425" type="curve" smooth="yes"/>
			<point x="348" y="425"/>
			<point x="381" y="404"/>
			<point x="381" y="340" type="curve" smooth="yes"/>
			<point x="381" y="318" type="line"/>
			<point x="230" y="318" type="line" smooth="yes" name="hr01"/>
			<point x="99" y="318"/>
			<point x="35" y="260"/>
			<point x="35" y="155" type="curve" smooth="yes"/>
			<point x="35" y="60"/>
			<point x="100" y="-13"/>
		</contour>
		<contour>
			<point x="265" y="95" type="curve" smooth="yes"/>
			<point x="213" y="95"/>
			<point x="193" y="123"/>
			<point x="193" y="162" type="curve" smooth="yes"/>
			<point x="193" y="194"/>
			<point x="215" y="222"/>
			<point x="260" y="222" type="curve" smooth="yes"/>
			<point x="381" y="222" type="line"/>
			<point x="381" y="200" type="line" smooth="yes"/>
			<point x="381" y="135"/>
			<point x="330" y="95"/>
		</contour>
	</outline>
</glyph>
<glyph name="c" format="2">
	<advance width="575" height="0"/>
	<unicode hex="0063"/>
	<anchor x="288" y="0" name="bottom"/>
	<anchor x="288" y="530" name="top"/>
	<outline>
		<contour>
			<point x="300" y="-13" type="curve" smooth="yes"/>
			<point x="446" y="-13"/>
			<point x="542" y="65" name="iv02"/>
			<point x="550" y="190" type="curve" name="sv02"/>
			<point x="392" y="190" type="line"/>
			<point x="381" y="141"/>
			<point x="347" y="116" name="sv01"/>
			<point x="300" y="116" type="curve" smooth="yes" name="iv01"/>
			<point x="232" y="116"/>
			<point x="188" y="161" name="at01"/>
			<point x="188" y="260" type="curve" smooth="yes"/>
			<point x="188" y="280" type="line" smooth="yes"/>
			<point x="188" y="371" name="ih01"/>
			<point x="235" y="415" name="ih02"/>
			<point x="300" y="415" type="curve" smooth="yes" name="ih03"/>
			<point x="355" y="415"/>
			<point x="381" y="388"/>
			<point x="392" y="340" type="curve" name="hr02"/>
			<point x="550" y="340" type="line"/>
			<point x="542" y="452"/>
			<point x="460" y="543"/>
			<point x="300" y="543" type="curve" smooth="yes"/>
			<point x="152" y="543"/>
			<point x="30" y="448"/>
			<point x="30" y="280" type="curve" smooth="yes"/>
			<point x="30" y="260" type="line" smooth="yes"/>
			<point x="30" y="77"/>
			<point x="143" y="-13"/>
		</contour>
	</outline>
</glyph>
<glyph name="d" format="2">
	<advance width="615" height="0"/>
	<unicode hex="0064"/>
	<anchor x="308" y="0" name="bottom"/>
	<anchor x="308" y="265" name="center"/>
	<anchor x="308" y="774" name="top"/>
	<anchor x="625" y="700" name="topright"/>
	<outline>
		<contour>
			<point x="258" y="-13" type="curve" smooth="yes"/>
			<point x="339" y="-13"/>
			<point x="396" y="29"/>
			<point x="423" y="72" type="curve"/>
			<point x="423" y="0" type="line" name="hr01"/>
			<point x="565" y="0" type="line"/>
			<point x="565" y="700" type="line"/>
			<point x="411" y="700" type="line" name="hr02"/>
			<point x="411" y="463" type="line" name="hr01"/>
			<point x="375" y="515"/>
			<point x="318" y="543"/>
			<point x="258" y="543" type="curve" smooth="yes"/>
			<point x="113" y="543"/>
			<point x="30" y="451"/>
			<point x="30" y="280" type="curve" smooth="yes"/>
			<point x="30" y="260" type="line" smooth="yes"/>
			<point x="30" y="80"/>
			<point x="119" y="-13"/>
		</contour>
		<contour>
			<point x="295" y="114" type="curve" smooth="yes"/>
			<point x="234" y="114"/>
			<point x="188" y="164"/>
			<point x="188" y="260" type="curve" smooth="yes"/>
			<point x="188" y="280" type="line" smooth="yes"/>
			<point x="188" y="372"/>
			<point x="231" y="416"/>
			<point x="295" y="416" type="curve" smooth="yes"/>
			<point x="360" y="416"/>
			<point x="411" y="375"/>
			<point x="411" y="295" type="curve" smooth="yes"/>
			<point x="411" y="245" type="line" smooth="yes"/>
			<point x="411" y="161"/>
			<point x="360" y="114"/>
		</contour>
	</outline>
</glyph>
<glyph name="e" format="2">
	<advance width="590" height="0"/>
	<unicode hex="0065"/>
	<anchor x="295" y="0" name="bottom"/>
	<anchor x="408" y="0" name="ogonek"/>
	<anchor x="295" y="530" name="top"/>
	<outline>
		<contour>
			<point x="305" y="-13" type="curve" smooth="yes"/>
			<point x="442" y="-13"/>
			<point x="529" y="44" name="iv02"/>
			<point x="550" y="160" type="curve" name="sv02"/>
			<point x="408" y="160" type="line"/>
			<point x="397" y="129" name="sv01"/>
			<point x="364" y="110" name="hr01"/>
			<point x="305" y="110" type="curve" smooth="yes" name="ih01"/>
			<point x="245" y="110"/>
			<point x="191" y="143"/>
			<point x="188" y="225" type="curve" name="ab01"/>
			<point x="560" y="225" type="line"/>
			<point x="560" y="280" type="line" smooth="yes" name="iv01"/>
			<point x="560" y="451"/>
			<point x="470" y="543" name="sh01"/>
			<point x="295" y="543" type="curve" smooth="yes" name="ih02"/>
			<point x="146" y="543" name="ih03"/>
			<point x="30" y="455"/>
			<point x="30" y="280" type="curve" smooth="yes"/>
			<point x="30" y="260" type="line" smooth="yes"/>
			<point x="30" y="75"/>
			<point x="149" y="-13"/>
		</contour>
		<contour>
			<point x="300" y="421" type="curve" smooth="yes"/>
			<point x="359" y="421"/>
			<point x="409" y="400"/>
			<point x="409" y="326" type="curve"/>
			<point x="189" y="326" type="line"/>
			<point x="192" y="395"/>
			<point x="244" y="421"/>
		</contour>
	</outline>
</glyph>
<glyph name="f" format="2">
	<advance width="365" height="0"/>
	<unicode hex="0066"/>
	<anchor x="183" y="0" name="bottom"/>
	<anchor x="183" y="774" name="top"/>
	<outline>
		<contour>
			<point x="80" y="0" type="line"/>
			<point x="234" y="0" type="line"/>
			<point x="234" y="404" type="line"/>
			<point x="350" y="404" type="line"/>
			<point x="350" y="530" type="line"/>
			<point x="234" y="530" type="line"/>
			<point x="234" y="540" type="line" smooth="yes"/>
			<point x="234" y="563"/>
			<point x="248" y="578"/>
			<point x="295" y="578" type="curve" smooth="yes"/>
			<point x="315" y="578"/>
			<point x="340" y="578"/>
			<point x="360" y="575" type="curve"/>
			<point x="360" y="703" type="line"/>
			<point x="340" y="706"/>
			<point x="305" y="706"/>
			<point x="285" y="706" type="curve" smooth="yes"/>
			<point x="129" y="706"/>
			<point x="80" y="651"/>
			<point x="80" y="555" type="curve" smooth="yes"/>
			<point x="80" y="530" type="line"/>
			<point x="20" y="530" type="line"/>
			<point x="20" y="404" type="line"/>
			<point x="80" y="404" type="line"/>
		</contour>
	</outline>
</glyph>
<glyph name="g" format="2">
	<advance width="615" height="0"/>
	<unicode hex="0067"/>
	<anchor x="308" y="-226" name="bottom"/>
	<anchor x="308" y="530" name="top"/>
	<outline>
		<contour>
			<point x="290" y="-213" type="curve" smooth="yes"/>
			<point x="479" y="-213"/>
			<point x="565" y="-130"/>
			<point x="565" y="35" type="curve" smooth="yes"/>
			<point x="565" y="530" type="line"/>
			<point x="423" y="530" type="line" name="hr01"/>
			<point x="423" y="458" type="line"/>
			<point x="396" y="501"/>
			<point x="340" y="543" name="hr02"/>
			<point x="258" y="543" type="curve" smooth="yes"/>
			<point x="117" y="543"/>
			<point x="30" y="453"/>
			<point x="30" y="285" type="curve" smooth="yes"/>
			<point x="30" y="265" type="line" smooth="yes"/>
			<point x="30" y="87"/>
			<point x="119" y="-3"/>
			<point x="258" y="-3" type="curve" smooth="yes"/>
			<point x="318" y="-3"/>
			<point x="375" y="25"/>
			<point x="411" y="77" type="curve"/>
			<point x="411" y="20" type="line" smooth="yes"/>
			<point x="411" y="-60"/>
			<point x="370" y="-95"/>
			<point x="290" y="-95" type="curve" smooth="yes"/>
			<point x="232" y="-95"/>
			<point x="214" y="-69"/>
			<point x="206" y="-45" type="curve" name="hr03"/>
			<point x="50" y="-45" type="line"/>
			<point x="58" y="-148"/>
			<point x="117" y="-213"/>
		</contour>
		<contour>
			<point x="295" y="124" type="curve" smooth="yes"/>
			<point x="234" y="124"/>
			<point x="188" y="173"/>
			<point x="188" y="265" type="curve" smooth="yes"/>
			<point x="188" y="285" type="line" smooth="yes"/>
			<point x="188" y="373"/>
			<point x="231" y="416"/>
			<point x="295" y="416" type="curve" smooth="yes"/>
			<point x="360" y="416"/>
			<point x="411" y="375"/>
			<point x="411" y="300" type="curve" smooth="yes"/>
			<point x="411" y="250" type="line" smooth="yes"/>
			<point x="411" y="171"/>
			<point x="360" y="124"/>
		</contour>
	</outline>
</glyph>
<glyph name="l" format="2">
	<advance width="335" height="0"/>
	<unicode hex="006C"/>
	<anchor x="168" y="0" name="bottom"/>
	<anchor x="168" y="387" name="center"/>
	<anchor x="132" y="700" name="top"/>
	<anchor x="269" y="700" name="topright"/>
	<outline>
		<contour>
			<point x="240" y="-6" type="curve" smooth="yes"/>
			<point x="270" y="-6"/>
			<point x="295" y="-5"/>
			<point x="315" y="-3" type="curve"/>
			<point x="315" y="124" type="line"/>
			<point x="304" y="123"/>
			<point x="295" y="122"/>
			<point x="279" y="122" type="curve" smooth="yes"/>
			<point x="222" y="122"/>
			<point x="209" y="143"/>
			<point x="209" y="210" type="curve" smooth="yes"/>
			<point x="209" y="700" type="line"/>
			<point x="55" y="700" type="line"/>
			<point x="55" y="187" type="line" smooth="yes"/>
			<point x="55" y="30"/>
			<point x="112" y="-6"/>
		</contour>
	</outline>
</glyph>
<glyph name="o" format="2">
	<advance width="600" height="0"/>
	<unicode hex="006F"/>
	<anchor x="300" y="0" name="bottom"/>
	<anchor x="300" y="265" name="center"/>
	<anchor x="540" y="10" name="ogonek"/>
	<anchor x="300" y="530" name="top"/>
	<anchor x="580" y="530" name="topright"/>
	<outline>
		<contour>
			<point x="300" y="-13" type="curve" smooth="yes"/>
			<point x="449" y="-13"/>
			<point x="570" y="78"/>
			<point x="570" y="260" type="curve" smooth="yes" name="at01"/>
			<point x="570" y="280" type="line" smooth="yes"/>
			<point x="570" y="452"/>
			<point x="449" y="543" name="ih01"/>
			<point x="300" y="543" type="curve" smooth="yes"/>
			<point x="151" y="543"/>
			<point x="30" y="452"/>
			<point x="30" y="280" type="curve" smooth="yes" name="sv01"/>
			<point x="30" y="260" type="line" smooth="yes"/>
			<point x="30" y="75"/>
			<point x="151" y="-13" name="sh01"/>
		</contour>
		<contour>
			<point x="300" y="115" type="curve" smooth="yes" name="ih03"/>
			<point x="228" y="115"/>
			<point x="188" y="168"/>
			<point x="188" y="260" type="curve" smooth="yes"/>
			<point x="188" y="280" type="line" smooth="yes"/>
			<point x="188" y="360"/>
			<point x="228" y="415"/>
			<point x="300" y="415" type="curve" smooth="yes"/>
			<point x="372" y="415"/>
			<point x="412" y="360"/>
			<point x="412" y="280" type="curve" smooth="yes"/>
			<point x="412" y="260" type="line" smooth="yes"/>
			<point x="412" y="171"/>
			<point x="372" y="115"/>
		</contour>
	</outline>
</glyph>
<glyph name="q" format="2">
	<advance width="615" height="0"/>
	<unicode hex="0071"/>
	<anchor x="308" y="0" name="bottom"/>
	<anchor x="308" y="530" name="top"/>
	<outline>
		<contour>
			<point x="411" y="-200" type="line"/>
			<point x="565" y="-200" type="line"/>
			<point x="565" y="530" type="line"/>
			<point x="423" y="530" type="line" name="hr01"/>
			<point x="423" y="458" type="line"/>
			<point x="396" y="501"/>
			<point x="339" y="543" name="hr02"/>
			<point x="258" y="543" type="curve" smooth="yes" name="hr01"/>
			<point x="113" y="543"/>
			<point x="30" y="451"/>
			<point x="30" y="280" type="curve" smooth="yes"/>
			<point x="30" y="260" type="line" smooth="yes"/>
			<point x="30" y="80"/>
			<point x="119" y="-13"/>
			<point x="258" y="-13" type="curve" smooth="yes"/>
			<point x="318" y="-13"/>
			<point x="375" y="15"/>
			<point x="411" y="67" type="curve"/>
		</contour>
		<contour>
			<point x="295" y="114" type="curve" smooth="yes"/>
			<point x="234" y="114"/>
			<point x="188" y="164"/>
			<point x="188" y="260" type="curve" smooth="yes"/>
			<point x="188" y="280" type="line" smooth="yes"/>
			<point x="188" y="372"/>
			<point x="231" y="416"/>
			<point x="295" y="416" type="curve" smooth="yes"/>
			<point x="360" y="416"/>
			<point x="411" y="375"/>
			<point x="411" y="295" type="curve" smooth="yes"/>
			<point x="411" y="245" type="line" smooth="yes"/>
			<point x="411" y="161"/>
			<point x="360" y="114"/>
		</contour>
	</outline>
</glyph>
<glyph name="r" format="2">
	<advance width="390" height="0"/>
	<unicode hex="0072"/>
	<anchor x="127" y="0" name="bottom"/>
	<anchor x="195" y="530" name="top"/>
	<outline>
		<contour>
			<point x="50" y="0" type="line"/>
			<point x="204" y="0" type="line" name="ab01"/>
			<point x="204" y="309" type="line" smooth="yes"/>
			<point x="204" y="368" name="sv01"/>
			<point x="234" y="415"/>
			<point x="305" y="415" type="curve" smooth="yes"/>
			<point x="337" y="415" name="at01"/>
			<point x="363" y="408" name="iv01"/>
			<point x="370" y="404" type="curve" name="ih01"/>
			<point x="370" y="537" type="line" name="at02"/>
			<point x="359" y="540" name="ih02"/>
			<point x="348" y="543" name="ih03"/>
			<point x="325" y="543" type="curve" smooth="yes" name="hr01"/>
			<point x="259" y="543"/>
			<point x="208" y="494"/>
			<point x="192" y="458" type="curve"/>
			<point x="192" y="530" type="line" name="hr02"/>
			<point x="50" y="530" type="line"/>
		</contour>
	</outline>
</glyph>
<glyph name="t" format="2">
	<advance width="400" height="0"/>
	<unicode hex="0074"/>
	<anchor x="200" y="0" name="bottom"/>
	<anchor x="200" y="265" name="center"/>
	<anchor x="200" y="530" name="top"/>
	<anchor x="278" y="831" name="topright"/>
	<outline>
		<contour>
			<point x="275" y="-6" type="curve" smooth="yes"/>
			<point x="320" y="-6"/>
			<point x="345" y="-4"/>
			<point x="370" y="-1" type="curve"/>
			<point x="370" y="125" type="line"/>
			<point x="350" y="123"/>
			<point x="330" y="122"/>
			<point x="310" y="122" type="curve" smooth="yes"/>
			<point x="254" y="122"/>
			<point x="239" y="145"/>
			<point x="239" y="205" type="curve" smooth="yes"/>
			<point x="239" y="404" type="line"/>
			<point x="360" y="404" type="line"/>
			<point x="360" y="530" type="line"/>
			<point x="239" y="530" type="line"/>
			<point x="239" y="650" type="line"/>
			<point x="85" y="650" type="line"/>
			<point x="85" y="530" type="line"/>
			<point x="20" y="530" type="line"/>
			<point x="20" y="404" type="line"/>
			<point x="85" y="404" type="line"/>
			<point x="85" y="180" type="line" smooth="yes"/>
			<point x="85" y="41"/>
			<point x="142" y="-6"/>
		</contour>
	</outline>
</glyph>
<glyph name="u" format="2">
	<advance width="595" height="0"/>
	<unicode hex="0075"/>
	<anchor x="298" y="0" name="bottom"/>
	<anchor x="545" y="0" name="ogonek"/>
	<anchor x="298" y="530" name="top"/>
	<anchor x="575" y="530" name="topright"/>
	<outline>
		<contour>
			<point x="232" y="-13" type="curve" smooth="yes" name="ih01"/>
			<point x="319" y="-13" name="iv01"/>
			<point x="376" y="25"/>
			<point x="403" y="72" type="curve" name="ab02"/>
			<point x="403" y="0" type="line" name="hr01"/>
			<point x="545" y="0" type="line" name="at02"/>
			<point x="545" y="530" type="line"/>
			<point x="391" y="530" type="line" name="sv01"/>
			<point x="391" y="221" type="line" smooth="yes"/>
			<point x="391" y="161"/>
			<point x="359" y="115" name="at01"/>
			<point x="290" y="115" type="curve" smooth="yes"/>
			<point x="226" y="115" name="ab01"/>
			<point x="199" y="152" name="ih02"/>
			<point x="199" y="221" type="curve" smooth="yes" name="ih03"/>
			<point x="199" y="530" type="line" name="hr01"/>
			<point x="45" y="530" type="line"/>
			<point x="45" y="197" type="line" smooth="yes"/>
			<point x="45" y="56"/>
			<point x="111" y="-13"/>
		</contour>
	</outline>
</glyph>
<glyph name="v" format="2">
	<advance width="600" height="0"/>
	<unicode hex="0076"/>
	<anchor x="300" y="0" name="bottom"/>
	<anchor x="300" y="530" name="top"/>
	<outline>
		<contour>
			<point x="233" y="0" type="line"/>
			<point x="387" y="0" type="line" name="ab01"/>
			<point x="590" y="530" type="line"/>
			<point x="436" y="530" type="line" name="at02"/>
			<point x="314" y="177" type="line" name="ih01"/>
			<point x="180" y="530" type="line"/>
			<point x="10" y="530" type="line" name="at01"/>
		</contour>
	</outline>
</glyph>
<glyph name="w" format="2">
	<advance width="830" height="0"/>
	<unicode hex="0077"/>
	<anchor x="415" y="0" name="bottom"/>
	<anchor x="415" y="530" name="top"/>
	<outline>
		<contour>
			<point x="158" y="0" type="line"/>
			<point x="312" y="0" type="line" name="ab02"/>
			<point x="414" y="344" type="line" name="ih01"/>
			<point x="518" y="0" type="line"/>
			<point x="672" y="0" type="line" name="ab01"/>
			<point x="820" y="530" type="line"/>
			<point x="670" y="530" type="line" name="at03"/>
			<point x="587" y="207" type="line" name="iv02"/>
			<point x="487" y="530" type="line"/>
			<point x="343" y="530" type="line" name="at02"/>
			<point x="250" y="204" type="line" name="iv01"/>
			<point x="176" y="530" type="line"/>
			<point x="10" y="530" type="line" name="at01"/>
		</contour>
	</outline>
</glyph>
<glyph name="x" format="2">
	<advance width="580" height="0"/>
	<unicode hex="0078"/>
	<anchor x="290" y="0" name="bottom"/>
	<anchor x="290" y="530" name="top"/>
	<outline>
		<contour>
			<point x="10" y="0" type="line"/>
			<point x="177" y="0" type="line" name="ab02"/>
			<point x="288" y="189" type="line" name="ih01"/>
			<point x="399" y="0" type="line"/>
			<point x="570" y="0" type="line" name="ab01"/>
			<point x="402" y="281" type="line"/>
			<point x="560" y="530" type="line"/>
			<point x="394" y="530" type="line" name="at02"/>
			<point x="294" y="368" type="line" name="iv01"/>
			<point x="190" y="530" type="line"/>
			<point x="20" y="530" type="line" name="at01"/>
			<point x="179" y="276" type="line"/>
		</contour>
	</outline>
</glyph>
<glyph name="y" format="2">
	<advance width="600" height="0"/>
	<unicode hex="0079"/>
	<anchor x="300" y="0" name="bottom"/>
	<anchor x="300" y="530" name="top"/>
	<outline>
		<contour>
			<point x="155" y="-213" type="curve" smooth="yes"/>
			<point x="290" y="-213"/>
			<point x="328" y="-150"/>
			<point x="387" y="0" type="curve" smooth="yes" name="at02"/>
			<point x="590" y="530" type="line" name="ih01"/>
			<point x="437" y="530" type="line"/>
			<point x="312" y="177" type="line" name="at01"/>
			<point x="180" y="530" type="line" name="ab02"/>
			<point x="10" y="530" type="line" name="sv01"/>
			<point x="234" y="1" type="line"/>
			<point x="210" y="-62"/>
			<point x="194" y="-85" name="ab01"/>
			<point x="155" y="-85" type="curve" smooth="yes" name="ih02"/>
			<point x="145" y="-85" name="ih03"/>
			<point x="135" y="-84"/>
			<point x="125" y="-82" type="curve"/>
			<point x="125" y="-210" type="line"/>
			<point x="135" y="-212"/>
			<point x="145" y="-213"/>
		</contour>
	</outline>
</glyph>
<glyph name="z" format="2">
	<advance width="510" height="0"/>
	<unicode hex="007A"/>
	<anchor x="255" y="0" name="bottom"/>
	<anchor x="255" y="265" name="center"/>
	<anchor x="255" y="530" name="top"/>
	<outline>
		<contour>
			<point x="25" y="0" type="line"/>
			<point x="485" y="0" type="line" name="ab01"/>
			<point x="485" y="126" type="line"/>
			<point x="221" y="126" type="line" name="sv01"/>
			<point x="475" y="425" type="line" name="sv03"/>
			<point x="475" y="530" type="line"/>
			<point x="35" y="530" type="line" name="at01"/>
			<point x="35" y="404" type="line"/>
			<point x="279" y="404" type="line" name="ih01"/>
			<point x="25" y="106" type="line" name="sv02"/>
		</contour>
	</outline>
</glyph>
<glyph name="bar" format="2">
	<advance width="340" height="0"/>
	<unicode hex="007C"/>
	<outline>
		<contour>
			<point x="103" y="-200" type="line"/>
			<point x="237" y="-200" type="line" name="ab01"/>
			<point x="237" y="700" type="line"/>
			<point x="103" y="700" type="line" name="ih01"/>
		</contour>
	</outline>
</glyph>
<glyph name="braceright" format="2">
	<advance width="380" height="0"/>
	<unicode hex="007D"/>
	<outline>
		<contour>
			<point x="30" y="700" type="line"/>
			<point x="30" y="594" type="line"/>
			<point x="70" y="594" type="line" smooth="yes" name="sv03"/>
			<point x="117" y="594"/>
			<point x="136" y="575"/>
			<point x="136" y="528" type="curve" smooth="yes" name="ih01"/>
			<point x="136" y="320" type="line" smooth="yes"/>
			<point x="136" y="280"/>
			<point x="155" y="261"/>
			<point x="186" y="250" type="curve" name="sv02"/>
			<point x="155" y="239"/>
			<point x="136" y="220" name="at01"/>
			<point x="136" y="180" type="curve" smooth="yes"/>
			<point x="136" y="-28" type="line" smooth="yes" name="hr03"/>
			<point x="136" y="-75" name="iv01"/>
			<point x="117" y="-94" name="sv01"/>
			<point x="70" y="-94" type="curve" smooth="yes"/>
			<point x="30" y="-94" type="line"/>
			<point x="30" y="-200" type="line" name="hr02"/>
			<point x="100" y="-200" type="line" smooth="yes" name="ih02"/>
			<point x="205" y="-200" name="ih03"/>
			<point x="270" y="-135"/>
			<point x="270" y="-30" type="curve" smooth="yes"/>
			<point x="270" y="147" type="line" smooth="yes"/>
			<point x="270" y="176"/>
			<point x="289" y="197"/>
			<point x="320" y="197" type="curve" name="hr01"/>
			<point x="320" y="303" type="line"/>
			<point x="289" y="303"/>
			<point x="270" y="322" name="hr02"/>
			<point x="270" y="353" type="curve" smooth="yes"/>
			<point x="270" y="530" type="line" smooth="yes" name="hr01"/>
			<point x="270" y="635"/>
			<point x="205" y="700"/>
			<point x="100" y="700" type="curve" smooth="yes"/>
		</contour>
	</outline>
</glyph>
<glyph name="asciitilde" format="2">
	<advance width="580" height="0"/>
	<unicode hex="007E"/>
	<outline>
		<contour>
			<point x="385" y="248" type="curve" smooth="yes"/>
			<point x="445" y="248"/>
			<point x="487" y="281"/>
			<point x="515" y="316" type="curve" smooth="yes"/>
			<point x="531" y="336"/>
			<point x="544" y="359"/>
			<point x="555" y="385" type="curve"/>
			<point x="452" y="457" type="line"/>
			<point x="447" y="446"/>
			<point x="442" y="436"/>
			<point x="435" y="427" type="curve"/>
			<point x="424" y="412"/>
			<point x="409" y="398"/>
			<point x="390" y="398" type="curve" smooth="yes"/>
			<point x="329" y="398"/>
			<point x="285" y="472" name="hr01"/>
			<point x="195" y="472" type="curve" smooth="yes"/>
			<point x="135" y="472"/>
			<point x="92" y="438"/>
			<point x="65" y="403" type="curve"/>
			<point x="48" y="383"/>
			<point x="35" y="360"/>
			<point x="25" y="335" type="curve"/>
			<point x="128" y="263" type="line"/>
			<point x="133" y="274"/>
			<point x="138" y="283"/>
			<point x="145" y="292" type="curve"/>
			<point x="156" y="307"/>
			<point x="171" y="322"/>
			<point x="190" y="322" type="curve" smooth="yes"/>
			<point x="250" y="322"/>
			<point x="295" y="248" name="hr02"/>
		</contour>
	</outline>
</glyph>
<glyph name="exclamdown" format="2">
	<advance width="320" height="0"/>
	<unicode hex="00A1"/>
	<outline>
		<contour>
			<point x="83" y="-200" type="line"/>
			<point x="237" y="-200" type="line" name="ab01"/>
			<point x="237" y="290" type="line"/>
			<point x="83" y="290" type="line" name="sh01"/>
		</contour>
		<contour>
			<point x="160" y="353" type="curve" smooth="yes"/>
			<point x="213" y="353"/>
			<point x="255" y="395" name="at01"/>
			<point x="255" y="448" type="curve" smooth="yes"/>
			<point x="255" y="501" name="ih01"/>
			<point x="213" y="543" name="ih02"/>
			<point x="160" y="543" type="curve" smooth="yes" name="ih03"/>
			<point x="107" y="543"/>
			<point x="65" y="501"/>
			<point x="65" y="448" type="curve" smooth="yes"/>
			<point x="65" y="395"/>
			<point x="107" y="353"/>
		</contour>
	</outline>
</glyph>
<glyph name="cent" format="2">
	<advance width="575" height="0"/>
	<unicode hex="00A2"/>
	<outline>
		<contour>
			<point x="230" y="-120" type="line" name="sv05"/>
			<point x="370" y="-120" type="line"/>
			<point x="370" y="-6" type="line" name="sv04"/>
			<point x="477" y="15" name="iv02"/>
			<point x="542" y="86"/>
			<point x="550" y="190" type="curve" name="sv03"/>
			<point x="392" y="190" type="line"/>
			<point x="381" y="141"/>
			<point x="347" y="116" name="ih01"/>
			<point x="300" y="116" type="curve" smooth="yes"/>
			<point x="232" y="116" name="iv01"/>
			<point x="188" y="161" name="at01"/>
			<point x="188" y="260" type="curve" smooth="yes" name="sv02"/>
			<point x="188" y="280" type="line" smooth="yes"/>
			<point x="188" y="371" name="sv01"/>
			<point x="235" y="415"/>
			<point x="300" y="415" type="curve" smooth="yes"/>
			<point x="355" y="415" name="ab01"/>
			<point x="381" y="388" name="ih02"/>
			<point x="392" y="340" type="curve" name="ih03"/>
			<point x="550" y="340" type="line"/>
			<point x="543" y="435"/>
			<point x="485" y="513"/>
			<point x="370" y="536" type="curve" name="hr01"/>
			<point x="370" y="630" type="line" name="hr02"/>
			<point x="230" y="630" type="line"/>
			<point x="230" y="535" type="line"/>
			<point x="115" y="511"/>
			<point x="30" y="420"/>
			<point x="30" y="280" type="curve" smooth="yes"/>
			<point x="30" y="260" type="line" smooth="yes"/>
			<point x="30" y="105"/>
			<point x="111" y="18"/>
			<point x="230" y="-6" type="curve"/>
		</contour>
	</outline>
</glyph>
<glyph name="sterling" format="2">
	<advance width="660" height="0"/>
	<unicode hex="00A3"/>
	<outline>
		<contour>
			<point x="45" y="0" type="line"/>
			<point x="615" y="0" type="line"/>
			<point x="615" y="148" type="line"/>
			<point x="315" y="148" type="line"/>
			<point x="315" y="281" type="line"/>
			<point x="470" y="281" type="line"/>
			<point x="470" y="399" type="line"/>
			<point x="315" y="399" type="line"/>
			<point x="315" y="500" type="line" smooth="yes"/>
			<point x="315" y="543"/>
			<point x="342" y="563"/>
			<point x="378" y="563" type="curve" smooth="yes"/>
			<point x="403" y="563"/>
			<point x="430" y="549"/>
			<point x="435" y="510" type="curve" name="hr01"/>
			<point x="615" y="510" type="line"/>
			<point x="610" y="637"/>
			<point x="535" y="713"/>
			<point x="378" y="713" type="curve" smooth="yes"/>
			<point x="218" y="713"/>
			<point x="135" y="635"/>
			<point x="135" y="500" type="curve" smooth="yes"/>
			<point x="135" y="399" type="line"/>
			<point x="55" y="399" type="line"/>
			<point x="55" y="281" type="line"/>
			<point x="135" y="281" type="line"/>
			<point x="135" y="148" type="line"/>
			<point x="45" y="148" type="line"/>
		</contour>
	</outline>
</glyph>
<glyph name="currency" format="2">
	<advance width="580" height="0"/>
	<unicode hex="00A4"/>
	<outline>
		<contour>
			<point x="124" y="105" type="line" name="sv05"/>
			<point x="186" y="167" type="line"/>
			<point x="217" y="150" name="av01"/>
			<point x="251" y="140"/>
			<point x="290" y="140" type="curve" smooth="yes" name="sv06"/>
			<point x="327" y="140"/>
			<point x="363" y="150" name="sv04"/>
			<point x="394" y="167" type="curve"/>
			<point x="456" y="105" type="line" name="sv03"/>
			<point x="545" y="194" type="line"/>
			<point x="483" y="256" type="line" name="sv02"/>
			<point x="500" y="287"/>
			<point x="510" y="321" name="ih01"/>
			<point x="510" y="360" type="curve" smooth="yes"/>
			<point x="510" y="397" name="sv01"/>
			<point x="500" y="433"/>
			<point x="483" y="464" type="curve" name="iv02"/>
			<point x="545" y="526" type="line"/>
			<point x="456" y="615" type="line" name="iv01"/>
			<point x="394" y="553" type="line"/>
			<point x="363" y="570"/>
			<point x="327" y="580"/>
			<point x="290" y="580" type="curve" smooth="yes" name="sv07"/>
			<point x="251" y="580"/>
			<point x="217" y="570" name="sh01"/>
			<point x="186" y="553" type="curve" name="ih02"/>
			<point x="124" y="615" type="line" name="ih03"/>
			<point x="35" y="526" type="line"/>
			<point x="97" y="464" type="line"/>
			<point x="80" y="433"/>
			<point x="70" y="397"/>
			<point x="70" y="360" type="curve" smooth="yes"/>
			<point x="70" y="321"/>
			<point x="80" y="287"/>
			<point x="97" y="256" type="curve"/>
			<point x="35" y="194" type="line"/>
		</contour>
		<contour>
			<point x="290" y="282" type="curve" smooth="yes"/>
			<point x="246" y="282"/>
			<point x="214" y="313"/>
			<point x="214" y="360" type="curve" smooth="yes"/>
			<point x="214" y="407"/>
			<point x="246" y="438"/>
			<point x="290" y="438" type="curve" smooth="yes"/>
			<point x="334" y="438"/>
			<point x="366" y="407"/>
			<point x="366" y="360" type="curve" smooth="yes"/>
			<point x="366" y="313"/>
			<point x="334" y="282"/>
		</contour>
	</outline>
</glyph>
<glyph name="yen" format="2">
	<advance width="660" height="0"/>
	<unicode hex="00A5"/>
	<outline>
		<contour>
			<point x="245" y="0" type="line"/>
			<point x="425" y="0" type="line" name="ab01"/>
			<point x="425" y="128" type="line"/>
			<point x="605" y="128" type="line" name="sv07"/>
			<point x="605" y="246" type="line"/>
			<point x="425" y="246" type="line" name="sv06"/>
			<point x="425" y="294" type="line"/>
			<point x="605" y="294" type="line" name="sv05"/>
			<point x="605" y="412" type="line"/>
			<point x="511" y="412" type="line" name="sv04"/>
			<point x="650" y="700" type="line"/>
			<point x="462" y="700" type="line" name="at02"/>
			<point x="339" y="412" type="line" name="ih01"/>
			<point x="218" y="700" type="line"/>
			<point x="10" y="700" type="line" name="at01"/>
			<point x="155" y="412" type="line" name="sv02"/>
			<point x="65" y="412" type="line"/>
			<point x="65" y="294" type="line"/>
			<point x="245" y="294" type="line" name="sv03"/>
			<point x="245" y="246" type="line" name="iv01"/>
			<point x="65" y="246" type="line"/>
			<point x="65" y="128" type="line"/>
			<point x="245" y="128" type="line" name="sv01"/>
		</contour>
	</outline>
</glyph>
<glyph name="section" format="2">
	<advance width="580" height="0"/>
	<unicode hex="00A7"/>
	<outline>
		<contour>
			<point x="290" y="-213" type="curve" smooth="yes"/>
			<point x="430" y="-213"/>
			<point x="505" y="-140" name="iv02"/>
			<point x="505" y="-50" type="curve" smooth="yes"/>
			<point x="505" y="2" name="sv04"/>
			<point x="484" y="47"/>
			<point x="437" y="78" type="curve" name="sv02"/>
			<point x="500" y="115"/>
			<point x="540" y="177" name="iv04"/>
			<point x="540" y="250" type="curve" smooth="yes" name="at01"/>
			<point x="540" y="335"/>
			<point x="485" y="405" name="iv03"/>
			<point x="404" y="438" type="curve" smooth="yes"/>
			<point x="284" y="489" name="sv03"/>
			<point x="261" y="503"/>
			<point x="261" y="535" type="curve" smooth="yes" name="sv01"/>
			<point x="261" y="551" name="iv01"/>
			<point x="271" y="563"/>
			<point x="290" y="563" type="curve" smooth="yes" name="ih01"/>
			<point x="309" y="563"/>
			<point x="319" y="552" name="hr02"/>
			<point x="319" y="530" type="curve" name="iv05"/>
			<point x="505" y="530" type="line"/>
			<point x="505" y="641" name="sh01"/>
			<point x="431" y="713" name="ih02"/>
			<point x="290" y="713" type="curve" smooth="yes" name="ih03"/>
			<point x="150" y="713"/>
			<point x="75" y="640"/>
			<point x="75" y="550" type="curve" smooth="yes"/>
			<point x="75" y="497"/>
			<point x="95" y="452"/>
			<point x="143" y="421" type="curve"/>
			<point x="80" y="384"/>
			<point x="40" y="323" name="hr03"/>
			<point x="40" y="250" type="curve" smooth="yes" name="hr02"/>
			<point x="40" y="158"/>
			<point x="104" y="89"/>
			<point x="192" y="56" type="curve" smooth="yes"/>
			<point x="299" y="16"/>
			<point x="319" y="-3"/>
			<point x="319" y="-35" type="curve" smooth="yes"/>
			<point x="319" y="-51"/>
			<point x="309" y="-63"/>
			<point x="290" y="-63" type="curve" smooth="yes" name="hr01"/>
			<point x="271" y="-63"/>
			<point x="261" y="-52" name="hr04"/>
			<point x="261" y="-30" type="curve"/>
			<point x="75" y="-30" type="line"/>
			<point x="75" y="-141"/>
			<point x="149" y="-213"/>
		</contour>
		<contour>
			<point x="290" y="190" type="curve" smooth="yes"/>
			<point x="255" y="190"/>
			<point x="226" y="215"/>
			<point x="226" y="250" type="curve" smooth="yes" name="hr05"/>
			<point x="226" y="285"/>
			<point x="255" y="310"/>
			<point x="290" y="310" type="curve" smooth="yes"/>
			<point x="325" y="310"/>
			<point x="354" y="285"/>
			<point x="354" y="250" type="curve" smooth="yes"/>
			<point x="354" y="215"/>
			<point x="325" y="190"/>
		</contour>
	</outline>
</glyph>
<glyph name="copyright" format="2">
	<advance width="850" height="0"/>
	<unicode hex="00A9"/>
	<outline>
		<contour>
			<point x="425" y="-28" type="curve" smooth="yes"/>
			<point x="640" y="-28"/>
			<point x="810" y="135" name="av01"/>
			<point x="810" y="350" type="curve" smooth="yes"/>
			<point x="810" y="566" name="ih01"/>
			<point x="640" y="728"/>
			<point x="425" y="728" type="curve" smooth="yes"/>
			<point x="209" y="728" name="sv01"/>
			<point x="40" y="566"/>
			<point x="40" y="350" type="curve" smooth="yes" name="sh01"/>
			<point x="40" y="135"/>
			<point x="209" y="-28" name="iv03"/>
		</contour>
		<contour>
			<point x="425" y="84" type="curve" smooth="yes" name="sv03"/>
			<point x="279" y="84"/>
			<point x="160" y="199"/>
			<point x="160" y="350" type="curve" smooth="yes" name="sv02"/>
			<point x="160" y="501"/>
			<point x="279" y="616" name="iv02"/>
			<point x="425" y="616" type="curve" smooth="yes" name="iv01"/>
			<point x="571" y="616"/>
			<point x="690" y="501"/>
			<point x="690" y="350" type="curve" smooth="yes" name="sh02"/>
			<point x="690" y="199" name="ih02"/>
			<point x="570" y="84" name="ih03"/>
		</contour>
		<contour>
			<point x="425" y="137" type="curve" smooth="yes"/>
			<point x="533" y="137"/>
			<point x="611" y="186"/>
			<point x="619" y="305" type="curve"/>
			<point x="483" y="305" type="line"/>
			<point x="476" y="264" name="hr01"/>
			<point x="457" y="243"/>
			<point x="425" y="243" type="curve" smooth="yes"/>
			<point x="390" y="243" name="hr02"/>
			<point x="356" y="268"/>
			<point x="356" y="345" type="curve" smooth="yes"/>
			<point x="356" y="355" type="line" smooth="yes"/>
			<point x="356" y="430"/>
			<point x="386" y="457"/>
			<point x="425" y="457" type="curve" smooth="yes"/>
			<point x="452" y="457"/>
			<point x="472" y="445"/>
			<point x="483" y="400" type="curve"/>
			<point x="619" y="400" type="line"/>
			<point x="611" y="517" name="hr03"/>
			<point x="529" y="563"/>
			<point x="425" y="563" type="curve" smooth="yes"/>
			<point x="308" y="563"/>
			<point x="220" y="483"/>
			<point x="220" y="355" type="curve" smooth="yes"/>
			<point x="220" y="345" type="line" smooth="yes"/>
			<point x="220" y="209"/>
			<point x="301" y="137"/>
		</contour>
	</outline>
</glyph>
<glyph name="logicalnot" format="2">
	<advance width="580" height="0"/>
	<unicode hex="00AC"/>
	<outline>
		<contour>
			<point x="391" y="120" type="line"/>
			<point x="545" y="120" type="line" name="iv01"/>
			<point x="545" y="434" type="line" name="av01"/>
			<point x="35" y="434" type="line"/>
			<point x="35" y="286" type="line"/>
			<point x="391" y="286" type="line" name="ih01"/>
		</contour>
	</outline>
</glyph>
<glyph name="registered" format="2">
	<advance width="630" height="0"/>
	<unicode hex="00AE"/>
	<outline>
		<contour>
			<point x="315" y="138" type="curve" smooth="yes"/>
			<point x="472" y="138"/>
			<point x="600" y="265" name="at01"/>
			<point x="600" y="425" type="curve" smooth="yes"/>
			<point x="600" y="585" name="ih01"/>
			<point x="472" y="713"/>
			<point x="315" y="713" type="curve" smooth="yes"/>
			<point x="158" y="713" name="sv01"/>
			<point x="30" y="585"/>
			<point x="30" y="425" type="curve" smooth="yes" name="sh01"/>
			<point x="30" y="265"/>
			<point x="158" y="138" name="iv01"/>
		</contour>
		<contour>
			<point x="315" y="219" type="curve" smooth="yes"/>
			<point x="203" y="219"/>
			<point x="116" y="306" name="sv04"/>
			<point x="116" y="425" type="curve" smooth="yes" name="sv03"/>
			<point x="116" y="543"/>
			<point x="203" y="632" name="sh02"/>
			<point x="315" y="632" type="curve" smooth="yes"/>
			<point x="427" y="632" name="iv02"/>
			<point x="514" y="543"/>
			<point x="514" y="425" type="curve" smooth="yes" name="sv05"/>
			<point x="514" y="306"/>
			<point x="427" y="219" name="sh03"/>
		</contour>
		<contour>
			<point x="195" y="275" type="line" name="ih03"/>
			<point x="289" y="275" type="line"/>
			<point x="289" y="375" type="line"/>
			<point x="310" y="375" type="line"/>
			<point x="340" y="275" type="line"/>
			<point x="440" y="275" type="line"/>
			<point x="395" y="386" type="line"/>
			<point x="434" y="400"/>
			<point x="454" y="429"/>
			<point x="454" y="474" type="curve" smooth="yes"/>
			<point x="454" y="539"/>
			<point x="419" y="575"/>
			<point x="315" y="575" type="curve" smooth="yes"/>
			<point x="195" y="575" type="line"/>
		</contour>
		<contour>
			<point x="289" y="445" type="line"/>
			<point x="289" y="503" type="line"/>
			<point x="311" y="503" type="line" smooth="yes"/>
			<point x="350" y="503"/>
			<point x="361" y="491"/>
			<point x="361" y="474" type="curve" smooth="yes"/>
			<point x="361" y="457"/>
			<point x="350" y="445"/>
			<point x="311" y="445" type="curve" smooth="yes"/>
		</contour>
	</outline>
</glyph>
<glyph name="degree" format="2">
	<advance width="390" height="0"/>
	<unicode hex="00B0"/>
	<outline>
		<contour>
			<point x="195" y="373" type="curve" smooth="yes"/>
			<point x="288" y="373"/>
			<point x="365" y="450" name="at01"/>
			<point x="365" y="543" type="curve" smooth="yes"/>
			<point x="365" y="636" name="ih01"/>
			<point x="288" y="713"/>
			<point x="195" y="713" type="curve" smooth="yes"/>
			<point x="102" y="713" name="iv01"/>
			<point x="25" y="636"/>
			<point x="25" y="543" type="curve" smooth="yes" name="sh01"/>
			<point x="25" y="450" name="ih02"/>
			<point x="102" y="373" name="ih03"/>
		</contour>
		<contour>
			<point x="195" y="491" type="curve" smooth="yes"/>
			<point x="166" y="491"/>
			<point x="143" y="514"/>
			<point x="143" y="543" type="curve" smooth="yes"/>
			<point x="143" y="572"/>
			<point x="166" y="595"/>
			<point x="195" y="595" type="curve" smooth="yes"/>
			<point x="224" y="595"/>
			<point x="247" y="572"/>
			<point x="247" y="543" type="curve" smooth="yes"/>
			<point x="247" y="514"/>
			<point x="224" y="491"/>
		</contour>
	</outline>
</glyph>
<glyph name="plusminus" format="2">
	<advance width="580" height="0"/>
	<unicode hex="00B1"/>
	<outline>
		<contour>
			<point x="35" y="56" type="line" name="sv01"/>
			<point x="545" y="56" type="line"/>
			<point x="545" y="204" type="line"/>
			<point x="35" y="204" type="line" name="sh01"/>
		</contour>
		<contour>
			<point x="213" y="270" type="line" name="iv01"/>
			<point x="367" y="270" type="line"/>
			<point x="367" y="336" type="line"/>
			<point x="545" y="336" type="line" name="sv04"/>
			<point x="545" y="484" type="line"/>
			<point x="367" y="484" type="line" name="sv03"/>
			<point x="367" y="665" type="line"/>
			<point x="213" y="665" type="line" name="sv02"/>
			<point x="213" y="484" type="line" name="av01"/>
			<point x="35" y="484" type="line"/>
			<point x="35" y="336" type="line"/>
			<point x="213" y="336" type="line" name="ih01"/>
		</contour>
	</outline>
</glyph>
<glyph name="uni00B2" format="2">
	<advance width="390" height="0"/>
	<unicode hex="00B2"/>
	<outline>
		<contour>
			<point x="15" y="380" type="line"/>
			<point x="375" y="380" type="line"/>
			<point x="375" y="496" type="line"/>
			<point x="233" y="496" type="line"/>
			<point x="271" y="523" type="line" smooth="yes"/>
			<point x="355" y="582"/>
			<point x="370" y="617"/>
			<point x="370" y="665" type="curve" smooth="yes"/>
			<point x="370" y="738"/>
			<point x="315" y="793"/>
			<point x="195" y="793" type="curve" smooth="yes"/>
			<point x="74" y="793"/>
			<point x="20" y="738"/>
			<point x="20" y="635" type="curve"/>
			<point x="163" y="635" type="line"/>
			<point x="163" y="662"/>
			<point x="176" y="675" name="hr01"/>
			<point x="195" y="675" type="curve" smooth="yes" name="hr01"/>
			<point x="218" y="675"/>
			<point x="227" y="666"/>
			<point x="227" y="651" type="curve" smooth="yes"/>
			<point x="227" y="635" name="hr02"/>
			<point x="218" y="626"/>
			<point x="172" y="591" type="curve" smooth="yes"/>
			<point x="15" y="471" type="line"/>
		</contour>
	</outline>
</glyph>
<glyph name="uni00B3" format="2">
	<advance width="400" height="0"/>
	<unicode hex="00B3"/>
	<outline>
		<contour>
			<point x="200" y="367" type="curve" smooth="yes"/>
			<point x="329" y="367"/>
			<point x="385" y="421" name="iv05"/>
			<point x="385" y="492" type="curve" smooth="yes"/>
			<point x="385" y="548" name="at01"/>
			<point x="350" y="577" name="iv04"/>
			<point x="310" y="590" type="curve"/>
			<point x="350" y="603" name="sv02"/>
			<point x="375" y="624"/>
			<point x="375" y="676" type="curve" smooth="yes" name="iv02"/>
			<point x="375" y="743"/>
			<point x="317" y="793"/>
			<point x="200" y="793" type="curve" smooth="yes" name="iv03"/>
			<point x="76" y="793"/>
			<point x="25" y="741" name="sv01"/>
			<point x="25" y="645" type="curve"/>
			<point x="168" y="645" type="line" name="iv01"/>
			<point x="168" y="668" name="ih01"/>
			<point x="181" y="675" name="ih02"/>
			<point x="200" y="675" type="curve" smooth="yes" name="ih03"/>
			<point x="221" y="675"/>
			<point x="232" y="667"/>
			<point x="232" y="652" type="curve" smooth="yes"/>
			<point x="232" y="635"/>
			<point x="221" y="626"/>
			<point x="199" y="626" type="curve" smooth="yes" name="hr01"/>
			<point x="165" y="626" type="line" name="hr02"/>
			<point x="165" y="544" type="line"/>
			<point x="199" y="544" type="line" smooth="yes"/>
			<point x="230" y="544"/>
			<point x="242" y="532"/>
			<point x="242" y="515" type="curve" smooth="yes"/>
			<point x="242" y="496"/>
			<point x="231" y="485"/>
			<point x="200" y="485" type="curve" smooth="yes"/>
			<point x="172" y="485"/>
			<point x="158" y="497"/>
			<point x="158" y="520" type="curve" name="hr03"/>
			<point x="15" y="520" type="line"/>
			<point x="15" y="423"/>
			<point x="69" y="367"/>
		</contour>
	</outline>
</glyph>
<glyph name="uni00B5" format="2">
	<advance width="600" height="0"/>
	<unicode hex="00B5"/>
	<outline>
		<contour>
			<point x="50" y="-200" type="line"/>
			<point x="204" y="-200" type="line"/>
			<point x="204" y="-10" type="line"/>
			<point x="214" y="-12"/>
			<point x="225" y="-13"/>
			<point x="237" y="-13" type="curve" smooth="yes"/>
			<point x="324" y="-13"/>
			<point x="381" y="25"/>
			<point x="408" y="72" type="curve"/>
			<point x="408" y="0" type="line" name="hr01"/>
			<point x="550" y="0" type="line"/>
			<point x="550" y="530" type="line"/>
			<point x="396" y="530" type="line" name="hr02"/>
			<point x="396" y="221" type="line" smooth="yes" name="hr02"/>
			<point x="396" y="161"/>
			<point x="364" y="115"/>
			<point x="295" y="115" type="curve" smooth="yes" name="hr01"/>
			<point x="231" y="115"/>
			<point x="204" y="152"/>
			<point x="204" y="221" type="curve" smooth="yes"/>
			<point x="204" y="530" type="line"/>
			<point x="50" y="530" type="line"/>
		</contour>
	</outline>
</glyph>
<glyph name="paragraph" format="2">
	<advance width="640" height="0"/>
	<unicode hex="00B6"/>
	<outline>
		<contour>
			<point x="180" y="-200" type="line"/>
			<point x="314" y="-200" type="line" name="ab02"/>
			<point x="314" y="574" type="line" name="ih01"/>
			<point x="436" y="574" type="line"/>
			<point x="436" y="-200" type="line"/>
			<point x="570" y="-200" type="line" name="ab01"/>
			<point x="570" y="700" type="line"/>
			<point x="230" y="700" type="line" smooth="yes" name="at01"/>
			<point x="121" y="700"/>
			<point x="30" y="609" name="iv01"/>
			<point x="30" y="500" type="curve" smooth="yes" name="ih02"/>
			<point x="30" y="408" name="ih03"/>
			<point x="95" y="327"/>
			<point x="180" y="306" type="curve"/>
		</contour>
	</outline>
</glyph>
<glyph name="questiondown" format="2">
	<advance width="540" height="0"/>
	<unicode hex="00BF"/>
	<outline>
		<contour>
			<point x="270" y="-213" type="curve" smooth="yes"/>
			<point x="417" y="-213"/>
			<point x="510" y="-119" name="iv02"/>
			<point x="510" y="-5" type="curve" name="sv01"/>
			<point x="352" y="-5" type="line"/>
			<point x="352" y="-56"/>
			<point x="323" y="-85" name="hr01"/>
			<point x="270" y="-85" type="curve" smooth="yes"/>
			<point x="214" y="-85" name="iv01"/>
			<point x="188" y="-59"/>
			<point x="188" y="-15" type="curve" smooth="yes"/>
			<point x="188" y="20"/>
			<point x="214" y="47" name="ih01"/>
			<point x="258" y="84" type="curve"/>
			<point x="310" y="125"/>
			<point x="347" y="161" name="at01"/>
			<point x="347" y="220" type="curve" smooth="yes"/>
			<point x="347" y="290" type="line" name="sh01"/>
			<point x="193" y="290" type="line" name="ih02"/>
			<point x="193" y="245" type="line" smooth="yes" name="ih03"/>
			<point x="193" y="224"/>
			<point x="188" y="212"/>
			<point x="118" y="150" type="curve" smooth="yes"/>
			<point x="74" y="112"/>
			<point x="30" y="62"/>
			<point x="30" y="-20" type="curve" smooth="yes"/>
			<point x="30" y="-128"/>
			<point x="114" y="-213"/>
		</contour>
		<contour>
			<point x="270" y="353" type="curve" smooth="yes"/>
			<point x="323" y="353"/>
			<point x="365" y="395"/>
			<point x="365" y="448" type="curve" smooth="yes" name="hr02"/>
			<point x="365" y="501"/>
			<point x="323" y="543"/>
			<point x="270" y="543" type="curve" smooth="yes"/>
			<point x="217" y="543"/>
			<point x="175" y="501"/>
			<point x="175" y="448" type="curve" smooth="yes"/>
			<point x="175" y="395"/>
			<point x="217" y="353"/>
		</contour>
	</outline>
</glyph>
<glyph name="AE" format="2">
	<advance width="1025" height="0"/>
	<unicode hex="00C6"/>
	<anchor x="513" y="0" name="bottom"/>
	<anchor x="513" y="700" name="top"/>
	<outline>
		<contour>
			<point x="10" y="0" type="line"/>
			<point x="192" y="0" type="line" name="ab02"/>
			<point x="271" y="134" type="line" name="hr01"/>
			<point x="470" y="134" type="line" name="sv04"/>
			<point x="470" y="0" type="line" name="ih01"/>
			<point x="980" y="0" type="line" name="ab01"/>
			<point x="980" y="138" type="line"/>
			<point x="650" y="138" type="line" name="sv03"/>
			<point x="650" y="295" type="line" name="hr03"/>
			<point x="950" y="295" type="line" name="sv02"/>
			<point x="950" y="425" type="line" name="hr02"/>
			<point x="650" y="425" type="line"/>
			<point x="650" y="562" type="line" name="hr01"/>
			<point x="980" y="562" type="line" name="sv01"/>
			<point x="980" y="700" type="line"/>
			<point x="420" y="700" type="line" name="at01"/>
		</contour>
		<contour>
			<point x="351" y="272" type="line" name="hr03"/>
			<point x="470" y="485" type="line" name="iv01"/>
			<point x="470" y="272" type="line" name="sh01"/>
		</contour>
	</outline>
</glyph>
<glyph name="Eth" format="2">
	<advance width="745" height="0"/>
	<unicode hex="00D0"/>
	<outline>
		<contour>
			<point x="100" y="0" type="line"/>
			<point x="355" y="0" type="line" smooth="yes"/>
			<point x="571" y="0"/>
			<point x="700" y="121"/>
			<point x="700" y="345" type="curve" smooth="yes"/>
			<point x="700" y="365" type="line" smooth="yes"/>
			<point x="700" y="585"/>
			<point x="575" y="700"/>
			<point x="365" y="700" type="curve" smooth="yes"/>
			<point x="100" y="700" type="line"/>
			<point x="100" y="424" type="line"/>
			<point x="20" y="424" type="line"/>
			<point x="20" y="286" type="line"/>
			<point x="100" y="286" type="line"/>
		</contour>
		<contour>
			<point x="280" y="148" type="line"/>
			<point x="280" y="286" type="line"/>
			<point x="400" y="286" type="line"/>
			<point x="400" y="424" type="line"/>
			<point x="280" y="424" type="line"/>
			<point x="280" y="552" type="line"/>
			<point x="355" y="552" type="line" smooth="yes"/>
			<point x="443" y="552"/>
			<point x="514" y="501"/>
			<point x="514" y="365" type="curve" smooth="yes"/>
			<point x="514" y="345" type="line" smooth="yes"/>
			<point x="514" y="200"/>
			<point x="436" y="148"/>
			<point x="345" y="148" type="curve" smooth="yes"/>
		</contour>
	</outline>
</glyph>
<glyph name="multiply" format="2">
	<advance width="580" height="0"/>
	<unicode hex="00D7"/>
	<outline>
		<contour>
			<point x="154" y="125" type="line" name="sv02"/>
			<point x="290" y="261" type="line"/>
			<point x="426" y="125" type="line" name="iv01"/>
			<point x="525" y="224" type="line"/>
			<point x="389" y="360" type="line"/>
			<point x="525" y="496" type="line"/>
			<point x="426" y="595" type="line" name="sv01"/>
			<point x="290" y="459" type="line" name="ih01"/>
			<point x="154" y="595" type="line" name="av01"/>
			<point x="55" y="496" type="line"/>
			<point x="191" y="360" type="line"/>
			<point x="55" y="224" type="line"/>
		</contour>
	</outline>
</glyph>
<glyph name="Oslash" format="2">
	<advance width="770" height="0"/>
	<unicode hex="00D8"/>
	<anchor x="385" y="0" name="bottom"/>
	<anchor x="385" y="700" name="top"/>
	<outline>
		<contour>
			<point x="385" y="-13" type="curve" smooth="yes"/>
			<point x="570" y="-13"/>
			<point x="725" y="90"/>
			<point x="725" y="345" type="curve" smooth="yes" name="iv04"/>
			<point x="725" y="365" type="line" smooth="yes"/>
			<point x="725" y="469" name="at02"/>
			<point x="697" y="545" name="iv03"/>
			<point x="652" y="601" type="curve" name="at01"/>
			<point x="695" y="654" type="line"/>
			<point x="625" y="713" type="line"/>
			<point x="583" y="662" type="line" name="iv02"/>
			<point x="527" y="697"/>
			<point x="458" y="713" name="ab01"/>
			<point x="385" y="713" type="curve" smooth="yes" name="iv01"/>
			<point x="200" y="713" name="ih01"/>
			<point x="45" y="610"/>
			<point x="45" y="365" type="curve" smooth="yes"/>
			<point x="45" y="345" type="line" smooth="yes" name="iv05"/>
			<point x="45" y="237"/>
			<point x="71" y="156"/>
			<point x="118" y="99" type="curve" name="sh01"/>
			<point x="75" y="47" type="line"/>
			<point x="145" y="-13" type="line"/>
			<point x="187" y="38" type="line" name="iv06"/>
			<point x="243" y="3"/>
			<point x="312" y="-13"/>
		</contour>
		<contour>
			<point x="385" y="137" type="curve" smooth="yes" name="ih02"/>
			<point x="350" y="137" name="ih03"/>
			<point x="319" y="144"/>
			<point x="292" y="165" type="curve"/>
			<point x="529" y="452" type="line"/>
			<point x="536" y="428"/>
			<point x="539" y="400"/>
			<point x="539" y="365" type="curve" smooth="yes"/>
			<point x="539" y="345" type="line" smooth="yes"/>
			<point x="539" y="181"/>
			<point x="465" y="137"/>
		</contour>
		<contour>
			<point x="385" y="563" type="curve" smooth="yes"/>
			<point x="420" y="563"/>
			<point x="451" y="555"/>
			<point x="478" y="535" type="curve"/>
			<point x="242" y="249" type="line"/>
			<point x="235" y="276"/>
			<point x="231" y="308"/>
			<point x="231" y="345" type="curve" smooth="yes"/>
			<point x="231" y="365" type="line" smooth="yes"/>
			<point x="231" y="521"/>
			<point x="305" y="563"/>
		</contour>
	</outline>
</glyph>
<glyph name="Thorn" format="2">
	<advance width="670" height="0"/>
	<unicode hex="00DE"/>
	<anchor x="335" y="0" name="bottom"/>
	<anchor x="335" y="700" name="top"/>
	<outline>
		<contour>
			<point x="70" y="0" type="line"/>
			<point x="250" y="0" type="line" name="ab01"/>
			<point x="250" y="122" type="line"/>
			<point x="355" y="122" type="line" smooth="yes" name="sv01"/>
			<point x="550" y="122"/>
			<point x="640" y="212" name="sh01"/>
			<point x="640" y="360" type="curve" smooth="yes"/>
			<point x="640" y="509"/>
			<point x="550" y="600" name="at01"/>
			<point x="355" y="600" type="curve" smooth="yes"/>
			<point x="250" y="600" type="line"/>
			<point x="250" y="700" type="line" name="sv02"/>
			<point x="70" y="700" type="line"/>
		</contour>
		<contour>
			<point x="250" y="270" type="line" name="ih01"/>
			<point x="250" y="452" type="line" name="ih02"/>
			<point x="335" y="452" type="line" smooth="yes" name="ih03"/>
			<point x="419" y="452"/>
			<point x="454" y="416"/>
			<point x="454" y="360" type="curve" smooth="yes"/>
			<point x="454" y="304"/>
			<point x="419" y="270"/>
			<point x="335" y="270" type="curve" smooth="yes"/>
		</contour>
	</outline>
</glyph>
<glyph name="germandbls" format="2">
	<advance width="595" height="0"/>
	<unicode hex="00DF"/>
	<anchor x="298" y="0" name="bottom"/>
	<anchor x="298" y="774" name="top"/>
	<outline>
		<contour>
			<point x="50" y="0" type="line"/>
			<point x="204" y="0" type="line"/>
			<point x="204" y="470" type="line" smooth="yes"/>
			<point x="204" y="547"/>
			<point x="233" y="585"/>
			<point x="290" y="585" type="curve" smooth="yes"/>
			<point x="337" y="585"/>
			<point x="366" y="561"/>
			<point x="366" y="512" type="curve" smooth="yes"/>
			<point x="366" y="464"/>
			<point x="335" y="438"/>
			<point x="290" y="438" type="curve" smooth="yes"/>
			<point x="275" y="438" type="line" name="hr01"/>
			<point x="275" y="322" type="line"/>
			<point x="295" y="322" type="line" smooth="yes"/>
			<point x="372" y="322"/>
			<point x="406" y="287" name="hr02"/>
			<point x="406" y="227" type="curve" smooth="yes"/>
			<point x="406" y="217" type="line" smooth="yes"/>
			<point x="406" y="154"/>
			<point x="374" y="122"/>
			<point x="310" y="122" type="curve" smooth="yes"/>
			<point x="295" y="122"/>
			<point x="275" y="122" name="hr03"/>
			<point x="260" y="125" type="curve"/>
			<point x="260" y="-3" type="line"/>
			<point x="275" y="-6"/>
			<point x="295" y="-6"/>
			<point x="310" y="-6" type="curve" smooth="yes" name="hr01"/>
			<point x="487" y="-6"/>
			<point x="560" y="65" name="hr04"/>
			<point x="560" y="205" type="curve" smooth="yes"/>
			<point x="560" y="215" type="line" smooth="yes"/>
			<point x="560" y="311"/>
			<point x="516" y="370"/>
			<point x="420" y="387" type="curve"/>
			<point x="484" y="410"/>
			<point x="520" y="467" name="hr05"/>
			<point x="520" y="535" type="curve" smooth="yes"/>
			<point x="520" y="636"/>
			<point x="446" y="713"/>
			<point x="290" y="713" type="curve" smooth="yes"/>
			<point x="133" y="713"/>
			<point x="50" y="627"/>
			<point x="50" y="470" type="curve" smooth="yes"/>
		</contour>
	</outline>
</glyph>
<glyph name="ae" format="2">
	<advance width="935" height="0"/>
	<unicode hex="00E6"/>
	<anchor x="468" y="0" name="bottom"/>
	<anchor x="468" y="530" name="top"/>
	<outline>
		<contour>
			<point x="215" y="-13" type="curve" smooth="yes"/>
			<point x="328" y="-13"/>
			<point x="411" y="26"/>
			<point x="450" y="82" type="curve"/>
			<point x="489" y="23"/>
			<point x="558" y="-13"/>
			<point x="650" y="-13" type="curve" smooth="yes"/>
			<point x="787" y="-13"/>
			<point x="874" y="44"/>
			<point x="895" y="160" type="curve" name="hr01"/>
			<point x="753" y="160" type="line"/>
			<point x="742" y="129"/>
			<point x="709" y="110" name="hr02"/>
			<point x="650" y="110" type="curve" smooth="yes"/>
			<point x="590" y="110"/>
			<point x="536" y="143"/>
			<point x="533" y="222" type="curve"/>
			<point x="905" y="222" type="line"/>
			<point x="905" y="281" type="line" smooth="yes"/>
			<point x="905" y="452"/>
			<point x="816" y="543"/>
			<point x="645" y="543" type="curve" smooth="yes"/>
			<point x="569" y="543"/>
			<point x="517" y="525"/>
			<point x="470" y="478" type="curve"/>
			<point x="435" y="521"/>
			<point x="380" y="543"/>
			<point x="300" y="543" type="curve" smooth="yes"/>
			<point x="151" y="543"/>
			<point x="70" y="470"/>
			<point x="65" y="375" type="curve"/>
			<point x="219" y="375" type="line"/>
			<point x="222" y="410"/>
			<point x="244" y="425"/>
			<point x="295" y="425" type="curve" smooth="yes" name="hr01"/>
			<point x="348" y="425"/>
			<point x="381" y="408"/>
			<point x="381" y="340" type="curve" smooth="yes"/>
			<point x="381" y="318" type="line"/>
			<point x="230" y="318" type="line" smooth="yes"/>
			<point x="105" y="318"/>
			<point x="35" y="260"/>
			<point x="35" y="155" type="curve" smooth="yes"/>
			<point x="35" y="60"/>
			<point x="100" y="-13"/>
		</contour>
		<contour>
			<point x="266" y="95" type="curve" smooth="yes"/>
			<point x="213" y="95"/>
			<point x="193" y="123"/>
			<point x="193" y="162" type="curve" smooth="yes"/>
			<point x="193" y="194"/>
			<point x="215" y="222"/>
			<point x="260" y="222" type="curve" smooth="yes"/>
			<point x="381" y="222" type="line"/>
			<point x="381" y="200" type="line" smooth="yes"/>
			<point x="381" y="135"/>
			<point x="330" y="95"/>
		</contour>
		<contour>
			<point x="645" y="421" type="curve" smooth="yes"/>
			<point x="704" y="421"/>
			<point x="754" y="401" name="hr03"/>
			<point x="754" y="318" type="curve"/>
			<point x="534" y="318" type="line"/>
			<point x="537" y="394"/>
			<point x="589" y="421"/>
		</contour>
	</outline>
</glyph>
<glyph name="eth" format="2">
	<advance width="615" height="0"/>
	<unicode hex="00F0"/>
	<anchor x="308" y="0" name="bottom"/>
	<anchor x="308" y="774" name="top"/>
	<outline>
		<contour>
			<point x="305" y="-13" type="curve" smooth="yes"/>
			<point x="450" y="-13"/>
			<point x="580" y="78"/>
			<point x="580" y="270" type="curve" smooth="yes" name="at01"/>
			<point x="580" y="290" type="line" smooth="yes"/>
			<point x="580" y="476" name="sv03"/>
			<point x="514" y="614"/>
			<point x="335" y="702" type="curve" name="sv01"/>
			<point x="357" y="744" type="line" name="sv02"/>
			<point x="286" y="778" type="line"/>
			<point x="262" y="732" type="line"/>
			<point x="231" y="743" name="iv04"/>
			<point x="199" y="753" name="iv03"/>
			<point x="165" y="762" type="curve" name="iv02"/>
			<point x="124" y="654" type="line" name="iv01"/>
			<point x="154" y="645"/>
			<point x="182" y="636"/>
			<point x="208" y="627" type="curve" name="ih01"/>
			<point x="184" y="582" type="line"/>
			<point x="255" y="548" type="line"/>
			<point x="281" y="597" type="line"/>
			<point x="340" y="568" name="sv04"/>
			<point x="383" y="532"/>
			<point x="414" y="483" type="curve"/>
			<point x="378" y="510" name="sh01"/>
			<point x="335" y="523" name="ih02"/>
			<point x="285" y="523" type="curve" smooth="yes" name="ih03"/>
			<point x="161" y="523"/>
			<point x="30" y="432"/>
			<point x="30" y="270" type="curve" smooth="yes"/>
			<point x="30" y="250" type="line" smooth="yes"/>
			<point x="30" y="78"/>
			<point x="160" y="-13"/>
		</contour>
		<contour>
			<point x="305" y="113" type="curve" smooth="yes"/>
			<point x="244" y="113"/>
			<point x="188" y="151"/>
			<point x="188" y="250" type="curve" smooth="yes"/>
			<point x="188" y="270" type="line" smooth="yes"/>
			<point x="188" y="358"/>
			<point x="244" y="397"/>
			<point x="305" y="397" type="curve" smooth="yes"/>
			<point x="366" y="397"/>
			<point x="422" y="358"/>
			<point x="422" y="270" type="curve" smooth="yes"/>
			<point x="422" y="250" type="line" smooth="yes"/>
			<point x="422" y="151"/>
			<point x="366" y="113"/>
		</contour>
	</outline>
</glyph>
<glyph name="divide" format="2">
	<advance width="580" height="0"/>
	<unicode hex="00F7"/>
	<outline>
		<contour>
			<point x="35" y="286" type="line"/>
			<point x="545" y="286" type="line" name="sv01"/>
			<point x="545" y="434" type="line" name="av01"/>
			<point x="35" y="434" type="line" name="sh01"/>
		</contour>
		<contour>
			<point x="290" y="36" type="curve" smooth="yes"/>
			<point x="343" y="36"/>
			<point x="385" y="78" name="sv02"/>
			<point x="385" y="131" type="curve" smooth="yes"/>
			<point x="385" y="184" name="ih01"/>
			<point x="343" y="226"/>
			<point x="290" y="226" type="curve" smooth="yes"/>
			<point x="237" y="226" name="sv03"/>
			<point x="195" y="184"/>
			<point x="195" y="131" type="curve" smooth="yes" name="sh02"/>
			<point x="195" y="78" name="ih02"/>
			<point x="237" y="36" name="ih03"/>
		</contour>
		<contour>
			<point x="290" y="494" type="curve" smooth="yes"/>
			<point x="343" y="494"/>
			<point x="385" y="536"/>
			<point x="385" y="589" type="curve" smooth="yes"/>
			<point x="385" y="642"/>
			<point x="343" y="684"/>
			<point x="290" y="684" type="curve" smooth="yes"/>
			<point x="237" y="684"/>
			<point x="195" y="642"/>
			<point x="195" y="589" type="curve" smooth="yes"/>
			<point x="195" y="536"/>
			<point x="237" y="494"/>
		</contour>
	</outline>
</glyph>
<glyph name="thorn" format="2">
	<advance width="615" height="0"/>
	<unicode hex="00FE"/>
	<anchor x="308" y="0" name="bottom"/>
	<anchor x="308" y="530" name="top"/>
	<outline>
		<contour>
			<point x="50" y="-200" type="line"/>
			<point x="204" y="-200" type="line"/>
			<point x="204" y="67" type="line"/>
			<point x="240" y="15"/>
			<point x="293" y="-13"/>
			<point x="357" y="-13" type="curve" smooth="yes"/>
			<point x="496" y="-13"/>
			<point x="585" y="80"/>
			<point x="585" y="260" type="curve" smooth="yes"/>
			<point x="585" y="280" type="line" smooth="yes"/>
			<point x="585" y="455"/>
			<point x="506" y="543"/>
			<point x="357" y="543" type="curve" smooth="yes"/>
			<point x="293" y="543"/>
			<point x="240" y="515"/>
			<point x="204" y="462" type="curve"/>
			<point x="204" y="700" type="line"/>
			<point x="50" y="700" type="line"/>
		</contour>
		<contour>
			<point x="320" y="114" type="curve" smooth="yes"/>
			<point x="255" y="114"/>
			<point x="204" y="161"/>
			<point x="204" y="245" type="curve" smooth="yes"/>
			<point x="204" y="295" type="line" smooth="yes"/>
			<point x="204" y="375"/>
			<point x="255" y="416"/>
			<point x="320" y="416" type="curve" smooth="yes"/>
			<point x="384" y="416"/>
			<point x="427" y="372"/>
			<point x="427" y="280" type="curve" smooth="yes"/>
			<point x="427" y="260" type="line" smooth="yes"/>
			<point x="427" y="164"/>
			<point x="381" y="114"/>
		</contour>
	</outline>
</glyph>
<glyph name="dcroat" format="2">
	<advance width="644"/>
	<unicode hex="0111"/>
	<outline>
		<component base="d"/>
		<contour>
			<point x="283" y="651" type="line"/>
			<point x="283" y="571" type="line"/>
			<point x="654" y="571" type="line"/>
			<point x="654" y="651" type="line"/>
		</contour>
	</outline>
</glyph>
<glyph name="hbar" format="2">
	<advance width="628"/>
	<unicode hex="0127"/>
	<outline>
		<component base="h" xOffset="23"/>
		<contour>
			<point x="-10" y="651" type="line"/>
			<point x="-10" y="571" type="line"/>
			<point x="361" y="571" type="line"/>
			<point x="361" y="651" type="line"/>
		</contour>
	</outline>
</glyph>
<glyph name="Lslash" format="2">
	<advance width="620" height="0"/>
	<unicode hex="0141"/>
	<outline>
		<contour>
			<point x="120" y="0" type="line"/>
			<point x="600" y="0" type="line" name="ab01"/>
			<point x="600" y="148" type="line"/>
			<point x="300" y="148" type="line" name="sv01"/>
			<point x="300" y="305" type="line" name="iv06"/>
			<point x="450" y="392" type="line"/>
			<point x="450" y="540" type="line" name="iv01"/>
			<point x="300" y="453" type="line" name="iv05"/>
			<point x="300" y="700" type="line" name="ih01"/>
			<point x="120" y="700" type="line" name="at01"/>
			<point x="120" y="349" type="line" name="iv04"/>
			<point x="20" y="292" type="line"/>
			<point x="20" y="144" type="line" name="iv02"/>
			<point x="120" y="201" type="line" name="iv03"/>
		</contour>
	</outline>
</glyph>
<glyph name="Eng" format="2">
	<advance width="760"/>
	<unicode hex="014A"/>
	<anchor x="300" y="0" name="bottom"/>
	<anchor x="300" y="700" name="top"/>
	<outline>
		<contour>
			<point x="500" y="-213" type="curve" smooth="yes"/>
			<point x="648" y="-213"/>
			<point x="690" y="-168"/>
			<point x="690" y="0" type="curve" smooth="yes"/>
			<point x="690" y="530" type="line"/>
			<point x="520" y="530" type="line" name="hr01"/>
			<point x="520" y="15" type="line" smooth="yes"/>
			<point x="520" y="-68"/>
			<point x="510" y="-85"/>
			<point x="480" y="-85" type="curve" smooth="yes"/>
			<point x="474" y="-85"/>
			<point x="464" y="-85"/>
			<point x="450" y="-82" type="curve" name="hr02"/>
			<point x="450" y="-210" type="line" name="hr01"/>
			<point x="465" y="-213"/>
			<point x="485" y="-213"/>
		</contour>
		<component base="N"/>
	</outline>
</glyph>
<glyph name="eng" format="2">
	<advance width="607"/>
	<unicode hex="014B"/>
	<anchor x="304" y="0" name="bottom"/>
	<anchor x="304" y="530" name="top"/>
	<outline>
		<contour>
			<point x="370" y="-213" type="curve" smooth="yes"/>
			<point x="518" y="-213"/>
			<point x="560" y="-168"/>
			<point x="560" y="0" type="curve" smooth="yes"/>
			<point x="560" y="130" type="line"/>
			<point x="406" y="130" type="line" name="hr01"/>
			<point x="406" y="15" type="line" smooth="yes"/>
			<point x="406" y="-68"/>
			<point x="387" y="-85"/>
			<point x="355" y="-85" type="curve" smooth="yes"/>
			<point x="344" y="-85"/>
			<point x="331" y="-85"/>
			<point x="320" y="-82" type="curve" name="hr02"/>
			<point x="320" y="-210" type="line" name="hr01"/>
			<point x="335" y="-213"/>
			<point x="355" y="-213"/>
		</contour>
		<component base="n"/>
	</outline>
</glyph>
<glyph name="OE" format="2">
	<advance width="1100" height="0"/>
	<unicode hex="0152"/>
	<anchor x="550" y="0" name="bottom"/>
	<anchor x="550" y="700" name="top"/>
	<outline>
		<contour>
			<point x="375" y="-13" type="curve" smooth="yes"/>
			<point x="435" y="-13"/>
			<point x="494" y="2"/>
			<point x="545" y="37" type="curve"/>
			<point x="545" y="0" type="line" name="hr01"/>
			<point x="1055" y="0" type="line"/>
			<point x="1055" y="138" type="line"/>
			<point x="725" y="138" type="line"/>
			<point x="725" y="296" type="line" name="hr01"/>
			<point x="1025" y="296" type="line"/>
			<point x="1025" y="424" type="line"/>
			<point x="725" y="424" type="line"/>
			<point x="725" y="562" type="line"/>
			<point x="1055" y="562" type="line"/>
			<point x="1055" y="700" type="line"/>
			<point x="545" y="700" type="line"/>
			<point x="545" y="663" type="line"/>
			<point x="494" y="698"/>
			<point x="435" y="713" name="hr02"/>
			<point x="375" y="713" type="curve" smooth="yes"/>
			<point x="200" y="713"/>
			<point x="45" y="610"/>
			<point x="45" y="365" type="curve" smooth="yes"/>
			<point x="45" y="345" type="line" smooth="yes"/>
			<point x="45" y="90"/>
			<point x="200" y="-13"/>
		</contour>
		<contour>
			<point x="385" y="137" type="curve" smooth="yes"/>
			<point x="305" y="137"/>
			<point x="231" y="181"/>
			<point x="231" y="345" type="curve" smooth="yes"/>
			<point x="231" y="365" type="line" smooth="yes"/>
			<point x="231" y="521"/>
			<point x="305" y="563"/>
			<point x="385" y="563" type="curve" smooth="yes"/>
			<point x="465" y="563"/>
			<point x="539" y="521"/>
			<point x="539" y="365" type="curve" smooth="yes"/>
			<point x="539" y="345" type="line" smooth="yes"/>
			<point x="539" y="181"/>
			<point x="465" y="137"/>
		</contour>
	</outline>
</glyph>
<glyph name="oe" format="2">
	<advance width="980" height="0"/>
	<unicode hex="0153"/>
	<anchor x="490" y="0" name="bottom"/>
	<anchor x="490" y="530" name="top"/>
	<outline>
		<contour>
			<point x="305" y="-13" type="curve" smooth="yes"/>
			<point x="385" y="-13"/>
			<point x="453" y="13"/>
			<point x="498" y="66" type="curve"/>
			<point x="543" y="13"/>
			<point x="611" y="-13"/>
			<point x="695" y="-13" type="curve" smooth="yes"/>
			<point x="832" y="-13"/>
			<point x="919" y="44"/>
			<point x="940" y="160" type="curve" name="hr01"/>
			<point x="798" y="160" type="line"/>
			<point x="787" y="129"/>
			<point x="754" y="110"/>
			<point x="695" y="110" type="curve" smooth="yes"/>
			<point x="635" y="110"/>
			<point x="581" y="143"/>
			<point x="578" y="225" type="curve"/>
			<point x="950" y="225" type="line"/>
			<point x="950" y="280" type="line" smooth="yes"/>
			<point x="950" y="451"/>
			<point x="860" y="543"/>
			<point x="685" y="543" type="curve" smooth="yes"/>
			<point x="602" y="543"/>
			<point x="540" y="518"/>
			<point x="497" y="467" type="curve" name="hr01"/>
			<point x="450" y="518"/>
			<point x="385" y="543"/>
			<point x="305" y="543" type="curve" smooth="yes"/>
			<point x="156" y="543"/>
			<point x="30" y="452"/>
			<point x="30" y="280" type="curve" smooth="yes"/>
			<point x="30" y="260" type="line" smooth="yes"/>
			<point x="30" y="75"/>
			<point x="156" y="-13"/>
		</contour>
		<contour>
			<point x="305" y="115" type="curve" smooth="yes"/>
			<point x="233" y="115"/>
			<point x="188" y="168"/>
			<point x="188" y="260" type="curve" smooth="yes"/>
			<point x="188" y="280" type="line" smooth="yes"/>
			<point x="188" y="360"/>
			<point x="233" y="415"/>
			<point x="305" y="415" type="curve" smooth="yes"/>
			<point x="377" y="415"/>
			<point x="422" y="360"/>
			<point x="422" y="280" type="curve" smooth="yes"/>
			<point x="422" y="260" type="line" smooth="yes"/>
			<point x="422" y="171"/>
			<point x="377" y="115"/>
		</contour>
		<contour>
			<point x="690" y="421" type="curve" smooth="yes"/>
			<point x="749" y="421"/>
			<point x="799" y="400"/>
			<point x="799" y="326" type="curve"/>
			<point x="579" y="326" type="line"/>
			<point x="582" y="395"/>
			<point x="634" y="421"/>
		</contour>
	</outline>
</glyph>
<glyph name="florin" format="2">
	<advance width="370" height="0"/>
	<unicode hex="0192"/>
	<outline>
		<contour>
			<point x="39" y="-213" type="curve" smooth="yes"/>
			<point x="184" y="-213"/>
			<point x="234" y="-158"/>
			<point x="234" y="-62" type="curve" smooth="yes"/>
			<point x="234" y="404" type="line"/>
			<point x="350" y="404" type="line"/>
			<point x="350" y="530" type="line"/>
			<point x="234" y="530" type="line"/>
			<point x="234" y="540" type="line" smooth="yes"/>
			<point x="234" y="563"/>
			<point x="248" y="578"/>
			<point x="295" y="578" type="curve" smooth="yes"/>
			<point x="315" y="578"/>
			<point x="340" y="578"/>
			<point x="360" y="575" type="curve"/>
			<point x="360" y="703" type="line"/>
			<point x="340" y="706"/>
			<point x="305" y="706"/>
			<point x="285" y="706" type="curve" smooth="yes"/>
			<point x="129" y="706"/>
			<point x="80" y="651" name="hr01"/>
			<point x="80" y="555" type="curve" smooth="yes"/>
			<point x="80" y="530" type="line"/>
			<point x="20" y="530" type="line"/>
			<point x="20" y="404" type="line" name="hr01"/>
			<point x="80" y="404" type="line"/>
			<point x="80" y="-47" type="line" smooth="yes"/>
			<point x="80" y="-70"/>
			<point x="65" y="-85"/>
			<point x="29" y="-85" type="curve" smooth="yes"/>
			<point x="14" y="-85"/>
			<point x="-1" y="-84"/>
			<point x="-16" y="-82" type="curve" name="hr02"/>
			<point x="-16" y="-210" type="line"/>
			<point x="4" y="-213"/>
			<point x="19" y="-213"/>
		</contour>
	</outline>
</glyph>
<glyph name="uni0237" format="2">
	<advance width="274" height="0"/>
	<unicode hex="0237"/>
	<anchor x="137" y="-226" name="bottom"/>
	<anchor x="137" y="530" name="top"/>
	<outline>
		<contour>
			<point x="24" y="-213" type="curve" smooth="yes"/>
			<point x="172" y="-213"/>
			<point x="214" y="-168"/>
			<point x="214" y="0" type="curve" smooth="yes"/>
			<point x="214" y="530" type="line"/>
			<point x="60" y="530" type="line" name="hr01"/>
			<point x="60" y="15" type="line" smooth="yes"/>
			<point x="60" y="-68"/>
			<point x="41" y="-85"/>
			<point x="9" y="-85" type="curve" smooth="yes"/>
			<point x="-2" y="-85"/>
			<point x="-15" y="-85"/>
			<point x="-26" y="-82" type="curve" name="hr02"/>
			<point x="-26" y="-210" type="line" name="hr01"/>
			<point x="-11" y="-213"/>
			<point x="9" y="-213"/>
		</contour>
	</outline>
</glyph>
<glyph name="tildecomb" format="2">
	<advance width="400" height="0"/>
	<unicode hex="0303"/>
	<anchor x="200" y="530" name="_top"/>
	<anchor x="200" y="735" name="top"/>
	<outline>
		<contour>
			<point x="315" y="730" type="line"/>
			<point x="312" y="723"/>
			<point x="308" y="716"/>
			<point x="303" y="710" type="curve"/>
			<point x="295" y="699"/>
			<point x="282" y="690"/>
			<point x="265" y="690" type="curve" smooth="yes"/>
			<point x="225" y="690"/>
			<point x="200" y="735" name="hr01"/>
			<point x="135" y="735" type="curve" smooth="yes"/>
			<point x="92" y="735"/>
			<point x="65" y="710"/>
			<point x="46" y="685" type="curve" smooth="yes"/>
			<point x="35" y="670"/>
			<point x="27" y="654"/>
			<point x="20" y="635" type="curve"/>
			<point x="85" y="590" type="line"/>
			<point x="88" y="597"/>
			<point x="92" y="604"/>
			<point x="97" y="610" type="curve"/>
			<point x="105" y="621"/>
			<point x="116" y="630"/>
			<point x="135" y="630" type="curve" smooth="yes"/>
			<point x="175" y="630"/>
			<point x="200" y="585" name="hr02"/>
			<point x="265" y="585" type="curve" smooth="yes"/>
			<point x="308" y="585"/>
			<point x="335" y="610"/>
			<point x="354" y="635" type="curve" smooth="yes"/>
			<point x="365" y="650"/>
			<point x="373" y="666"/>
			<point x="380" y="685" type="curve"/>
		</contour>
	</outline>
</glyph>
<glyph name="uni0308" format="2">
	<advance width="420" height="0"/>
	<unicode hex="0308"/>
	<anchor x="210" y="530" name="_top"/>
	<anchor x="210" y="740" name="top"/>
	<outline>
		<contour>
			<point x="102" y="580" type="curve" smooth="yes"/>
			<point x="151" y="580"/>
			<point x="184" y="613"/>
			<point x="184" y="660" type="curve" smooth="yes"/>
			<point x="184" y="707"/>
			<point x="151" y="740"/>
			<point x="102" y="740" type="curve" smooth="yes"/>
			<point x="53" y="740"/>
			<point x="20" y="707"/>
			<point x="20" y="660" type="curve" smooth="yes"/>
			<point x="20" y="613"/>
			<point x="53" y="580"/>
		</contour>
		<contour>
			<point x="318" y="580" type="curve" smooth="yes"/>
			<point x="367" y="580"/>
			<point x="400" y="613"/>
			<point x="400" y="660" type="curve" smooth="yes"/>
			<point x="400" y="707"/>
			<point x="367" y="740"/>
			<point x="318" y="740" type="curve" smooth="yes"/>
			<point x="269" y="740"/>
			<point x="236" y="707"/>
			<point x="236" y="660" type="curve" smooth="yes"/>
			<point x="236" y="613"/>
			<point x="269" y="580"/>
		</contour>
	</outline>
</glyph>
<glyph name="uni030A" format="2">
	<advance width="300" height="0"/>
	<unicode hex="030A"/>
	<anchor x="150" y="530" name="_top"/>
	<anchor x="150" y="795" name="top"/>
	<outline>
		<contour>
			<point x="150" y="565" type="curve" smooth="yes"/>
			<point x="226" y="565"/>
			<point x="280" y="613" name="sv01"/>
			<point x="280" y="680" type="curve" smooth="yes"/>
			<point x="280" y="747" name="ih01"/>
			<point x="226" y="795"/>
			<point x="150" y="795" type="curve" smooth="yes"/>
			<point x="74" y="795" name="iv01"/>
			<point x="20" y="747"/>
			<point x="20" y="680" type="curve" smooth="yes" name="sh01"/>
			<point x="20" y="612" name="ih02"/>
			<point x="74" y="565" name="ih03"/>
		</contour>
		<contour>
			<point x="150" y="648" type="curve" smooth="yes"/>
			<point x="125" y="648"/>
			<point x="108" y="660"/>
			<point x="108" y="680" type="curve" smooth="yes"/>
			<point x="108" y="700"/>
			<point x="125" y="712"/>
			<point x="150" y="712" type="curve" smooth="yes"/>
			<point x="175" y="712"/>
			<point x="192" y="700"/>
			<point x="192" y="680" type="curve" smooth="yes"/>
			<point x="192" y="660"/>
			<point x="175" y="648"/>
		</contour>
	</outline>
</glyph>
<glyph name="uni0327" format="2">
	<advance width="250" height="0"/>
	<unicode hex="0327"/>
	<anchor x="108" y="0" name="_bottom"/>
	<anchor x="125" y="-213" name="bottom"/>
	<outline>
		<contour>
			<point x="95" y="-213" type="curve" smooth="yes"/>
			<point x="192" y="-213"/>
			<point x="230" y="-175"/>
			<point x="230" y="-115" type="curve" smooth="yes"/>
			<point x="230" y="-80"/>
			<point x="211" y="-46"/>
			<point x="162" y="-35" type="curve"/>
			<point x="169" y="10" type="line"/>
			<point x="85" y="10" type="line"/>
			<point x="68" y="-82" type="line"/>
			<point x="107" y="-82"/>
			<point x="111" y="-96"/>
			<point x="111" y="-107" type="curve" smooth="yes"/>
			<point x="111" y="-118"/>
			<point x="101" y="-130" name="hr01"/>
			<point x="70" y="-130" type="curve" smooth="yes"/>
			<point x="55" y="-130"/>
			<point x="43" y="-129"/>
			<point x="34" y="-127" type="curve" smooth="yes"/>
			<point x="20" y="-124" type="line"/>
			<point x="20" y="-204" type="line"/>
			<point x="25" y="-206"/>
			<point x="32" y="-208"/>
			<point x="39" y="-209" type="curve"/>
			<point x="51" y="-212"/>
			<point x="70" y="-213"/>
		</contour>
	</outline>
</glyph>
<glyph name="uni0328" format="2">
	<advance width="274"/>
	<unicode hex="0328"/>
	<guideline x="214" y="0" angle="270"/>
	<anchor x="214" y="0" name="_ogonek"/>
	<outline>
		<contour>
			<point x="156" y="-214" type="curve" smooth="yes"/>
			<point x="176" y="-214"/>
			<point x="196" y="-212"/>
			<point x="214" y="-208" type="curve"/>
			<point x="214" y="-120" type="line"/>
			<point x="205" y="-121"/>
			<point x="196" y="-122"/>
			<point x="187" y="-122" type="curve" smooth="yes"/>
			<point x="157" y="-122" name="hr01"/>
			<point x="139" y="-110"/>
			<point x="139" y="-85" type="curve" smooth="yes"/>
			<point x="139" y="-61"/>
			<point x="159" y="-30"/>
			<point x="214" y="0" type="curve" name="ab01"/>
			<point x="127" y="0" type="line"/>
			<point x="100" y="-11"/>
			<point x="21" y="-55"/>
			<point x="21" y="-119" type="curve" smooth="yes"/>
			<point x="21" y="-175"/>
			<point x="59" y="-214"/>
		</contour>
	</outline>
</glyph>
<glyph name="uni0402" format="2">
	<advance width="835" height="0"/>
	<unicode hex="0402"/>
	<outline>
		<contour>
			<point x="235" y="0" type="line" name="hr02"/>
			<point x="415" y="0" type="line" name="ab01"/>
			<point x="415" y="285" type="line"/>
			<point x="439" y="300" name="sv03"/>
			<point x="474" y="315"/>
			<point x="530" y="315" type="curve" smooth="yes"/>
			<point x="590" y="315" name="sv02"/>
			<point x="619" y="285"/>
			<point x="619" y="240" type="curve" smooth="yes"/>
			<point x="619" y="220" type="line" smooth="yes" name="ab02"/>
			<point x="619" y="173"/>
			<point x="590" y="144" name="hr01"/>
			<point x="530" y="144" type="curve" smooth="yes" name="iv01"/>
			<point x="519" y="144" name="iv02"/>
			<point x="501" y="144" name="ih01"/>
			<point x="490" y="147" type="curve" name="hr02"/>
			<point x="490" y="-3" type="line"/>
			<point x="501" y="-6" name="at01"/>
			<point x="529" y="-6"/>
			<point x="540" y="-6" type="curve" smooth="yes" name="sv01"/>
			<point x="720" y="-6" name="ih02"/>
			<point x="805" y="79" name="ih03"/>
			<point x="805" y="216" type="curve" smooth="yes"/>
			<point x="805" y="236" type="line" smooth="yes"/>
			<point x="805" y="381"/>
			<point x="721" y="465"/>
			<point x="585" y="465" type="curve" smooth="yes"/>
			<point x="505" y="465"/>
			<point x="450" y="444"/>
			<point x="415" y="421" type="curve" name="hr01"/>
			<point x="415" y="552" type="line"/>
			<point x="630" y="552" type="line"/>
			<point x="630" y="700" type="line"/>
			<point x="20" y="700" type="line"/>
			<point x="20" y="552" type="line"/>
			<point x="235" y="552" type="line"/>
		</contour>
	</outline>
</glyph>
<glyph name="uni0411" format="2">
	<advance width="680" height="0"/>
	<unicode hex="0411"/>
	<outline>
		<contour>
			<point x="70" y="0" type="line"/>
			<point x="365" y="0" type="line" smooth="yes" name="ab01"/>
			<point x="560" y="0"/>
			<point x="650" y="85" name="sh01"/>
			<point x="650" y="229" type="curve" smooth="yes"/>
			<point x="650" y="362"/>
			<point x="560" y="448" name="sv01"/>
			<point x="365" y="448" type="curve" smooth="yes"/>
			<point x="250" y="448" type="line" name="at01"/>
			<point x="250" y="552" type="line"/>
			<point x="585" y="552" type="line"/>
			<point x="585" y="700" type="line" name="sv02"/>
			<point x="70" y="700" type="line"/>
		</contour>
		<contour>
			<point x="250" y="148" type="line" name="ih01"/>
			<point x="250" y="310" type="line" name="ih02"/>
			<point x="345" y="310" type="line" smooth="yes" name="ih03"/>
			<point x="432" y="310"/>
			<point x="464" y="280"/>
			<point x="464" y="229" type="curve" smooth="yes"/>
			<point x="464" y="178"/>
			<point x="432" y="148"/>
			<point x="345" y="148" type="curve" smooth="yes"/>
		</contour>
	</outline>
</glyph>
<glyph name="uni0414" format="2">
	<advance width="750" height="0"/>
	<unicode hex="0414"/>
	<outline>
		<contour>
			<point x="15" y="-130" type="line"/>
			<point x="171" y="-130" type="line" name="av02"/>
			<point x="171" y="0" type="line"/>
			<point x="569" y="0" type="line" name="ab01"/>
			<point x="569" y="-130" type="line" name="hr01"/>
			<point x="725" y="-130" type="line" name="av01"/>
			<point x="725" y="148" type="line" name="sv03"/>
			<point x="654" y="148" type="line" name="sv02"/>
			<point x="654" y="700" type="line"/>
			<point x="140" y="700" type="line" name="at01"/>
			<point x="140" y="530" type="line" smooth="yes"/>
			<point x="140" y="394"/>
			<point x="129" y="237" name="sv01"/>
			<point x="95" y="148" type="curve" name="sv06"/>
			<point x="15" y="148" type="line" name="hr02"/>
		</contour>
		<contour>
			<point x="268" y="148" type="line" name="ih01"/>
			<point x="296" y="232" name="sv05"/>
			<point x="308" y="347" name="sv04"/>
			<point x="308" y="510" type="curve" smooth="yes" name="ih02"/>
			<point x="308" y="552" type="line" name="ih03"/>
			<point x="474" y="552" type="line"/>
			<point x="474" y="148" type="line" name="hr02"/>
		</contour>
	</outline>
</glyph>
<glyph name="uni0416" format="2">
	<advance width="1020" height="0"/>
	<unicode hex="0416"/>
	<anchor x="1000" y="0" name="bottomright"/>
	<anchor x="510" y="700" name="top"/>
	<outline>
		<contour>
			<point x="15" y="0" type="line"/>
			<point x="205" y="0" type="line" name="ab03"/>
			<point x="381" y="297" type="line"/>
			<point x="421" y="297" type="line" name="sv04"/>
			<point x="421" y="0" type="line"/>
			<point x="601" y="0" type="line" name="ab02"/>
			<point x="601" y="297" type="line"/>
			<point x="641" y="297" type="line" name="sv01"/>
			<point x="809" y="0" type="line"/>
			<point x="1005" y="0" type="line" name="ab01"/>
			<point x="780" y="373" type="line" name="iv02"/>
			<point x="995" y="700" type="line"/>
			<point x="813" y="700" type="line" name="at03"/>
			<point x="641" y="423" type="line" name="iv01"/>
			<point x="601" y="423" type="line"/>
			<point x="601" y="700" type="line"/>
			<point x="421" y="700" type="line" name="at02"/>
			<point x="421" y="423" type="line" name="ih01"/>
			<point x="380" y="423" type="line" name="sv03"/>
			<point x="215" y="700" type="line"/>
			<point x="25" y="700" type="line" name="at01"/>
			<point x="240" y="359" type="line" name="sv02"/>
		</contour>
	</outline>
</glyph>
<glyph name="uni0417" format="2">
	<advance width="668" height="0"/>
	<unicode hex="0417"/>
	<anchor x="334" y="0" name="bottom"/>
	<anchor x="334" y="700" name="top"/>
	<outline>
		<contour>
			<point x="335" y="-13" type="curve" smooth="yes"/>
			<point x="540" y="-13"/>
			<point x="635" y="72" name="iv04"/>
			<point x="635" y="197" type="curve" smooth="yes"/>
			<point x="635" y="288" name="at01"/>
			<point x="589" y="345" name="iv03"/>
			<point x="504" y="365" type="curve"/>
			<point x="572" y="388" name="sv03"/>
			<point x="610" y="441" name="hr01"/>
			<point x="610" y="514" type="curve" smooth="yes" name="iv02"/>
			<point x="610" y="643"/>
			<point x="526" y="713"/>
			<point x="335" y="713" type="curve" smooth="yes" name="sv02"/>
			<point x="144" y="713"/>
			<point x="55" y="640" name="sv01"/>
			<point x="50" y="485" type="curve"/>
			<point x="236" y="485" type="line" name="iv01"/>
			<point x="240" y="545" name="ih01"/>
			<point x="271" y="573" name="ih02"/>
			<point x="335" y="573" type="curve" smooth="yes" name="ih03"/>
			<point x="405" y="573"/>
			<point x="424" y="539"/>
			<point x="424" y="499" type="curve" smooth="yes"/>
			<point x="424" y="459"/>
			<point x="400" y="421"/>
			<point x="325" y="421" type="curve" smooth="yes"/>
			<point x="261" y="421" type="line"/>
			<point x="261" y="299" type="line"/>
			<point x="325" y="299" type="line" smooth="yes" name="hr03"/>
			<point x="425" y="299"/>
			<point x="449" y="263" name="hr03"/>
			<point x="449" y="211" type="curve" smooth="yes"/>
			<point x="449" y="158"/>
			<point x="415" y="127"/>
			<point x="335" y="127" type="curve" smooth="yes" name="hr02"/>
			<point x="255" y="127"/>
			<point x="226" y="166"/>
			<point x="221" y="230" type="curve" name="hr04"/>
			<point x="35" y="230" type="line" name="hr01"/>
			<point x="40" y="78"/>
			<point x="139" y="-13"/>
		</contour>
	</outline>
</glyph>
<glyph name="uni041B" format="2">
	<advance width="730" height="0"/>
	<unicode hex="041B"/>
	<outline>
		<contour>
			<point x="70" y="-13" type="curve" smooth="yes"/>
			<point x="210" y="-13"/>
			<point x="298" y="45" name="ih01"/>
			<point x="298" y="460" type="curve" smooth="yes" name="sv01"/>
			<point x="298" y="553" type="line"/>
			<point x="480" y="553" type="line" name="ab01"/>
			<point x="480" y="0" type="line" name="hr01"/>
			<point x="660" y="0" type="line" name="at01"/>
			<point x="660" y="700" type="line"/>
			<point x="130" y="700" type="line" name="iv01"/>
			<point x="130" y="480" type="line" smooth="yes"/>
			<point x="130" y="175"/>
			<point x="105" y="147" name="ab02"/>
			<point x="40" y="147" type="curve" smooth="yes" name="ih02"/>
			<point x="33" y="147" name="ih03"/>
			<point x="28" y="147"/>
			<point x="25" y="148" type="curve" name="hr01"/>
			<point x="25" y="-10" type="line"/>
			<point x="36" y="-13"/>
			<point x="59" y="-13"/>
		</contour>
	</outline>
</glyph>
<glyph name="uni0424" format="2">
	<advance width="930" height="0"/>
	<unicode hex="0424"/>
	<outline>
		<contour>
			<point x="378" y="-30" type="line"/>
			<point x="552" y="-30" type="line" name="av01"/>
			<point x="552" y="30" type="line" name="sv02"/>
			<point x="760" y="30"/>
			<point x="890" y="158"/>
			<point x="890" y="350" type="curve" smooth="yes" name="iv01"/>
			<point x="890" y="370" type="line" smooth="yes"/>
			<point x="890" y="542" name="av02"/>
			<point x="760" y="670" name="sv01"/>
			<point x="552" y="670" type="curve"/>
			<point x="552" y="730" type="line"/>
			<point x="378" y="730" type="line" name="ih01"/>
			<point x="378" y="670" type="line"/>
			<point x="170" y="670" name="sv03"/>
			<point x="40" y="542" name="sh01"/>
			<point x="40" y="370" type="curve" smooth="yes"/>
			<point x="40" y="350" type="line" smooth="yes"/>
			<point x="40" y="158" name="sv04"/>
			<point x="170" y="30" name="sh02"/>
			<point x="378" y="30" type="curve"/>
		</contour>
		<contour>
			<point x="704" y="350" type="line" smooth="yes" name="ih02"/>
			<point x="704" y="227" name="ih03"/>
			<point x="651" y="180"/>
			<point x="552" y="180" type="curve"/>
			<point x="552" y="520" type="line"/>
			<point x="648" y="520"/>
			<point x="704" y="474"/>
			<point x="704" y="370" type="curve" smooth="yes"/>
		</contour>
		<contour>
			<point x="226" y="370" type="line" smooth="yes"/>
			<point x="226" y="474"/>
			<point x="279" y="520"/>
			<point x="378" y="520" type="curve"/>
			<point x="378" y="180" type="line"/>
			<point x="277" y="180"/>
			<point x="226" y="227"/>
			<point x="226" y="350" type="curve" smooth="yes"/>
		</contour>
	</outline>
</glyph>
<glyph name="uni0426" format="2">
	<advance width="775" height="0"/>
	<unicode hex="0426"/>
	<outline>
		<contour>
			<point x="594" y="-130" type="line" name="hr02"/>
			<point x="750" y="-130" type="line" name="av01"/>
			<point x="750" y="148" type="line" name="sv03"/>
			<point x="670" y="148" type="line" name="sv02"/>
			<point x="670" y="700" type="line"/>
			<point x="490" y="700" type="line" name="at02"/>
			<point x="490" y="148" type="line" name="ih01"/>
			<point x="250" y="148" type="line" name="sv01"/>
			<point x="250" y="700" type="line" name="hr01"/>
			<point x="70" y="700" type="line" name="at01"/>
			<point x="70" y="0" type="line"/>
			<point x="594" y="0" type="line" name="ab01"/>
		</contour>
	</outline>
</glyph>
<glyph name="uni0428" format="2">
	<advance width="1000" height="0"/>
	<unicode hex="0428"/>
	<outline>
		<contour>
			<point x="70" y="0" type="line"/>
			<point x="930" y="0" type="line" name="ab01"/>
			<point x="930" y="700" type="line"/>
			<point x="750" y="700" type="line" name="at03"/>
			<point x="750" y="148" type="line" name="sv03"/>
			<point x="590" y="148" type="line" name="sv02"/>
			<point x="590" y="700" type="line"/>
			<point x="410" y="700" type="line" name="at02"/>
			<point x="410" y="148" type="line" name="ih01"/>
			<point x="250" y="148" type="line" name="sv01"/>
			<point x="250" y="700" type="line"/>
			<point x="70" y="700" type="line" name="at01"/>
		</contour>
	</outline>
</glyph>
<glyph name="uni0429" format="2">
	<advance width="1035" height="0"/>
	<unicode hex="0429"/>
	<outline>
		<contour>
			<point x="70" y="0" type="line"/>
			<point x="854" y="0" type="line" name="ab01"/>
			<point x="854" y="-130" type="line"/>
			<point x="1010" y="-130" type="line" name="av01"/>
			<point x="1010" y="148" type="line" name="sv05"/>
			<point x="930" y="148" type="line" name="sv04"/>
			<point x="930" y="700" type="line"/>
			<point x="750" y="700" type="line" name="at03"/>
			<point x="750" y="148" type="line" name="sv03"/>
			<point x="590" y="148" type="line" name="sv02"/>
			<point x="590" y="700" type="line" name="hr01"/>
			<point x="410" y="700" type="line" name="at02"/>
			<point x="410" y="148" type="line"/>
			<point x="250" y="148" type="line" name="sv01"/>
			<point x="250" y="700" type="line"/>
			<point x="70" y="700" type="line" name="at01"/>
		</contour>
	</outline>
</glyph>
<glyph name="uni042A" format="2">
	<advance width="750" height="0"/>
	<unicode hex="042A"/>
	<anchor x="375" y="700" name="top"/>
	<outline>
		<contour>
			<point x="150" y="0" type="line"/>
			<point x="435" y="0" type="line" smooth="yes" name="ab01"/>
			<point x="630" y="0"/>
			<point x="720" y="90" name="iv01"/>
			<point x="720" y="234" type="curve" smooth="yes"/>
			<point x="720" y="378" name="sh01"/>
			<point x="630" y="468" name="at01"/>
			<point x="435" y="468" type="curve" smooth="yes"/>
			<point x="330" y="468" type="line" name="sv01"/>
			<point x="330" y="700" type="line"/>
			<point x="20" y="700" type="line"/>
			<point x="20" y="552" type="line" name="sv02"/>
			<point x="150" y="552" type="line"/>
		</contour>
		<contour>
			<point x="330" y="148" type="line" name="ih01"/>
			<point x="330" y="320" type="line" name="ih02"/>
			<point x="415" y="320" type="line" smooth="yes" name="ih03"/>
			<point x="499" y="320"/>
			<point x="534" y="285"/>
			<point x="534" y="234" type="curve" smooth="yes"/>
			<point x="534" y="183"/>
			<point x="499" y="148"/>
			<point x="415" y="148" type="curve" smooth="yes"/>
		</contour>
	</outline>
</glyph>
<glyph name="uni0431" format="2">
	<advance width="605" height="0"/>
	<unicode hex="0431"/>
	<outline>
		<contour>
			<point x="305" y="-13" type="curve" smooth="yes"/>
			<point x="457" y="-13"/>
			<point x="575" y="85"/>
			<point x="575" y="254" type="curve" smooth="yes" name="iv01"/>
			<point x="575" y="273" type="line" smooth="yes" name="iv02"/>
			<point x="575" y="426" name="sv02"/>
			<point x="482" y="503"/>
			<point x="350" y="503" type="curve" smooth="yes" name="sv01"/>
			<point x="245" y="503" name="at01"/>
			<point x="184" y="462"/>
			<point x="155" y="409" type="curve"/>
			<point x="168" y="524" name="ih01"/>
			<point x="217" y="570"/>
			<point x="334" y="570" type="curve"/>
			<point x="460" y="573"/>
			<point x="514" y="580" name="sv03"/>
			<point x="535" y="593" type="curve"/>
			<point x="535" y="725" type="line"/>
			<point x="491" y="704" name="sh01"/>
			<point x="402" y="705" name="ih02"/>
			<point x="319" y="702" type="curve" smooth="yes" name="ih03"/>
			<point x="107" y="691"/>
			<point x="35" y="552"/>
			<point x="35" y="315" type="curve" smooth="yes"/>
			<point x="35" y="295" type="line" smooth="yes"/>
			<point x="35" y="91"/>
			<point x="150" y="-13"/>
		</contour>
		<contour>
			<point x="305" y="115" type="curve" smooth="yes"/>
			<point x="241" y="115"/>
			<point x="193" y="167"/>
			<point x="193" y="244" type="curve" smooth="yes"/>
			<point x="193" y="261" type="line" smooth="yes"/>
			<point x="193" y="341"/>
			<point x="237" y="385"/>
			<point x="305" y="385" type="curve" smooth="yes"/>
			<point x="374" y="385"/>
			<point x="417" y="340"/>
			<point x="417" y="261" type="curve" smooth="yes"/>
			<point x="417" y="240" type="line" smooth="yes"/>
			<point x="417" y="165"/>
			<point x="377" y="115"/>
		</contour>
	</outline>
</glyph>
<glyph name="uni0433" format="2">
	<advance width="460" height="0"/>
	<unicode hex="0433"/>
	<anchor x="440" y="0" name="bottomright"/>
	<anchor x="245" y="530" name="top"/>
	<outline>
		<contour>
			<point x="50" y="0" type="line"/>
			<point x="204" y="0" type="line" name="ab01"/>
			<point x="204" y="404" type="line" name="ih01"/>
			<point x="440" y="404" type="line" name="sv01"/>
			<point x="440" y="530" type="line"/>
			<point x="50" y="530" type="line" name="at01"/>
		</contour>
	</outline>
</glyph>
<glyph name="uni0434" format="2">
	<advance width="625" height="0"/>
	<unicode hex="0434"/>
	<outline>
		<contour>
			<point x="15" y="-125" type="line"/>
			<point x="145" y="-125" type="line" name="av02"/>
			<point x="145" y="0" type="line" name="hr02"/>
			<point x="475" y="0" type="line" name="ab01"/>
			<point x="475" y="-125" type="line" name="sh01"/>
			<point x="605" y="-125" type="line" name="av01"/>
			<point x="605" y="126" type="line" name="sv03"/>
			<point x="545" y="126" type="line" name="sv02"/>
			<point x="545" y="530" type="line"/>
			<point x="110" y="530" type="line" name="hr01"/>
			<point x="110" y="360" type="line" smooth="yes"/>
			<point x="110" y="235"/>
			<point x="99" y="167" name="sv01"/>
			<point x="71" y="126" type="curve" name="sv06"/>
			<point x="15" y="126" type="line" name="hr02"/>
		</contour>
		<contour>
			<point x="222" y="126" type="line" name="ih01"/>
			<point x="242" y="173" name="sv05"/>
			<point x="252" y="240" name="sv04"/>
			<point x="252" y="340" type="curve" smooth="yes" name="ih02"/>
			<point x="252" y="404" type="line" name="hr03"/>
			<point x="391" y="404" type="line"/>
			<point x="391" y="126" type="line"/>
		</contour>
	</outline>
</glyph>
<glyph name="uni0437" format="2">
	<advance width="556" height="0"/>
	<unicode hex="0437"/>
	<anchor x="278" y="0" name="bottom"/>
	<anchor x="278" y="530" name="top"/>
	<outline>
		<contour>
			<point x="276" y="-13" type="curve" smooth="yes"/>
			<point x="433" y="-13"/>
			<point x="526" y="59" name="iv04"/>
			<point x="526" y="158" type="curve" smooth="yes"/>
			<point x="526" y="214" name="at01"/>
			<point x="504" y="258" name="iv03"/>
			<point x="427" y="275" type="curve"/>
			<point x="483" y="294" name="sv03"/>
			<point x="505" y="336" name="hr01"/>
			<point x="505" y="387" type="curve" smooth="yes" name="iv02"/>
			<point x="505" y="484"/>
			<point x="424" y="543"/>
			<point x="275" y="543" type="curve" smooth="yes" name="sv02"/>
			<point x="126" y="543"/>
			<point x="42" y="480" name="sv01"/>
			<point x="35" y="355" type="curve"/>
			<point x="193" y="355" type="line" name="iv01"/>
			<point x="197" y="395" name="ih01"/>
			<point x="218" y="417" name="ih02"/>
			<point x="275" y="417" type="curve" smooth="yes" name="ih03"/>
			<point x="327" y="417"/>
			<point x="352" y="396"/>
			<point x="352" y="369" type="curve" smooth="yes"/>
			<point x="352" y="336"/>
			<point x="326" y="320"/>
			<point x="275" y="320" type="curve" smooth="yes"/>
			<point x="214" y="320" type="line"/>
			<point x="214" y="218" type="line"/>
			<point x="283" y="218" type="line" smooth="yes" name="hr02"/>
			<point x="343" y="218"/>
			<point x="368" y="202" name="hr03"/>
			<point x="368" y="167" type="curve" smooth="yes"/>
			<point x="368" y="140"/>
			<point x="341" y="114"/>
			<point x="274" y="114" type="curve" smooth="yes"/>
			<point x="197" y="114"/>
			<point x="188" y="140"/>
			<point x="183" y="180" type="curve" name="hr04"/>
			<point x="25" y="180" type="line" name="hr01"/>
			<point x="30" y="56"/>
			<point x="104" y="-13"/>
		</contour>
	</outline>
</glyph>
<glyph name="uni043B" format="2">
	<advance width="595" height="0"/>
	<unicode hex="043B"/>
	<outline>
		<contour>
			<point x="65" y="-13" type="curve" smooth="yes"/>
			<point x="185" y="-13"/>
			<point x="249" y="45" name="ih01"/>
			<point x="249" y="310" type="curve" smooth="yes" name="sv02"/>
			<point x="249" y="404" type="line"/>
			<point x="391" y="404" type="line" name="ab01"/>
			<point x="391" y="0" type="line" name="hr01"/>
			<point x="545" y="0" type="line" name="at01"/>
			<point x="545" y="530" type="line"/>
			<point x="105" y="530" type="line" name="sv01"/>
			<point x="105" y="330" type="line" smooth="yes"/>
			<point x="105" y="175"/>
			<point x="80" y="123" name="ab02"/>
			<point x="35" y="123" type="curve" smooth="yes" name="ih02"/>
			<point x="28" y="123" name="ih03"/>
			<point x="23" y="123"/>
			<point x="20" y="124" type="curve" name="hr01"/>
			<point x="20" y="-10" type="line"/>
			<point x="31" y="-13"/>
			<point x="54" y="-13"/>
		</contour>
	</outline>
</glyph>
<glyph name="uni043C" format="2">
	<advance width="720" height="0"/>
	<unicode hex="043C"/>
	<outline>
		<contour>
			<point x="50" y="0" type="line"/>
			<point x="196" y="0" type="line" name="ab02"/>
			<point x="196" y="325" type="line" name="iv03"/>
			<point x="310" y="100" type="line" name="iv01"/>
			<point x="410" y="100" type="line"/>
			<point x="524" y="325" type="line" name="iv02"/>
			<point x="524" y="0" type="line"/>
			<point x="670" y="0" type="line" name="ab01"/>
			<point x="670" y="530" type="line"/>
			<point x="489" y="530" type="line" name="at02"/>
			<point x="363" y="267" type="line" name="ih01"/>
			<point x="237" y="530" type="line"/>
			<point x="50" y="530" type="line" name="at01"/>
		</contour>
	</outline>
</glyph>
<glyph name="uni043D" format="2">
	<advance width="610" height="0"/>
	<unicode hex="043D"/>
	<anchor x="590" y="0" name="bottomright"/>
	<outline>
		<contour>
			<point x="50" y="0" type="line"/>
			<point x="204" y="0" type="line" name="ab02"/>
			<point x="204" y="207" type="line"/>
			<point x="406" y="207" type="line" name="sv01"/>
			<point x="406" y="0" type="line"/>
			<point x="560" y="0" type="line" name="ab01"/>
			<point x="560" y="530" type="line"/>
			<point x="406" y="530" type="line" name="at02"/>
			<point x="406" y="333" type="line" name="iv01"/>
			<point x="204" y="333" type="line"/>
			<point x="204" y="530" type="line" name="ih01"/>
			<point x="50" y="530" type="line" name="at01"/>
		</contour>
	</outline>
</glyph>
<glyph name="uni043F" format="2">
	<advance width="600" height="0"/>
	<unicode hex="043F"/>
	<anchor x="580" y="0" name="bottomright"/>
	<outline>
		<contour>
			<point x="50" y="0" type="line"/>
			<point x="204" y="0" type="line" name="ab02"/>
			<point x="204" y="404" type="line"/>
			<point x="396" y="404" type="line" name="sv01"/>
			<point x="396" y="0" type="line" name="ih01"/>
			<point x="550" y="0" type="line" name="ab01"/>
			<point x="550" y="530" type="line"/>
			<point x="50" y="530" type="line" name="at01"/>
		</contour>
	</outline>
</glyph>
<glyph name="uni0442" format="2">
	<advance width="520" height="0"/>
	<unicode hex="0442"/>
	<anchor x="500" y="0" name="bottomright"/>
	<outline>
		<contour>
			<point x="183" y="0" type="line"/>
			<point x="337" y="0" type="line" name="ab01"/>
			<point x="337" y="404" type="line" name="sv02"/>
			<point x="500" y="404" type="line" name="sv01"/>
			<point x="500" y="530" type="line"/>
			<point x="20" y="530" type="line" name="at01"/>
			<point x="20" y="404" type="line"/>
			<point x="183" y="404" type="line" name="ih01"/>
		</contour>
	</outline>
</glyph>
<glyph name="uni0444" format="2">
	<advance width="770" height="0"/>
	<unicode hex="0444"/>
	<outline>
		<contour>
			<point x="308" y="-200" type="line"/>
			<point x="462" y="-200" type="line" name="ab01"/>
			<point x="462" y="-13" type="line" name="ab02"/>
			<point x="641" y="-13"/>
			<point x="740" y="81"/>
			<point x="740" y="260" type="curve" smooth="yes" name="at03"/>
			<point x="740" y="280" type="line" smooth="yes"/>
			<point x="740" y="451" name="at01"/>
			<point x="641" y="543" name="at02"/>
			<point x="462" y="543" type="curve"/>
			<point x="462" y="700" type="line"/>
			<point x="308" y="700" type="line" name="sh01"/>
			<point x="308" y="543" type="line"/>
			<point x="128" y="543" name="sv01"/>
			<point x="30" y="451" name="ih01"/>
			<point x="30" y="280" type="curve" smooth="yes"/>
			<point x="30" y="260" type="line" smooth="yes"/>
			<point x="30" y="81" name="sv02"/>
			<point x="128" y="-13" name="sh02"/>
			<point x="308" y="-13" type="curve"/>
		</contour>
		<contour>
			<point x="584" y="260" type="line" smooth="yes" name="ih02"/>
			<point x="584" y="167" name="ih03"/>
			<point x="544" y="115"/>
			<point x="456" y="115" type="curve"/>
			<point x="456" y="415" type="line"/>
			<point x="544" y="415"/>
			<point x="584" y="369"/>
			<point x="584" y="280" type="curve" smooth="yes"/>
		</contour>
		<contour>
			<point x="186" y="280" type="line" smooth="yes"/>
			<point x="186" y="367"/>
			<point x="223" y="415"/>
			<point x="314" y="415" type="curve"/>
			<point x="314" y="115" type="line"/>
			<point x="226" y="115"/>
			<point x="186" y="165"/>
			<point x="186" y="260" type="curve" smooth="yes"/>
		</contour>
	</outline>
</glyph>
<glyph name="uni0446" format="2">
	<advance width="630" height="0"/>
	<unicode hex="0446"/>
	<outline>
		<contour>
			<point x="480" y="-125" type="line" name="hr02"/>
			<point x="610" y="-125" type="line" name="av01"/>
			<point x="610" y="126" type="line" name="sv03"/>
			<point x="540" y="126" type="line" name="sv02"/>
			<point x="540" y="530" type="line"/>
			<point x="386" y="530" type="line" name="at02"/>
			<point x="386" y="126" type="line" name="ih01"/>
			<point x="204" y="126" type="line" name="sv01"/>
			<point x="204" y="530" type="line" name="hr01"/>
			<point x="50" y="530" type="line" name="at01"/>
			<point x="50" y="0" type="line"/>
			<point x="480" y="0" type="line" name="ab01"/>
		</contour>
	</outline>
</glyph>
<glyph name="uni0448" format="2">
	<advance width="840" height="0"/>
	<unicode hex="0448"/>
	<outline>
		<contour>
			<point x="50" y="0" type="line"/>
			<point x="790" y="0" type="line" name="ab01"/>
			<point x="790" y="530" type="line"/>
			<point x="636" y="530" type="line" name="at03"/>
			<point x="636" y="126" type="line" name="sv03"/>
			<point x="497" y="126" type="line" name="sv02"/>
			<point x="497" y="530" type="line"/>
			<point x="343" y="530" type="line" name="at02"/>
			<point x="343" y="126" type="line" name="ih01"/>
			<point x="204" y="126" type="line" name="sv01"/>
			<point x="204" y="530" type="line"/>
			<point x="50" y="530" type="line" name="at01"/>
		</contour>
	</outline>
</glyph>
<glyph name="uni044A" format="2">
	<advance width="620" height="0"/>
	<unicode hex="044A"/>
	<outline>
		<contour>
			<point x="130" y="0" type="line"/>
			<point x="390" y="0" type="line" smooth="yes" name="ab01"/>
			<point x="541" y="0"/>
			<point x="600" y="72" name="iv01"/>
			<point x="600" y="179" type="curve" smooth="yes"/>
			<point x="600" y="300" name="ih01"/>
			<point x="529" y="358" name="at01"/>
			<point x="390" y="358" type="curve" smooth="yes"/>
			<point x="284" y="358" type="line" name="sv01"/>
			<point x="284" y="530" type="line"/>
			<point x="20" y="530" type="line" name="sh01"/>
			<point x="20" y="404" type="line" name="sv03"/>
			<point x="130" y="404" type="line"/>
		</contour>
		<contour>
			<point x="284" y="116" type="line" name="sv02"/>
			<point x="284" y="242" type="line" name="ih02"/>
			<point x="370" y="242" type="line" smooth="yes" name="ih03"/>
			<point x="425" y="242"/>
			<point x="446" y="223"/>
			<point x="446" y="179" type="curve" smooth="yes"/>
			<point x="446" y="136"/>
			<point x="425" y="116"/>
			<point x="370" y="116" type="curve" smooth="yes"/>
		</contour>
	</outline>
</glyph>
<glyph name="uni044B" format="2">
	<advance width="760"/>
	<unicode hex="044B"/>
	<outline>
		<contour>
			<point x="50" y="0" type="line"/>
			<point x="290" y="0" type="line" smooth="yes"/>
			<point x="441" y="0"/>
			<point x="500" y="72"/>
			<point x="500" y="179" type="curve" smooth="yes"/>
			<point x="500" y="300"/>
			<point x="429" y="358"/>
			<point x="290" y="358" type="curve" smooth="yes"/>
			<point x="204" y="358" type="line"/>
			<point x="204" y="530" type="line"/>
			<point x="50" y="530" type="line"/>
		</contour>
		<contour>
			<point x="204" y="116" type="line"/>
			<point x="204" y="242" type="line"/>
			<point x="270" y="242" type="line" smooth="yes"/>
			<point x="325" y="242"/>
			<point x="346" y="223"/>
			<point x="346" y="179" type="curve" smooth="yes"/>
			<point x="346" y="136"/>
			<point x="325" y="116"/>
			<point x="270" y="116" type="curve" smooth="yes"/>
		</contour>
		<contour>
			<point x="546" y="0" type="line"/>
			<point x="700" y="0" type="line"/>
			<point x="700" y="530" type="line"/>
			<point x="546" y="530" type="line"/>
		</contour>
	</outline>
</glyph>
<glyph name="uni044C" format="2">
	<advance width="550" height="0"/>
	<unicode hex="044C"/>
	<outline>
		<contour>
			<point x="60" y="0" type="line"/>
			<point x="320" y="0" type="line" smooth="yes" name="ab01"/>
			<point x="471" y="0"/>
			<point x="530" y="72" name="sh01"/>
			<point x="530" y="179" type="curve" smooth="yes"/>
			<point x="530" y="300"/>
			<point x="459" y="358" name="at01"/>
			<point x="320" y="358" type="curve" smooth="yes"/>
			<point x="214" y="358" type="line"/>
			<point x="214" y="530" type="line" name="sv01"/>
			<point x="60" y="530" type="line"/>
		</contour>
		<contour>
			<point x="214" y="116" type="line" name="ih01"/>
			<point x="214" y="242" type="line" name="ih02"/>
			<point x="300" y="242" type="line" smooth="yes" name="ih03"/>
			<point x="355" y="242"/>
			<point x="376" y="223"/>
			<point x="376" y="179" type="curve" smooth="yes"/>
			<point x="376" y="136"/>
			<point x="355" y="116"/>
			<point x="300" y="116" type="curve" smooth="yes"/>
		</contour>
	</outline>
</glyph>
<glyph name="uni044D" format="2">
	<advance width="575" height="0"/>
	<unicode hex="044D"/>
	<anchor x="288" y="530" name="top"/>
	<outline>
		<contour>
			<point x="275" y="-13" type="curve" smooth="yes"/>
			<point x="430" y="-13"/>
			<point x="545" y="77"/>
			<point x="545" y="260" type="curve" smooth="yes" name="at01"/>
			<point x="545" y="280" type="line" smooth="yes" name="iv04"/>
			<point x="545" y="448"/>
			<point x="423" y="543" name="sv02"/>
			<point x="275" y="543" type="curve" smooth="yes" name="iv02"/>
			<point x="115" y="543"/>
			<point x="33" y="452"/>
			<point x="25" y="340" type="curve" name="iv03"/>
			<point x="183" y="340" type="line" name="sv01"/>
			<point x="194" y="388"/>
			<point x="220" y="415" name="iv01"/>
			<point x="275" y="415" type="curve" smooth="yes" name="ih01"/>
			<point x="331" y="415" name="ih02"/>
			<point x="370" y="389" name="ih03"/>
			<point x="382" y="329" type="curve"/>
			<point x="225" y="329" type="line"/>
			<point x="225" y="211" type="line"/>
			<point x="383" y="211" type="line" name="hr02"/>
			<point x="371" y="142"/>
			<point x="334" y="116"/>
			<point x="275" y="116" type="curve" smooth="yes"/>
			<point x="228" y="116"/>
			<point x="194" y="141"/>
			<point x="183" y="190" type="curve" name="hr01"/>
			<point x="25" y="190" type="line"/>
			<point x="33" y="65"/>
			<point x="131" y="-13"/>
		</contour>
	</outline>
</glyph>
<glyph name="uni044E" format="2">
	<advance width="785" height="0"/>
	<unicode hex="044E"/>
	<anchor x="393" y="530" name="top"/>
	<outline>
		<contour>
			<point x="50" y="0" type="line"/>
			<point x="204" y="0" type="line"/>
			<point x="204" y="207" type="line"/>
			<point x="242" y="207" type="line"/>
			<point x="261" y="58"/>
			<point x="361" y="-13" name="hr01"/>
			<point x="495" y="-13" type="curve" smooth="yes"/>
			<point x="644" y="-13"/>
			<point x="755" y="78"/>
			<point x="755" y="260" type="curve" smooth="yes"/>
			<point x="755" y="280" type="line" smooth="yes"/>
			<point x="755" y="452"/>
			<point x="644" y="543"/>
			<point x="495" y="543" type="curve" smooth="yes"/>
			<point x="363" y="543"/>
			<point x="261" y="471"/>
			<point x="242" y="333" type="curve"/>
			<point x="204" y="333" type="line"/>
			<point x="204" y="530" type="line" name="hr02"/>
			<point x="50" y="530" type="line"/>
		</contour>
		<contour>
			<point x="495" y="115" type="curve" smooth="yes" name="hr03"/>
			<point x="428" y="115"/>
			<point x="393" y="168"/>
			<point x="393" y="260" type="curve" smooth="yes"/>
			<point x="393" y="280" type="line" smooth="yes"/>
			<point x="393" y="360"/>
			<point x="428" y="415"/>
			<point x="495" y="415" type="curve" smooth="yes"/>
			<point x="562" y="415"/>
			<point x="597" y="360"/>
			<point x="597" y="280" type="curve" smooth="yes"/>
			<point x="597" y="260" type="line" smooth="yes"/>
			<point x="597" y="171"/>
			<point x="562" y="115"/>
		</contour>
	</outline>
</glyph>
<glyph name="uni0454" format="2">
	<advance width="575" height="0"/>
	<unicode hex="0454"/>
	<outline>
		<contour>
			<point x="300" y="-13" type="curve" smooth="yes"/>
			<point x="446" y="-13" name="iv04"/>
			<point x="542" y="65"/>
			<point x="550" y="190" type="curve" name="sv02"/>
			<point x="392" y="190" type="line"/>
			<point x="381" y="141" name="iv03"/>
			<point x="347" y="116" name="iv02"/>
			<point x="300" y="116" type="curve" smooth="yes"/>
			<point x="241" y="116" name="sv01"/>
			<point x="204" y="144"/>
			<point x="192" y="211" type="curve" name="iv01"/>
			<point x="350" y="211" type="line" name="at01"/>
			<point x="350" y="329" type="line"/>
			<point x="193" y="329" type="line"/>
			<point x="206" y="386" name="ih01"/>
			<point x="244" y="415" name="ih02"/>
			<point x="300" y="415" type="curve" smooth="yes" name="ih03"/>
			<point x="355" y="415"/>
			<point x="381" y="388"/>
			<point x="392" y="340" type="curve" name="hr02"/>
			<point x="550" y="340" type="line"/>
			<point x="542" y="452"/>
			<point x="460" y="543"/>
			<point x="300" y="543" type="curve" smooth="yes"/>
			<point x="152" y="543"/>
			<point x="30" y="448"/>
			<point x="30" y="280" type="curve" smooth="yes"/>
			<point x="30" y="260" type="line" smooth="yes"/>
			<point x="30" y="77"/>
			<point x="143" y="-13"/>
		</contour>
	</outline>
</glyph>
<glyph name="uni0459" format="2">
	<advance width="865" height="0"/>
	<unicode hex="0459"/>
	<outline>
		<contour>
			<point x="65" y="-13" type="curve" smooth="yes"/>
			<point x="185" y="-13"/>
			<point x="249" y="45"/>
			<point x="249" y="310" type="curve" smooth="yes" name="sv02"/>
			<point x="249" y="404" type="line" name="ih01"/>
			<point x="381" y="404" type="line" name="ab02"/>
			<point x="381" y="0" type="line" name="hr01"/>
			<point x="635" y="0" type="line" smooth="yes" name="iv01"/>
			<point x="786" y="0"/>
			<point x="845" y="72"/>
			<point x="845" y="179" type="curve" smooth="yes" name="hr01"/>
			<point x="845" y="300"/>
			<point x="774" y="358" name="sv01"/>
			<point x="635" y="358" type="curve" smooth="yes"/>
			<point x="535" y="358" type="line"/>
			<point x="535" y="530" type="line" name="ab01"/>
			<point x="105" y="530" type="line"/>
			<point x="105" y="330" type="line" smooth="yes" name="sh01"/>
			<point x="105" y="175" name="sv04"/>
			<point x="80" y="123"/>
			<point x="35" y="123" type="curve" smooth="yes" name="sv03"/>
			<point x="28" y="123" name="ih02"/>
			<point x="23" y="123" name="ih03"/>
			<point x="20" y="124" type="curve" name="hr02"/>
			<point x="20" y="-10" type="line"/>
			<point x="31" y="-13"/>
			<point x="54" y="-13"/>
		</contour>
		<contour>
			<point x="535" y="116" type="line"/>
			<point x="535" y="242" type="line"/>
			<point x="615" y="242" type="line" smooth="yes"/>
			<point x="670" y="242"/>
			<point x="691" y="223"/>
			<point x="691" y="179" type="curve" smooth="yes"/>
			<point x="691" y="136"/>
			<point x="670" y="116"/>
			<point x="615" y="116" type="curve" smooth="yes"/>
		</contour>
	</outline>
</glyph>
<glyph name="uni045A" format="2">
	<advance width="890" height="0"/>
	<unicode hex="045A"/>
	<outline>
		<contour>
			<point x="50" y="0" type="line"/>
			<point x="204" y="0" type="line" name="ab02"/>
			<point x="204" y="222" type="line" name="sv01"/>
			<point x="396" y="222" type="line"/>
			<point x="396" y="0" type="line"/>
			<point x="670" y="0" type="line" smooth="yes" name="ab01"/>
			<point x="811" y="0"/>
			<point x="870" y="73"/>
			<point x="870" y="172" type="curve" smooth="yes" name="iv02"/>
			<point x="870" y="285"/>
			<point x="799" y="343" name="at02"/>
			<point x="670" y="343" type="curve" smooth="yes" name="ih01"/>
			<point x="550" y="343" type="line" name="iv01"/>
			<point x="550" y="530" type="line"/>
			<point x="396" y="530" type="line" name="at01"/>
			<point x="396" y="348" type="line"/>
			<point x="204" y="348" type="line" name="sh01"/>
			<point x="204" y="530" type="line"/>
			<point x="50" y="530" type="line"/>
		</contour>
		<contour>
			<point x="550" y="116" type="line" name="sv02"/>
			<point x="550" y="227" type="line" name="ih02"/>
			<point x="650" y="227" type="line" smooth="yes" name="ih03"/>
			<point x="694" y="227"/>
			<point x="716" y="209"/>
			<point x="716" y="172" type="curve" smooth="yes"/>
			<point x="716" y="137"/>
			<point x="694" y="116"/>
			<point x="650" y="116" type="curve" smooth="yes"/>
		</contour>
	</outline>
</glyph>
<glyph name="uni045B" format="2">
	<advance width="635" height="0"/>
	<unicode hex="045B"/>
	<outline>
		<contour>
			<point x="100" y="0" type="line"/>
			<point x="254" y="0" type="line"/>
			<point x="254" y="140" type="line" smooth="yes"/>
			<point x="254" y="200"/>
			<point x="286" y="245"/>
			<point x="355" y="245" type="curve" smooth="yes"/>
			<point x="419" y="245"/>
			<point x="446" y="209"/>
			<point x="446" y="140" type="curve" smooth="yes"/>
			<point x="446" y="0" type="line"/>
			<point x="600" y="0" type="line"/>
			<point x="600" y="176" type="line" smooth="yes"/>
			<point x="600" y="301"/>
			<point x="534" y="373"/>
			<point x="413" y="373" type="curve" smooth="yes"/>
			<point x="329" y="373"/>
			<point x="275" y="327"/>
			<point x="254" y="293" type="curve"/>
			<point x="254" y="420" type="line"/>
			<point x="470" y="420" type="line"/>
			<point x="470" y="530" type="line"/>
			<point x="254" y="530" type="line"/>
			<point x="254" y="700" type="line"/>
			<point x="100" y="700" type="line"/>
			<point x="100" y="530" type="line"/>
			<point x="10" y="530" type="line"/>
			<point x="10" y="420" type="line"/>
			<point x="100" y="420" type="line"/>
		</contour>
	</outline>
</glyph>
<glyph name="uni0490" format="2">
	<advance width="560" height="0"/>
	<unicode hex="0490"/>
	<outline>
		<contour>
			<point x="70" y="0" type="line"/>
			<point x="250" y="0" type="line" name="ab01"/>
			<point x="250" y="552" type="line" name="ih01"/>
			<point x="540" y="552" type="line" name="sv02"/>
			<point x="540" y="830" type="line"/>
			<point x="384" y="830" type="line" name="sv01"/>
			<point x="384" y="700" type="line"/>
			<point x="70" y="700" type="line" name="at01"/>
		</contour>
	</outline>
</glyph>
<glyph name="uni0491" format="2">
	<advance width="460" height="0"/>
	<unicode hex="0491"/>
	<outline>
		<contour>
			<point x="50" y="0" type="line"/>
			<point x="204" y="0" type="line" name="ab01"/>
			<point x="204" y="404" type="line" name="ih01"/>
			<point x="440" y="404" type="line" name="sv02"/>
			<point x="440" y="655" type="line"/>
			<point x="310" y="655" type="line" name="sv01"/>
			<point x="310" y="530" type="line"/>
			<point x="50" y="530" type="line" name="at01"/>
		</contour>
	</outline>
</glyph>
<glyph name="uni0493" format="2">
	<advance width="495" height="0"/>
	<unicode hex="0493"/>
	<guideline y="259"/>
	<outline>
		<contour>
			<point x="20" y="177" type="line"/>
			<point x="85" y="177" type="line" name="sv04"/>
			<point x="85" y="0" type="line"/>
			<point x="239" y="0" type="line" name="ab01"/>
			<point x="239" y="177" type="line"/>
			<point x="385" y="177" type="line" name="sv03"/>
			<point x="385" y="303" type="line" name="iv01"/>
			<point x="239" y="303" type="line"/>
			<point x="239" y="404" type="line" name="ih01"/>
			<point x="475" y="404" type="line" name="sv02"/>
			<point x="475" y="530" type="line"/>
			<point x="85" y="530" type="line" name="at01"/>
			<point x="85" y="303" type="line"/>
			<point x="20" y="303" type="line" name="sv01"/>
		</contour>
	</outline>
</glyph>
<glyph name="uni0494" format="2">
	<advance width="669" height="0"/>
	<unicode hex="0494"/>
	<outline>
		<contour>
			<point x="70" y="0" type="line"/>
			<point x="250" y="0" type="line" name="ab01"/>
			<point x="250" y="296" type="line"/>
			<point x="273" y="307" name="ih01"/>
			<point x="302" y="315"/>
			<point x="345" y="315" type="curve" smooth="yes"/>
			<point x="405" y="315" name="sv02"/>
			<point x="440" y="285"/>
			<point x="440" y="205" type="curve" smooth="yes"/>
			<point x="440" y="0" type="line" smooth="yes" name="av01"/>
			<point x="440" y="-55"/>
			<point x="423" y="-92"/>
			<point x="368" y="-92" type="curve" smooth="yes" name="iv01"/>
			<point x="321" y="-92" type="line"/>
			<point x="321" y="-227" type="line"/>
			<point x="385" y="-227" type="line" smooth="yes" name="sv01"/>
			<point x="572" y="-227"/>
			<point x="620" y="-100" name="at01"/>
			<point x="620" y="0" type="curve" smooth="yes" name="ih02"/>
			<point x="620" y="235" type="line" smooth="yes" name="ih03"/>
			<point x="620" y="396"/>
			<point x="545" y="465"/>
			<point x="400" y="465" type="curve" smooth="yes"/>
			<point x="336" y="465"/>
			<point x="285" y="451"/>
			<point x="250" y="432" type="curve"/>
			<point x="250" y="552" type="line"/>
			<point x="540" y="552" type="line"/>
			<point x="540" y="700" type="line"/>
			<point x="70" y="700" type="line"/>
		</contour>
	</outline>
</glyph>
<glyph name="uni0497" format="2">
	<advance width="847" height="0"/>
	<unicode hex="0497"/>
	<outline>
		<contour>
			<point x="827" y="-125" type="line"/>
			<point x="827" y="126" type="line"/>
			<point x="732" y="126" type="line" name="sv05"/>
			<point x="635" y="284" type="line" name="iv02"/>
			<point x="800" y="530" type="line"/>
			<point x="644" y="530" type="line" name="at03"/>
			<point x="517" y="327" type="line" name="iv01"/>
			<point x="487" y="327" type="line"/>
			<point x="487" y="530" type="line"/>
			<point x="333" y="530" type="line" name="at02"/>
			<point x="333" y="327" type="line"/>
			<point x="303" y="327" type="line" name="sv04"/>
			<point x="183" y="530" type="line"/>
			<point x="21" y="530" type="line" name="at01"/>
			<point x="185" y="273" type="line" name="sv03"/>
			<point x="10" y="0" type="line"/>
			<point x="174" y="0" type="line" name="ab03"/>
			<point x="302" y="213" type="line"/>
			<point x="333" y="213" type="line" name="sv02"/>
			<point x="333" y="0" type="line"/>
			<point x="487" y="0" type="line" name="ab02"/>
			<point x="487" y="213" type="line" name="ih01"/>
			<point x="517" y="213" type="line" name="sv01"/>
			<point x="640" y="0" type="line"/>
			<point x="697" y="0" type="line" name="ab01"/>
			<point x="697" y="-125" type="line" name="av01"/>
		</contour>
	</outline>
</glyph>
<glyph name="uni0498" format="2">
	<advance width="668"/>
	<unicode hex="0498"/>
	<outline>
		<component base="uni0417"/>
		<contour>
			<point x="421" y="-5" type="line" name="ab01"/>
			<point x="265" y="-4" type="line"/>
			<point x="265" y="-130" type="line"/>
			<point x="421" y="-130" type="line" name="av01"/>
		</contour>
	</outline>
</glyph>
<glyph name="uni049A" format="2">
	<advance width="756" height="0"/>
	<unicode hex="049A"/>
	<guideline y="0"/>
	<outline>
		<contour>
			<point x="731" y="-130" type="line"/>
			<point x="731" y="148" type="line"/>
			<point x="609" y="148" type="line" name="sv02"/>
			<point x="440" y="373" type="line" name="ih01"/>
			<point x="710" y="700" type="line"/>
			<point x="514" y="700" type="line" name="at02"/>
			<point x="300" y="423" type="line" name="iv01"/>
			<point x="250" y="423" type="line"/>
			<point x="250" y="700" type="line"/>
			<point x="70" y="700" type="line" name="at01"/>
			<point x="70" y="0" type="line"/>
			<point x="250" y="0" type="line" name="ab02"/>
			<point x="250" y="297" type="line"/>
			<point x="300" y="297" type="line" name="sv01"/>
			<point x="510" y="0" type="line"/>
			<point x="575" y="0" type="line" name="ab01"/>
			<point x="575" y="-130" type="line" name="av01"/>
		</contour>
	</outline>
</glyph>
<glyph name="uni049B" format="2">
	<advance width="594" height="0"/>
	<unicode hex="049B"/>
	<guideline y="0"/>
	<outline>
		<contour>
			<point x="574" y="-125" type="line"/>
			<point x="574" y="126" type="line"/>
			<point x="478" y="126" type="line" name="sv02"/>
			<point x="365" y="281" type="line" name="iv02"/>
			<point x="560" y="530" type="line"/>
			<point x="392" y="530" type="line" name="at02"/>
			<point x="244" y="329" type="line"/>
			<point x="204" y="329" type="line" name="iv01"/>
			<point x="204" y="530" type="line"/>
			<point x="50" y="530" type="line" name="at01"/>
			<point x="50" y="0" type="line"/>
			<point x="204" y="0" type="line" name="ab02"/>
			<point x="204" y="211" type="line" name="sv01"/>
			<point x="244" y="211" type="line" name="ih01"/>
			<point x="388" y="0" type="line"/>
			<point x="444" y="0" type="line" name="ab01"/>
			<point x="444" y="-125" type="line" name="av01"/>
		</contour>
	</outline>
</glyph>
<glyph name="uni049C" format="2">
	<advance width="808" height="0"/>
	<unicode hex="049C"/>
	<outline>
		<contour>
			<point x="70" y="0" type="line"/>
			<point x="250" y="0" type="line" name="ab02"/>
			<point x="250" y="297" type="line"/>
			<point x="293" y="297" type="line" name="sv04"/>
			<point x="293" y="185" type="line"/>
			<point x="429" y="185" type="line" name="sv03"/>
			<point x="429" y="297" type="line"/>
			<point x="454" y="297" type="line" name="sv02"/>
			<point x="584" y="0" type="line"/>
			<point x="793" y="0" type="line" name="ab01"/>
			<point x="596" y="382" type="line" name="iv02"/>
			<point x="746" y="700" type="line"/>
			<point x="567" y="700" type="line" name="at02"/>
			<point x="454" y="423" type="line" name="iv01"/>
			<point x="429" y="423" type="line"/>
			<point x="429" y="545" type="line" name="ih01"/>
			<point x="293" y="545" type="line"/>
			<point x="293" y="423" type="line"/>
			<point x="250" y="423" type="line" name="sv01"/>
			<point x="250" y="700" type="line"/>
			<point x="70" y="700" type="line" name="at01"/>
		</contour>
	</outline>
</glyph>
<glyph name="uni04A0" format="2">
	<advance width="833" height="0"/>
	<unicode hex="04A0"/>
	<guideline y="651"/>
	<outline>
		<contour>
			<point x="20" y="570" type="line" name="sv04"/>
			<point x="168" y="570" type="line"/>
			<point x="168" y="0" type="line"/>
			<point x="348" y="0" type="line" name="ab02"/>
			<point x="348" y="297" type="line" name="sv03"/>
			<point x="398" y="297" type="line"/>
			<point x="608" y="0" type="line"/>
			<point x="818" y="0" type="line" name="ab01"/>
			<point x="538" y="373" type="line" name="iv02"/>
			<point x="808" y="700" type="line" name="sv02"/>
			<point x="612" y="700" type="line" name="sv01"/>
			<point x="398" y="423" type="line" name="ih01"/>
			<point x="348" y="423" type="line" name="iv01"/>
			<point x="348" y="700" type="line"/>
			<point x="20" y="700" type="line" name="at01"/>
		</contour>
	</outline>
</glyph>
<glyph name="uni04A1" format="2">
	<advance width="660" height="0"/>
	<unicode hex="04A1"/>
	<outline>
		<contour>
			<point x="20" y="402" type="line"/>
			<point x="130" y="402" type="line" name="sv02"/>
			<point x="130" y="0" type="line"/>
			<point x="284" y="0" type="line" name="ab02"/>
			<point x="284" y="211" type="line" name="sv01"/>
			<point x="324" y="211" type="line"/>
			<point x="468" y="0" type="line"/>
			<point x="650" y="0" type="line" name="ab01"/>
			<point x="445" y="281" type="line" name="iv02"/>
			<point x="640" y="530" type="line"/>
			<point x="472" y="530" type="line" name="at02"/>
			<point x="324" y="329" type="line" name="ih01"/>
			<point x="284" y="329" type="line" name="iv01"/>
			<point x="284" y="530" type="line"/>
			<point x="20" y="530" type="line" name="at01"/>
		</contour>
	</outline>
</glyph>
<glyph name="uni04A2" format="2">
	<advance width="786" height="0"/>
	<unicode hex="04A2"/>
	<outline>
		<contour>
			<point x="761" y="-130" type="line"/>
			<point x="761" y="148" type="line" name="hr02"/>
			<point x="690" y="148" type="line" name="sv02"/>
			<point x="690" y="700" type="line"/>
			<point x="510" y="700" type="line" name="at02"/>
			<point x="510" y="434" type="line" name="iv01"/>
			<point x="250" y="434" type="line"/>
			<point x="250" y="700" type="line"/>
			<point x="70" y="700" type="line" name="at01"/>
			<point x="70" y="0" type="line"/>
			<point x="250" y="0" type="line" name="ab02"/>
			<point x="250" y="286" type="line"/>
			<point x="510" y="286" type="line" name="sv01"/>
			<point x="510" y="0" type="line" name="hr01"/>
			<point x="605" y="0" type="line" name="ab01"/>
			<point x="605" y="-130" type="line" name="av01"/>
		</contour>
	</outline>
</glyph>
<glyph name="uni04A3" format="2">
	<advance width="640" height="0"/>
	<unicode hex="04A3"/>
	<outline>
		<contour>
			<point x="620" y="-125" type="line"/>
			<point x="620" y="126" type="line" name="hr02"/>
			<point x="560" y="126" type="line" name="sv02"/>
			<point x="560" y="530" type="line"/>
			<point x="406" y="530" type="line" name="at02"/>
			<point x="406" y="333" type="line" name="iv01"/>
			<point x="204" y="333" type="line"/>
			<point x="204" y="530" type="line"/>
			<point x="50" y="530" type="line" name="at01"/>
			<point x="50" y="0" type="line"/>
			<point x="204" y="0" type="line" name="ab02"/>
			<point x="204" y="207" type="line"/>
			<point x="406" y="207" type="line" name="sv01"/>
			<point x="406" y="0" type="line" name="hr01"/>
			<point x="490" y="0" type="line" name="ab01"/>
			<point x="490" y="-125" type="line" name="av01"/>
		</contour>
	</outline>
</glyph>
<glyph name="uni04AA" format="2">
	<advance width="710" height="0"/>
	<unicode hex="04AA"/>
	<outline>
		<contour>
			<point x="450" y="-130" type="line"/>
			<point x="450" y="-7" type="line"/>
			<point x="463" y="-5"/>
			<point x="475" y="-3"/>
			<point x="487" y="0" type="curve" smooth="yes"/>
			<point x="594" y="28"/>
			<point x="667" y="101"/>
			<point x="675" y="240" type="curve"/>
			<point x="489" y="240" type="line"/>
			<point x="480" y="168"/>
			<point x="438" y="137"/>
			<point x="370" y="137" type="curve" smooth="yes"/>
			<point x="296" y="137"/>
			<point x="231" y="189"/>
			<point x="231" y="344" type="curve" smooth="yes"/>
			<point x="231" y="365" type="line" smooth="yes"/>
			<point x="231" y="510"/>
			<point x="290" y="563"/>
			<point x="370" y="563" type="curve" smooth="yes"/>
			<point x="427" y="563"/>
			<point x="476" y="535"/>
			<point x="489" y="460" type="curve"/>
			<point x="675" y="460" type="line"/>
			<point x="662" y="643"/>
			<point x="533" y="713"/>
			<point x="370" y="713" type="curve" smooth="yes"/>
			<point x="188" y="713"/>
			<point x="45" y="610"/>
			<point x="45" y="365" type="curve" smooth="yes"/>
			<point x="45" y="346" type="line" smooth="yes"/>
			<point x="45" y="152"/>
			<point x="120" y="45"/>
			<point x="238" y="6" type="curve"/>
			<point x="256" y="1"/>
			<point x="275" y="-4"/>
			<point x="294" y="-7" type="curve"/>
			<point x="294" y="-130" type="line"/>
		</contour>
	</outline>
</glyph>
<glyph name="uni04AB" format="2">
	<advance width="575" height="0"/>
	<unicode hex="04AB"/>
	<outline>
		<contour>
			<point x="364" y="-125" type="line" name="av01"/>
			<point x="364" y="-7" type="line" name="sv03"/>
			<point x="376" y="-5"/>
			<point x="388" y="-2" name="iv02"/>
			<point x="399" y="1" type="curve"/>
			<point x="488" y="31" name="sv02"/>
			<point x="544" y="95"/>
			<point x="550" y="190" type="curve"/>
			<point x="392" y="190" type="line" name="sv01"/>
			<point x="381" y="141"/>
			<point x="347" y="116" name="iv01"/>
			<point x="300" y="116" type="curve" smooth="yes" name="ih01"/>
			<point x="232" y="116"/>
			<point x="188" y="161"/>
			<point x="188" y="260" type="curve" smooth="yes"/>
			<point x="188" y="280" type="line" smooth="yes" name="ab01"/>
			<point x="188" y="371"/>
			<point x="235" y="415" name="ih02"/>
			<point x="300" y="415" type="curve" smooth="yes" name="ih03"/>
			<point x="355" y="415"/>
			<point x="381" y="388"/>
			<point x="392" y="340" type="curve" name="hr01"/>
			<point x="550" y="340" type="line"/>
			<point x="542" y="452"/>
			<point x="460" y="543"/>
			<point x="300" y="543" type="curve" smooth="yes"/>
			<point x="152" y="543"/>
			<point x="30" y="448"/>
			<point x="30" y="280" type="curve" smooth="yes"/>
			<point x="30" y="260" type="line" smooth="yes"/>
			<point x="30" y="123"/>
			<point x="94" y="38"/>
			<point x="191" y="4" type="curve" smooth="yes"/>
			<point x="205" y="-1"/>
			<point x="219" y="-4"/>
			<point x="234" y="-7" type="curve"/>
			<point x="234" y="-125" type="line"/>
		</contour>
	</outline>
</glyph>
<glyph name="uni04AE" format="2">
	<advance width="700" height="0"/>
	<unicode hex="04AE"/>
	<outline>
		<contour>
			<point x="450" y="0" type="line"/>
			<point x="450" y="262" type="line"/>
			<point x="690" y="700" type="line"/>
			<point x="502" y="700" type="line" name="at02"/>
			<point x="364" y="440" type="line" name="ih01"/>
			<point x="218" y="700" type="line"/>
			<point x="10" y="700" type="line" name="at01"/>
			<point x="270" y="262" type="line"/>
			<point x="270" y="0" type="line" name="ab01"/>
		</contour>
	</outline>
</glyph>
<glyph name="uni04B0" format="2">
	<advance width="700" height="0"/>
	<unicode hex="04B0"/>
	<guideline y="219"/>
	<outline>
		<contour>
			<point x="270" y="0" type="line"/>
			<point x="450" y="0" type="line" name="ab01"/>
			<point x="450" y="149" type="line"/>
			<point x="570" y="149" type="line" name="sv03"/>
			<point x="570" y="297" type="line"/>
			<point x="453" y="297" type="line" name="sv02"/>
			<point x="690" y="700" type="line"/>
			<point x="502" y="700" type="line" name="at02"/>
			<point x="364" y="451" type="line" name="ih01"/>
			<point x="218" y="700" type="line"/>
			<point x="10" y="700" type="line" name="at01"/>
			<point x="267" y="297" type="line" name="iv01"/>
			<point x="150" y="297" type="line"/>
			<point x="150" y="149" type="line"/>
			<point x="270" y="149" type="line" name="sv01"/>
		</contour>
	</outline>
</glyph>
<glyph name="uni04B1" format="2">
	<advance width="600" height="0"/>
	<unicode hex="04B1"/>
	<outline>
		<contour>
			<point x="82" y="0" type="line"/>
			<point x="236" y="0" type="line" name="ab02"/>
			<point x="236" y="-226" type="line"/>
			<point x="390" y="-226" type="line" name="av01"/>
			<point x="390" y="0" type="line"/>
			<point x="538" y="0" type="line" name="ab01"/>
			<point x="538" y="126" type="line" name="sv03"/>
			<point x="426" y="126" type="line" name="sv02"/>
			<point x="590" y="530" type="line"/>
			<point x="436" y="530" type="line" name="at02"/>
			<point x="314" y="197" type="line" name="ih01"/>
			<point x="180" y="530" type="line"/>
			<point x="10" y="530" type="line" name="at01"/>
			<point x="190" y="126" type="line"/>
			<point x="82" y="126" type="line" name="sv01"/>
		</contour>
	</outline>
</glyph>
<glyph name="uni04B3" format="2">
	<advance width="605" height="0"/>
	<unicode hex="04B3"/>
	<guideline y="0"/>
	<outline>
		<contour>
			<point x="585" y="-125" type="line"/>
			<point x="585" y="126" type="line"/>
			<point x="494" y="126" type="line" name="sv01"/>
			<point x="402" y="281" type="line"/>
			<point x="560" y="530" type="line"/>
			<point x="394" y="530" type="line" name="at02"/>
			<point x="294" y="368" type="line" name="ih01"/>
			<point x="190" y="530" type="line"/>
			<point x="20" y="530" type="line" name="at01"/>
			<point x="179" y="276" type="line"/>
			<point x="10" y="0" type="line"/>
			<point x="177" y="0" type="line" name="ab02"/>
			<point x="288" y="189" type="line" name="iv01"/>
			<point x="399" y="0" type="line"/>
			<point x="455" y="0" type="line" name="ab01"/>
			<point x="455" y="-125" type="line" name="av01"/>
		</contour>
	</outline>
</glyph>
<glyph name="uni04B8" format="2">
	<advance width="745" height="0"/>
	<unicode hex="04B8"/>
	<outline>
		<contour>
			<point x="675" y="0" type="line"/>
			<point x="675" y="700" type="line"/>
			<point x="495" y="700" type="line" name="at02"/>
			<point x="495" y="438" type="line"/>
			<point x="479" y="427" name="sv04"/>
			<point x="460" y="417"/>
			<point x="433" y="409" type="curve" name="sv03"/>
			<point x="433" y="518" type="line" name="iv01"/>
			<point x="297" y="518" type="line"/>
			<point x="297" y="405" type="line"/>
			<point x="250" y="418" name="at01"/>
			<point x="225" y="453"/>
			<point x="225" y="518" type="curve" smooth="yes" name="sv01"/>
			<point x="225" y="700" type="line" name="sv02"/>
			<point x="45" y="700" type="line"/>
			<point x="45" y="488" type="line" smooth="yes" name="ih01"/>
			<point x="45" y="319" name="iv02"/>
			<point x="138" y="258" name="ab01"/>
			<point x="297" y="258" type="curve" name="ih02"/>
			<point x="297" y="158" type="line" name="ih03"/>
			<point x="433" y="158" type="line"/>
			<point x="433" y="276" type="line"/>
			<point x="458" y="284"/>
			<point x="478" y="293"/>
			<point x="495" y="302" type="curve"/>
			<point x="495" y="0" type="line"/>
		</contour>
	</outline>
</glyph>
<glyph name="uni04B9" format="2">
	<advance width="635" height="0"/>
	<unicode hex="04B9"/>
	<guideline y="232"/>
	<outline>
		<contour>
			<point x="421" y="0" type="line"/>
			<point x="575" y="0" type="line" name="ab01"/>
			<point x="575" y="530" type="line"/>
			<point x="421" y="530" type="line" name="at02"/>
			<point x="421" y="334" type="line"/>
			<point x="414" y="328" name="sv04"/>
			<point x="398" y="322"/>
			<point x="374" y="317" type="curve" name="sv03"/>
			<point x="374" y="412" type="line" name="iv01"/>
			<point x="244" y="412" type="line"/>
			<point x="244" y="314" type="line"/>
			<point x="204" y="325" name="at01"/>
			<point x="189" y="347"/>
			<point x="189" y="390" type="curve" smooth="yes" name="sv01"/>
			<point x="189" y="530" type="line" name="sv02"/>
			<point x="35" y="530" type="line"/>
			<point x="35" y="375" type="line" smooth="yes" name="ih01"/>
			<point x="35" y="246"/>
			<point x="99" y="184" name="ih02"/>
			<point x="244" y="181" type="curve" name="ih03"/>
			<point x="244" y="86" type="line"/>
			<point x="374" y="86" type="line"/>
			<point x="374" y="198" type="line"/>
			<point x="392" y="204"/>
			<point x="407" y="209"/>
			<point x="421" y="216" type="curve"/>
		</contour>
	</outline>
</glyph>
<glyph name="uni04BA" format="2">
	<advance width="670" height="0"/>
	<unicode hex="04BA"/>
	<anchor x="650" y="0" name="bottomright"/>
	<outline>
		<contour>
			<point x="70" y="700" type="line"/>
			<point x="70" y="0" type="line"/>
			<point x="250" y="0" type="line"/>
			<point x="250" y="300" type="line"/>
			<point x="274" y="315"/>
			<point x="309" y="330"/>
			<point x="357" y="330" type="curve" smooth="yes"/>
			<point x="425" y="330"/>
			<point x="460" y="300"/>
			<point x="460" y="220" type="curve" smooth="yes"/>
			<point x="460" y="0" type="line"/>
			<point x="640" y="0" type="line"/>
			<point x="640" y="250" type="line" smooth="yes"/>
			<point x="640" y="411"/>
			<point x="566" y="480"/>
			<point x="422" y="480" type="curve" smooth="yes"/>
			<point x="342" y="480"/>
			<point x="285" y="459"/>
			<point x="250" y="436" type="curve"/>
			<point x="250" y="700" type="line"/>
		</contour>
	</outline>
</glyph>
<glyph name="uni04C3" format="2">
	<advance width="719" height="0"/>
	<unicode hex="04C3"/>
	<outline>
		<contour>
			<point x="70" y="0" type="line"/>
			<point x="250" y="0" type="line" name="ab01"/>
			<point x="250" y="297" type="line"/>
			<point x="375" y="297" type="line" smooth="yes" name="sv03"/>
			<point x="435" y="297"/>
			<point x="470" y="260"/>
			<point x="470" y="184" type="curve" smooth="yes" name="sv02"/>
			<point x="470" y="0" type="line" smooth="yes"/>
			<point x="470" y="-55" name="ih01"/>
			<point x="453" y="-92" name="av01"/>
			<point x="398" y="-92" type="curve" smooth="yes"/>
			<point x="351" y="-92" type="line"/>
			<point x="351" y="-227" type="line" name="sv01"/>
			<point x="415" y="-227" type="line" smooth="yes"/>
			<point x="602" y="-227" name="at02"/>
			<point x="650" y="-100" name="iv01"/>
			<point x="650" y="0" type="curve" smooth="yes"/>
			<point x="650" y="215" type="line" smooth="yes"/>
			<point x="650" y="332" name="at01"/>
			<point x="589" y="396" name="ih02"/>
			<point x="488" y="416" type="curve" name="ih03"/>
			<point x="670" y="700" type="line"/>
			<point x="474" y="700" type="line"/>
			<point x="320" y="423" type="line"/>
			<point x="250" y="423" type="line"/>
			<point x="250" y="700" type="line"/>
			<point x="70" y="700" type="line"/>
		</contour>
	</outline>
</glyph>
<glyph name="uni04C7" format="2">
	<advance width="760" height="0"/>
	<unicode hex="04C7"/>
	<outline>
		<contour>
			<point x="70" y="0" type="line"/>
			<point x="250" y="0" type="line" name="ab03"/>
			<point x="250" y="286" type="line"/>
			<point x="510" y="286" type="line" name="sv02"/>
			<point x="510" y="0" type="line" smooth="yes" name="ab02"/>
			<point x="510" y="-55" name="sv01"/>
			<point x="493" y="-92"/>
			<point x="438" y="-92" type="curve" smooth="yes" name="ih01"/>
			<point x="391" y="-92" type="line" name="av01"/>
			<point x="391" y="-227" type="line" name="ab01"/>
			<point x="455" y="-227" type="line" smooth="yes"/>
			<point x="642" y="-227" name="at02"/>
			<point x="690" y="-100" name="iv01"/>
			<point x="690" y="0" type="curve" smooth="yes"/>
			<point x="690" y="700" type="line"/>
			<point x="510" y="700" type="line" name="at01"/>
			<point x="510" y="434" type="line" name="ih02"/>
			<point x="250" y="434" type="line" name="ih03"/>
			<point x="250" y="700" type="line"/>
			<point x="70" y="700" type="line"/>
		</contour>
	</outline>
</glyph>
<glyph name="uni04C8" format="2">
	<advance width="610" height="0"/>
	<unicode hex="04C8"/>
	<outline>
		<contour>
			<point x="50" y="0" type="line"/>
			<point x="204" y="0" type="line" name="ab02"/>
			<point x="204" y="207" type="line"/>
			<point x="406" y="207" type="line" name="sv02"/>
			<point x="406" y="15" type="line" smooth="yes"/>
			<point x="406" y="-68" name="sv01"/>
			<point x="387" y="-85"/>
			<point x="355" y="-85" type="curve" smooth="yes" name="ih01"/>
			<point x="344" y="-85" name="ab01"/>
			<point x="331" y="-85"/>
			<point x="320" y="-82" type="curve" name="hr01"/>
			<point x="320" y="-210" type="line" name="at02"/>
			<point x="335" y="-213" name="iv01"/>
			<point x="355" y="-213"/>
			<point x="370" y="-213" type="curve" smooth="yes" name="hr02"/>
			<point x="518" y="-213" name="at01"/>
			<point x="560" y="-168" name="ih02"/>
			<point x="560" y="0" type="curve" smooth="yes" name="hr01"/>
			<point x="560" y="530" type="line"/>
			<point x="406" y="530" type="line" name="hr02"/>
			<point x="406" y="333" type="line"/>
			<point x="204" y="333" type="line"/>
			<point x="204" y="530" type="line"/>
			<point x="50" y="530" type="line"/>
		</contour>
	</outline>
</glyph>
<glyph name="uni04CC" format="2">
	<advance width="575" height="0"/>
	<unicode hex="04CC"/>
	<guideline y="232"/>
	<outline>
		<contour>
			<point x="301" y="-125" type="line"/>
			<point x="431" y="-125" type="line"/>
			<point x="431" y="0" type="line" name="hr01"/>
			<point x="515" y="0" type="line" name="hr02"/>
			<point x="515" y="530" type="line"/>
			<point x="361" y="530" type="line"/>
			<point x="361" y="324" type="line"/>
			<point x="350" y="313"/>
			<point x="320" y="299"/>
			<point x="275" y="299" type="curve" smooth="yes" name="hr02"/>
			<point x="211" y="299"/>
			<point x="189" y="320"/>
			<point x="189" y="380" type="curve" smooth="yes"/>
			<point x="189" y="530" type="line"/>
			<point x="35" y="530" type="line"/>
			<point x="35" y="365" type="line" smooth="yes"/>
			<point x="35" y="233"/>
			<point x="94" y="171"/>
			<point x="230" y="171" type="curve" smooth="yes"/>
			<point x="294" y="171"/>
			<point x="330" y="189"/>
			<point x="361" y="206" type="curve" name="hr01"/>
			<point x="361" y="111" type="line" name="hr03"/>
			<point x="301" y="111" type="line" name="hr04"/>
		</contour>
	</outline>
</glyph>
<glyph name="uni04CF" format="2">
	<advance width="264" height="0"/>
	<unicode hex="04CF"/>
	<outline>
		<contour>
			<point x="209" y="0" type="line"/>
			<point x="209" y="700" type="line"/>
			<point x="55" y="700" type="line" name="at01"/>
			<point x="55" y="0" type="line" name="ih01"/>
		</contour>
	</outline>
</glyph>
<glyph name="uni04D8" format="2">
	<advance width="735" height="0"/>
	<unicode hex="04D8"/>
	<anchor x="368" y="700" name="top"/>
	<outline>
		<contour>
			<point x="352" y="-13" type="curve" smooth="yes"/>
			<point x="540" y="-13"/>
			<point x="690" y="91"/>
			<point x="690" y="345" type="curve" smooth="yes" name="at01"/>
			<point x="690" y="365" type="line" smooth="yes"/>
			<point x="690" y="607" name="iv02"/>
			<point x="543" y="713" name="ih01"/>
			<point x="355" y="713" type="curve" smooth="yes" name="iv01"/>
			<point x="203" y="713"/>
			<point x="76" y="641"/>
			<point x="55" y="470" type="curve" name="ab01"/>
			<point x="241" y="470" type="line"/>
			<point x="256" y="537"/>
			<point x="298" y="563" name="iv03"/>
			<point x="357" y="563" type="curve" smooth="yes" name="sh01"/>
			<point x="433" y="563" name="ih02"/>
			<point x="491" y="522" name="ih03"/>
			<point x="502" y="403" type="curve"/>
			<point x="40" y="403" type="line"/>
			<point x="40" y="345" type="line" smooth="yes"/>
			<point x="40" y="91"/>
			<point x="165" y="-13"/>
		</contour>
		<contour>
			<point x="355" y="137" type="curve" smooth="yes"/>
			<point x="274" y="137"/>
			<point x="219" y="175"/>
			<point x="208" y="298" type="curve"/>
			<point x="502" y="298" type="line"/>
			<point x="491" y="182"/>
			<point x="444" y="137"/>
		</contour>
	</outline>
</glyph>
<glyph name="uni04D9" format="2">
	<advance width="590" height="0"/>
	<unicode hex="04D9"/>
	<anchor x="295" y="530" name="top"/>
	<outline>
		<contour>
			<point x="285" y="543" type="curve" smooth="yes"/>
			<point x="148" y="543" name="iv02"/>
			<point x="61" y="487"/>
			<point x="40" y="370" type="curve" name="sv01"/>
			<point x="182" y="370" type="line"/>
			<point x="193" y="401" name="iv01"/>
			<point x="225" y="420" name="hr01"/>
			<point x="285" y="420" type="curve" smooth="yes" name="ih01"/>
			<point x="345" y="420"/>
			<point x="399" y="387"/>
			<point x="402" y="305" type="curve" name="at01"/>
			<point x="30" y="305" type="line"/>
			<point x="30" y="250" type="line" smooth="yes" name="sh01"/>
			<point x="30" y="78" name="sv02"/>
			<point x="119" y="-13" name="ih02"/>
			<point x="295" y="-13" type="curve" smooth="yes" name="ih03"/>
			<point x="444" y="-13"/>
			<point x="560" y="75"/>
			<point x="560" y="250" type="curve" smooth="yes" name="hr01"/>
			<point x="560" y="270" type="line" smooth="yes"/>
			<point x="560" y="455"/>
			<point x="441" y="543"/>
		</contour>
		<contour>
			<point x="401" y="204" type="line"/>
			<point x="398" y="135"/>
			<point x="346" y="109"/>
			<point x="290" y="109" type="curve" smooth="yes"/>
			<point x="230" y="109"/>
			<point x="181" y="130"/>
			<point x="181" y="204" type="curve"/>
		</contour>
	</outline>
</glyph>
<glyph name="uni04E8" format="2">
	<advance width="790" height="0"/>
	<unicode hex="04E8"/>
	<anchor x="395" y="700" name="top"/>
	<outline>
		<contour>
			<point x="395" y="-13" type="curve" smooth="yes"/>
			<point x="584" y="-13"/>
			<point x="745" y="90"/>
			<point x="745" y="345" type="curve" smooth="yes" name="at01"/>
			<point x="745" y="365" type="line" smooth="yes"/>
			<point x="745" y="610"/>
			<point x="584" y="713" name="ih01"/>
			<point x="395" y="713" type="curve" smooth="yes"/>
			<point x="206" y="713"/>
			<point x="45" y="610" name="sv01"/>
			<point x="45" y="365" type="curve" smooth="yes" name="sh01"/>
			<point x="45" y="345" type="line" smooth="yes"/>
			<point x="45" y="90" name="iv01"/>
			<point x="206" y="-13"/>
		</contour>
		<contour>
			<point x="395" y="137" type="curve" smooth="yes" name="ih02"/>
			<point x="321" y="137" name="ih03"/>
			<point x="251" y="170"/>
			<point x="235" y="286" type="curve"/>
			<point x="555" y="286" type="line"/>
			<point x="539" y="170"/>
			<point x="467" y="137"/>
		</contour>
		<contour>
			<point x="395" y="563" type="curve" smooth="yes"/>
			<point x="468" y="563"/>
			<point x="535" y="532"/>
			<point x="554" y="424" type="curve"/>
			<point x="235" y="424" type="line"/>
			<point x="254" y="532"/>
			<point x="322" y="563"/>
		</contour>
	</outline>
</glyph>
<glyph name="uni04E9" format="2">
	<advance width="620" height="0"/>
	<unicode hex="04E9"/>
	<anchor x="310" y="530" name="top"/>
	<outline>
		<contour>
			<point x="310" y="-13" type="curve" smooth="yes"/>
			<point x="465" y="-13"/>
			<point x="590" y="78"/>
			<point x="590" y="260" type="curve" smooth="yes" name="at01"/>
			<point x="590" y="280" type="line" smooth="yes"/>
			<point x="590" y="452"/>
			<point x="465" y="543" name="ih01"/>
			<point x="310" y="543" type="curve" smooth="yes"/>
			<point x="155" y="543"/>
			<point x="30" y="452" name="sv01"/>
			<point x="30" y="280" type="curve" smooth="yes" name="sh01"/>
			<point x="30" y="260" type="line" smooth="yes"/>
			<point x="30" y="75" name="iv01"/>
			<point x="155" y="-13"/>
		</contour>
		<contour>
			<point x="310" y="115" type="curve" smooth="yes" name="ih02"/>
			<point x="243" y="115" name="ih03"/>
			<point x="202" y="152"/>
			<point x="191" y="220" type="curve"/>
			<point x="428" y="220" type="line"/>
			<point x="417" y="153"/>
			<point x="375" y="115"/>
		</contour>
		<contour>
			<point x="310" y="415" type="curve" smooth="yes"/>
			<point x="374" y="415"/>
			<point x="414" y="378"/>
			<point x="427" y="321" type="curve"/>
			<point x="192" y="321" type="line"/>
			<point x="205" y="378"/>
			<point x="246" y="415"/>
		</contour>
	</outline>
</glyph>
<glyph name="uni04F9" format="2">
	<advance width="760"/>
	<unicode hex="04F9"/>
	<outline>
		<contour>
			<point x="50" y="0" type="line"/>
			<point x="290" y="0" type="line" smooth="yes"/>
			<point x="441" y="0"/>
			<point x="500" y="72"/>
			<point x="500" y="179" type="curve" smooth="yes"/>
			<point x="500" y="300"/>
			<point x="429" y="358"/>
			<point x="290" y="358" type="curve" smooth="yes"/>
			<point x="204" y="358" type="line"/>
			<point x="204" y="530" type="line"/>
			<point x="50" y="530" type="line"/>
		</contour>
		<contour>
			<point x="204" y="116" type="line"/>
			<point x="204" y="242" type="line"/>
			<point x="270" y="242" type="line" smooth="yes"/>
			<point x="325" y="242"/>
			<point x="346" y="223"/>
			<point x="346" y="179" type="curve" smooth="yes"/>
			<point x="346" y="136"/>
			<point x="325" y="116"/>
			<point x="270" y="116" type="curve" smooth="yes"/>
		</contour>
		<contour>
			<point x="546" y="0" type="line"/>
			<point x="700" y="0" type="line"/>
			<point x="700" y="530" type="line"/>
			<point x="546" y="530" type="line"/>
		</contour>
		<contour>
			<point x="269" y="579" type="curve" smooth="yes"/>
			<point x="318" y="579"/>
			<point x="351" y="612"/>
			<point x="351" y="659" type="curve" smooth="yes"/>
			<point x="351" y="706"/>
			<point x="318" y="739"/>
			<point x="269" y="739" type="curve" smooth="yes"/>
			<point x="220" y="739"/>
			<point x="187" y="706"/>
			<point x="187" y="659" type="curve" smooth="yes"/>
			<point x="187" y="612"/>
			<point x="220" y="579"/>
		</contour>
		<contour>
			<point x="485" y="579" type="curve" smooth="yes"/>
			<point x="534" y="579"/>
			<point x="567" y="612"/>
			<point x="567" y="659" type="curve" smooth="yes"/>
			<point x="567" y="706"/>
			<point x="534" y="739"/>
			<point x="485" y="739" type="curve" smooth="yes"/>
			<point x="436" y="739"/>
			<point x="403" y="706"/>
			<point x="403" y="659" type="curve" smooth="yes"/>
			<point x="403" y="612"/>
			<point x="436" y="579"/>
		</contour>
	</outline>
</glyph>
<glyph name="uni0512" format="2">
	<advance width="730" height="0"/>
	<unicode hex="0512"/>
	<outline>
		<contour>
			<point x="361" y="-227" type="line"/>
			<point x="425" y="-227" type="line" smooth="yes" name="av01"/>
			<point x="612" y="-227"/>
			<point x="660" y="-100"/>
			<point x="660" y="0" type="curve" smooth="yes" name="at01"/>
			<point x="660" y="700" type="line"/>
			<point x="130" y="700" type="line" name="iv01"/>
			<point x="130" y="480" type="line" smooth="yes"/>
			<point x="130" y="175"/>
			<point x="105" y="147" name="ab01"/>
			<point x="40" y="147" type="curve" smooth="yes"/>
			<point x="32" y="147"/>
			<point x="27" y="147" name="sv02"/>
			<point x="25" y="148" type="curve"/>
			<point x="25" y="-10" type="line" name="sv01"/>
			<point x="36" y="-13" name="ih01"/>
			<point x="59" y="-13" name="ih02"/>
			<point x="70" y="-13" type="curve" smooth="yes" name="ih03"/>
			<point x="210" y="-13"/>
			<point x="298" y="45"/>
			<point x="298" y="460" type="curve" smooth="yes"/>
			<point x="298" y="553" type="line"/>
			<point x="480" y="553" type="line"/>
			<point x="480" y="0" type="line" smooth="yes"/>
			<point x="480" y="-55"/>
			<point x="463" y="-92"/>
			<point x="408" y="-92" type="curve" smooth="yes"/>
			<point x="361" y="-92" type="line"/>
		</contour>
	</outline>
</glyph>
<glyph name="uni0513" format="2">
	<advance width="595" height="0"/>
	<unicode hex="0513"/>
	<guideline y="119"/>
	<outline>
		<contour>
			<point x="305" y="-210" type="line"/>
			<point x="320" y="-213" name="ab01"/>
			<point x="340" y="-213"/>
			<point x="355" y="-213" type="curve" smooth="yes"/>
			<point x="503" y="-213" name="at01"/>
			<point x="545" y="-168"/>
			<point x="545" y="0" type="curve" smooth="yes" name="sv03"/>
			<point x="545" y="530" type="line"/>
			<point x="105" y="530" type="line"/>
			<point x="105" y="330" type="line" smooth="yes" name="ab02"/>
			<point x="105" y="175"/>
			<point x="80" y="123"/>
			<point x="35" y="123" type="curve" smooth="yes" name="sv02"/>
			<point x="27" y="123"/>
			<point x="22" y="123" name="sv01"/>
			<point x="20" y="124" type="curve" name="ih01"/>
			<point x="20" y="-10" type="line" name="ih02"/>
			<point x="31" y="-13" name="ih03"/>
			<point x="54" y="-13"/>
			<point x="65" y="-13" type="curve" smooth="yes"/>
			<point x="185" y="-13"/>
			<point x="249" y="45"/>
			<point x="249" y="310" type="curve" smooth="yes"/>
			<point x="249" y="404" type="line"/>
			<point x="391" y="404" type="line"/>
			<point x="391" y="15" type="line" smooth="yes"/>
			<point x="391" y="-68"/>
			<point x="372" y="-85"/>
			<point x="340" y="-85" type="curve" smooth="yes"/>
			<point x="329" y="-85"/>
			<point x="316" y="-85"/>
			<point x="305" y="-82" type="curve" name="hr02"/>
		</contour>
	</outline>
</glyph>
<glyph name="uni1E9E" format="2">
	<advance width="705" height="0"/>
	<unicode hex="1E9E"/>
	<anchor x="353" y="0" name="bottom"/>
	<anchor x="353" y="700" name="top"/>
	<outline>
		<contour>
			<point x="355" y="713" type="curve" smooth="yes"/>
			<point x="176" y="713"/>
			<point x="60" y="615"/>
			<point x="60" y="420" type="curve" smooth="yes" name="ab02"/>
			<point x="60" y="0" type="line"/>
			<point x="240" y="0" type="line" name="sv03"/>
			<point x="240" y="400" type="line" smooth="yes"/>
			<point x="240" y="508" name="iv02"/>
			<point x="281" y="563"/>
			<point x="374" y="563" type="curve" smooth="yes" name="sv02"/>
			<point x="430" y="563"/>
			<point x="459" y="542"/>
			<point x="474" y="503" type="curve" name="sv01"/>
			<point x="358" y="377" type="line"/>
			<point x="358" y="295" type="line" name="ab01"/>
			<point x="400" y="295" type="line" smooth="yes"/>
			<point x="455" y="295" name="iv01"/>
			<point x="490" y="277"/>
			<point x="490" y="221" type="curve" smooth="yes" name="ih01"/>
			<point x="490" y="174" name="ih02"/>
			<point x="466" y="140" name="ih03"/>
			<point x="415" y="140" type="curve" smooth="yes"/>
			<point x="363" y="140" type="line"/>
			<point x="363" y="0" type="line"/>
			<point x="444" y="0" type="line" smooth="yes"/>
			<point x="579" y="0"/>
			<point x="670" y="72"/>
			<point x="670" y="216" type="curve" smooth="yes"/>
			<point x="670" y="321"/>
			<point x="617" y="373"/>
			<point x="545" y="388" type="curve"/>
			<point x="652" y="503" type="line"/>
			<point x="620" y="635"/>
			<point x="516" y="713"/>
		</contour>
	</outline>
</glyph>
<glyph name="emdash" format="2">
	<advance width="730" height="0"/>
	<unicode hex="2014"/>
	<outline>
		<contour>
			<point x="25" y="206" type="line"/>
			<point x="705" y="206" type="line" name="sv01"/>
			<point x="705" y="354" type="line" name="av01"/>
			<point x="25" y="354" type="line" name="ih01"/>
		</contour>
	</outline>
</glyph>
<glyph name="quotesinglbase" format="2">
	<advance width="310" height="0"/>
	<unicode hex="201A"/>
	<outline>
		<contour>
			<point x="40" y="-155" type="line" name="sv02"/>
			<point x="120" y="-155" type="line" name="ih01"/>
			<point x="230" y="0" type="line"/>
			<point x="230" y="140" type="line"/>
			<point x="80" y="140" type="line" name="sv01"/>
			<point x="80" y="0" type="line" name="ab01"/>
		</contour>
	</outline>
</glyph>
<glyph name="bullet" format="2">
	<advance width="400" height="0"/>
	<unicode hex="2022"/>
	<outline>
		<contour>
			<point x="200" y="125" type="curve" smooth="yes"/>
			<point x="284" y="125"/>
			<point x="350" y="191" name="sv01"/>
			<point x="350" y="275" type="curve" smooth="yes"/>
			<point x="350" y="359" name="ih01"/>
			<point x="284" y="425" name="ih02"/>
			<point x="200" y="425" type="curve" smooth="yes" name="ih03"/>
			<point x="116" y="425"/>
			<point x="50" y="359"/>
			<point x="50" y="275" type="curve" smooth="yes"/>
			<point x="50" y="191"/>
			<point x="116" y="125"/>
		</contour>
	</outline>
</glyph>
<glyph name="guilsinglleft" format="2">
	<advance width="290" height="0"/>
	<unicode hex="2039"/>
	<outline>
		<contour>
			<point x="245" y="25" type="line" name="av01"/>
			<point x="245" y="191" type="line"/>
			<point x="140" y="277" type="line" name="ih01"/>
			<point x="245" y="363" type="line"/>
			<point x="245" y="525" type="line" name="sv01"/>
			<point x="25" y="338" type="line"/>
			<point x="25" y="212" type="line"/>
		</contour>
	</outline>
</glyph>
